<?xml version="1.0" standalone="no"?>
<!DOCTYPE svg PUBLIC "-//W3C//DTD SVG 20010904//EN"
 "http://www.w3.org/TR/2001/REC-SVG-20010904/DTD/svg10.dtd">
<svg version="1.0" xmlns="http://www.w3.org/2000/svg"
 width="512.000000pt" height="512.000000pt" viewBox="0 0 512.000000 512.000000"
 preserveAspectRatio="xMidYMid meet">

<g transform="translate(0.000000,512.000000) scale(0.100000,-0.100000)"
fill="#000000" stroke="none">
<path d="M3353 3345 c-134 -36 -252 -135 -318 -264 -124 -248 -94 -552 79
-796 72 -99 76 -98 49 18 -30 125 -40 301 -21 337 10 18 22 25 43 25 40 0 64
-43 67 -123 l3 -62 33 0 32 0 0 59 c0 53 4 64 31 93 19 21 38 60 51 104 l21
72 146 -6 c212 -7 371 30 443 102 32 33 53 119 44 185 -19 139 -122 204 -399
251 -137 23 -230 25 -304 5z"/>
<path d="M1652 2430 c-9 -15 -12 -121 -12 -429 l0 -409 150 86 150 87 0 262 0
262 -134 80 c-74 45 -136 81 -138 81 -2 0 -9 -9 -16 -20z"/>
<path d="M3979 2181 l-26 -49 33 -53 c19 -29 38 -55 43 -59 5 -3 39 -122 75
-266 l65 -260 -15 -141 c-13 -123 -83 -465 -99 -481 -3 -3 -5 8 -5 25 0 17
-49 166 -110 332 -93 257 -114 305 -141 329 l-33 29 37 43 c35 41 36 45 21 62
-29 31 -115 81 -123 72 -15 -16 -53 -144 -47 -159 3 -8 21 -17 40 -21 20 -3
36 -8 36 -10 0 -2 -10 -24 -22 -48 l-22 -45 35 -256 c19 -140 34 -255 33 -255
-1 0 -25 42 -52 93 -88 162 -166 268 -305 414 -151 158 -218 247 -253 331 -29
69 -30 106 -5 155 10 20 15 37 10 37 -5 0 -36 -26 -69 -57 -61 -58 -61 -58
-72 -136 -9 -64 -8 -92 6 -165 17 -89 66 -204 109 -256 l23 -29 58 37 c32 20
60 36 62 34 2 -2 -6 -32 -16 -67 -11 -34 -20 -69 -20 -76 0 -7 44 -48 98 -91
257 -207 533 -467 612 -578 18 -25 37 -43 42 -40 20 12 122 235 159 346 43
126 82 299 99 438 15 124 22 365 13 440 l-8 65 -65 8 c-35 4 -66 10 -69 12 -2
3 15 33 37 67 l41 62 -27 49 c-31 55 -128 167 -145 167 -7 0 -24 -22 -38 -49z"/>
</g>
</svg>
