<?xml version="1.0" encoding="UTF-8"?>
<svg version="1.1" xmlns="http://www.w3.org/2000/svg" width="256" height="256">
<path d="M0 0 C3.66748239 3.03432683 7.01147421 6.33435182 10.33789062 9.73535156 C11.00433594 10.36957031 11.67078125 11.00378906 12.35742188 11.65722656 C24.68720175 24.23749858 29.59663244 43.26236244 29.58666992 60.32617188 C29.21229218 83.97391723 17.54993101 101.351515 3.45288086 119.16308594 C-1.27021052 125.14924694 -5.58883885 131.28389824 -9.66210938 137.73535156 C-8.85644531 138.47914063 -8.05078125 139.22292969 -7.22070312 139.98925781 C-4.2267094 143.20265871 -3.88143691 144.5870453 -3.56835938 148.75097656 C-3.70245118 151.5892532 -4.76803608 154.05313169 -5.66210938 156.73535156 C-5.00302527 158.40503128 -4.33560099 160.07143111 -3.66210938 161.73535156 C-3.53204703 165.98405492 -4.20033611 169.00288362 -6.47460938 172.61035156 C-8.66210937 174.73535156 -8.66210937 174.73535156 -10.72460938 175.54785156 C-13.51645905 177.25898524 -13.63620898 179.59060257 -14.62304688 182.56738281 C-16.86078595 187.23634967 -21.30888249 190.62430987 -25.92700195 192.8046875 C-30.96160832 194.51779287 -36.20468676 194.10450584 -41.47460938 194.11035156 C-42.62509766 194.13484375 -43.77558594 194.15933594 -44.9609375 194.18457031 C-52.95199211 194.21204672 -58.52431954 193.2341005 -64.68554688 188.02441406 C-67.00808692 185.16487054 -68.54295711 183.11514942 -69.66210938 179.54785156 C-71.02342062 175.71916369 -73.31923591 174.9184526 -76.66210938 172.73535156 C-79.33781878 168.63259715 -80.16888731 165.60041975 -79.66210938 160.73535156 C-79.29085937 159.70410156 -78.91960937 158.67285156 -78.53710938 157.61035156 C-77.33638703 154.8490928 -77.33638703 154.8490928 -78.59960938 152.86035156 C-79.96930773 150.12095485 -79.68401997 147.83342542 -79.43945312 144.83300781 C-78.28338956 141.71337898 -76.07480855 139.9550348 -73.66210938 137.73535156 C-77.94600344 130.96931888 -82.46947283 124.61212716 -87.53710938 118.42285156 C-105.04273037 96.90961962 -115.18262971 75.33563003 -112.27148438 46.92285156 C-110.16532123 34.17786433 -104.36571835 21.39696902 -95.66210938 11.73535156 C-94.95699219 10.93871094 -94.251875 10.14207031 -93.52539062 9.32128906 C-70.22537632 -15.51705147 -27.88563017 -21.21732731 0 0 Z M-90.28710938 16.23535156 C-101.42281652 29.10854492 -106.38194302 45.33181775 -105.94726562 62.22753906 C-104.29227935 82.58613739 -94.83024995 97.51855892 -82.24829102 112.93310547 C-76.04018325 120.61126952 -69.99218445 128.83544489 -65.66210938 137.73535156 C-58.95553692 138.04042374 -52.25075727 138.25005384 -45.53881836 138.39453125 C-43.25786506 138.45476513 -40.97737304 138.53657831 -38.69799805 138.640625 C-25.93479538 139.83459216 -25.93479538 139.83459216 -14.74194336 135.23706055 C-12.95041619 132.11671852 -11.78029072 129.14702098 -10.66210938 125.73535156 C-9.40356445 123.73876953 -9.40356445 123.73876953 -8.14257812 122.17675781 C-6.95189146 120.68180709 -5.76201317 119.18617062 -4.58251953 117.68237305 C-2.85777967 115.48440889 -1.1159534 113.30056101 0.63330078 111.12207031 C15.04391606 93.14024753 23.62647754 75.45030692 22.33789062 51.73535156 C20.31778656 33.85743058 11.5312547 18.94142641 -2.23632812 7.61816406 C-30.7747877 -13.25926476 -65.92549417 -8.5843453 -90.28710938 16.23535156 Z M-72.66210938 146.73535156 C-72.25682036 149.51772811 -72.25682036 149.51772811 -70.66210938 151.73535156 C-68.86247277 151.83958093 -67.05874337 151.87389258 -65.25610352 151.88061523 C-64.10143082 151.88699509 -62.94675812 151.89337494 -61.75709534 151.89994812 C-59.87122963 151.90161736 -59.87122963 151.90161736 -57.94726562 151.90332031 C-56.66605331 151.90664871 -55.384841 151.90997711 -54.06480408 151.91340637 C-51.34861408 151.91940348 -48.63245592 151.92124569 -45.91625977 151.9206543 C-42.43120346 151.92055266 -38.94635082 151.93420372 -35.46134281 151.95142651 C-32.14414704 151.96520222 -28.82698967 151.9646348 -25.50976562 151.96582031 C-24.25454605 151.97300583 -22.99932648 151.98019135 -21.70606995 151.9875946 C-20.54824509 151.98451797 -19.39042023 151.98144135 -18.19750977 151.97827148 C-17.17460342 151.9796965 -16.15169708 151.98112152 -15.09779358 151.98258972 C-12.48163799 151.97626866 -12.48163799 151.97626866 -10.66210938 149.73535156 C-11.06739839 146.95297501 -11.06739839 146.95297501 -12.66210938 144.73535156 C-14.46174598 144.6311222 -16.26547538 144.59681055 -18.06811523 144.59008789 C-19.22278793 144.58370804 -20.37746063 144.57732819 -21.56712341 144.570755 C-23.45298912 144.56908577 -23.45298912 144.56908577 -25.37695312 144.56738281 C-26.65816544 144.56405441 -27.93937775 144.56072601 -29.25941467 144.55729675 C-31.97560467 144.55129964 -34.69176283 144.54945744 -37.40795898 144.55004883 C-40.89301529 144.55015047 -44.37786793 144.5364994 -47.86287594 144.51927662 C-51.18007171 144.5055009 -54.49722908 144.50606832 -57.81445312 144.50488281 C-59.0696727 144.4976973 -60.32489227 144.49051178 -61.6181488 144.48310852 C-62.77597366 144.48618515 -63.93379852 144.48926178 -65.12670898 144.49243164 C-66.14961533 144.49100662 -67.17252167 144.4895816 -68.22642517 144.4881134 C-70.84258076 144.49443447 -70.84258076 144.49443447 -72.66210938 146.73535156 Z M-72.66210938 162.73535156 C-72.75016084 165.37872896 -72.75016084 165.37872896 -71.66210938 167.73535156 C-68.34855229 169.94438962 -67.28876715 169.99458633 -63.42797852 170.02587891 C-62.35999527 170.03863861 -61.29201202 170.05139832 -60.19166565 170.06454468 C-59.03851364 170.06677032 -57.88536163 170.06899597 -56.69726562 170.07128906 C-55.51241074 170.07794586 -54.32755585 170.08460266 -53.10679626 170.09146118 C-50.5992895 170.10159311 -48.09175573 170.10627804 -45.58422852 170.10595703 C-41.74320174 170.11033039 -37.9033234 170.1466472 -34.0625 170.18457031 C-31.62825915 170.1904382 -29.19401282 170.19440778 -26.75976562 170.19628906 C-25.60863785 170.2106601 -24.45751007 170.22503113 -23.27149963 170.23983765 C-21.66479652 170.23060776 -21.66479652 170.23060776 -20.02563477 170.22119141 C-19.08426163 170.22404144 -18.14288849 170.22689148 -17.17298889 170.22982788 C-13.90207292 169.58567491 -12.685419 168.33466508 -10.66210938 165.73535156 C-10.57405791 163.09197416 -10.57405791 163.09197416 -11.66210938 160.73535156 C-14.97566646 158.5263135 -16.0354516 158.47611679 -19.89624023 158.44482422 C-20.96422348 158.43206451 -22.03220673 158.41930481 -23.1325531 158.40615845 C-24.28570511 158.4039328 -25.43885712 158.40170715 -26.62695312 158.39941406 C-27.81180801 158.39275726 -28.9966629 158.38610046 -30.21742249 158.37924194 C-32.72492925 158.36911002 -35.23246302 158.36442509 -37.73999023 158.36474609 C-41.58101701 158.36037273 -45.42089535 158.32405593 -49.26171875 158.28613281 C-51.6959596 158.28026493 -54.13020593 158.27629535 -56.56445312 158.27441406 C-57.7155809 158.26004303 -58.86670868 158.245672 -60.05271912 158.23086548 C-61.65942223 158.24009537 -61.65942223 158.24009537 -63.29858398 158.24951172 C-64.23995712 158.24666168 -65.18133026 158.24381165 -66.15122986 158.24087524 C-69.42214583 158.88502821 -70.63879975 160.13603805 -72.66210938 162.73535156 Z M-62.66210938 176.73535156 C-60.67331983 181.70732542 -59.86082076 182.86793891 -55.66210938 185.73535156 C-51.11662729 187.25051226 -46.61115427 186.96072819 -41.84960938 186.98535156 C-40.37137695 187.01628906 -40.37137695 187.01628906 -38.86328125 187.04785156 C-33.37417716 187.07734306 -29.36914965 186.89590014 -24.66210938 183.73535156 C-21.58400736 180.69868599 -21.58400736 180.69868599 -20.66210938 176.73535156 C-34.52210938 176.73535156 -48.38210937 176.73535156 -62.66210938 176.73535156 Z " fill="#503A8D" transform="translate(169.662109375,55.2646484375)"/>
<path d="M0 0 C2.475 0.99 2.475 0.99 5 2 C5 7.28 5 12.56 5 18 C7.97 18 10.94 18 14 18 C13.94779297 16.42798828 13.94779297 16.42798828 13.89453125 14.82421875 C13.86639063 13.44532853 13.83909076 12.06642098 13.8125 10.6875 C13.78736328 9.99720703 13.76222656 9.30691406 13.73632812 8.59570312 C13.69349272 5.64006007 13.68498598 3.51006914 15.26171875 0.95703125 C17 0 17 0 21 1 C21 6.61 21 12.22 21 18 C24.3 18 27.6 18 31 18 C31 12.72 31 7.44 31 2 C32.65 1.34 34.3 0.68 36 0 C36.99 0.495 36.99 0.495 38 1 C38 6.61 38 12.22 38 18 C40.289375 17.87625 40.289375 17.87625 42.625 17.75 C47.56989137 17.76398838 50.27348363 18.54615556 54 22 C57.24860472 26.76462025 57.28788265 30.43426871 57 36 C58.05960937 35.97679687 59.11921875 35.95359375 60.2109375 35.9296875 C61.5989513 35.91093056 62.9869727 35.89273028 64.375 35.875 C65.07367188 35.85824219 65.77234375 35.84148437 66.4921875 35.82421875 C68.32897486 35.80655733 70.16601963 35.89696739 72 36 C72.66 36.66 73.32 37.32 74 38 C73.67 39.65 73.34 41.3 73 43 C67.72 43 62.44 43 57 43 C57 46.3 57 49.6 57 53 C58.14339844 52.98839844 59.28679687 52.97679687 60.46484375 52.96484375 C61.95572754 52.95546712 63.44661309 52.94636679 64.9375 52.9375 C65.69224609 52.92912109 66.44699219 52.92074219 67.22460938 52.91210938 C69.14994313 52.90347559 71.07535581 52.94775667 73 53 C74 54 74 54 74.125 56.5 C74 59 74 59 73 60 C70.30345146 60.07319621 67.63308542 60.09242537 64.9375 60.0625 C63.79958008 60.05573242 63.79958008 60.05573242 62.63867188 60.04882812 C60.75908129 60.0370068 58.87953101 60.01907078 57 60 C57 63.3 57 66.6 57 70 C62.28 70 67.56 70 73 70 C73.33 71.65 73.66 73.3 74 75 C72 77 72 77 68.5234375 77.1953125 C67.14049032 77.18201493 65.75761346 77.15816232 64.375 77.125 C63.31539062 77.11146484 63.31539062 77.11146484 62.234375 77.09765625 C60.48943902 77.07407603 58.74467705 77.03820461 57 77 C57.0928125 78.794375 57.0928125 78.794375 57.1875 80.625 C57.16536278 84.80155523 56.39666927 87.48488507 54 91 C50.27348363 94.45384444 47.56989137 95.23601162 42.625 95.25 C41.09875 95.1675 39.5725 95.085 38 95 C38 100.61 38 106.22 38 112 C36.68 112.33 35.36 112.66 34 113 C32.515 112.01 32.515 112.01 31 111 C30.77892213 108.2114711 30.71892465 105.65346819 30.8125 102.875 C30.83280273 101.74384766 30.83280273 101.74384766 30.85351562 100.58984375 C30.88890015 98.72625873 30.94270833 96.86304022 31 95 C27.7 95 24.4 95 21 95 C21 100.61 21 106.22 21 112 C17 113 17 113 15 112 C13.81318274 108.43954823 13.90310168 105.56191663 13.9375 101.8125 C13.94652344 100.54019531 13.95554688 99.26789063 13.96484375 97.95703125 C13.97644531 96.98121094 13.98804688 96.00539063 14 95 C11.03 95 8.06 95 5 95 C5.05220703 96.57201172 5.05220703 96.57201172 5.10546875 98.17578125 C5.13360937 99.55467147 5.16090924 100.93357902 5.1875 102.3125 C5.21263672 103.00279297 5.23777344 103.69308594 5.26367188 104.40429688 C5.30650728 107.35993993 5.31501402 109.48993086 3.73828125 112.04296875 C2 113 2 113 -2 112 C-2 106.39 -2 100.78 -2 95 C-3.52625 95.0825 -5.0525 95.165 -6.625 95.25 C-11.56989137 95.23601162 -14.27348363 94.45384444 -18 91 C-21.24860472 86.23537975 -21.28788265 82.56573129 -21 77 C-22.05960938 77.02320313 -23.11921875 77.04640625 -24.2109375 77.0703125 C-25.5989513 77.08906944 -26.9869727 77.10726972 -28.375 77.125 C-29.07367188 77.14175781 -29.77234375 77.15851563 -30.4921875 77.17578125 C-32.32897486 77.19344267 -34.16601963 77.10303261 -36 77 C-36.66 76.34 -37.32 75.68 -38 75 C-37.67 73.35 -37.34 71.7 -37 70 C-31.72 70 -26.44 70 -21 70 C-21 66.7 -21 63.4 -21 60 C-22.14339844 60.01160156 -23.28679687 60.02320313 -24.46484375 60.03515625 C-25.95572754 60.04453288 -27.44661309 60.05363321 -28.9375 60.0625 C-29.69224609 60.07087891 -30.44699219 60.07925781 -31.22460938 60.08789062 C-33.14994313 60.09652441 -35.07535581 60.05224333 -37 60 C-38 59 -38 59 -38.125 56.5 C-38 54 -38 54 -37 53 C-34.30345146 52.92680379 -31.63308542 52.90757463 -28.9375 52.9375 C-27.79958008 52.94426758 -27.79958008 52.94426758 -26.63867188 52.95117188 C-24.75908129 52.9629932 -22.87953101 52.98092922 -21 53 C-21 49.7 -21 46.4 -21 43 C-26.28 43 -31.56 43 -37 43 C-37.33 41.35 -37.66 39.7 -38 38 C-36 36 -36 36 -32.5234375 35.8046875 C-31.14049032 35.81798507 -29.75761346 35.84183768 -28.375 35.875 C-27.66859375 35.88402344 -26.9621875 35.89304688 -26.234375 35.90234375 C-24.48943902 35.92592397 -22.74467705 35.96179539 -21 36 C-21.061875 34.80375 -21.12375 33.6075 -21.1875 32.375 C-21.16536278 28.19844477 -20.39666927 25.51511493 -18 22 C-14.27348363 18.54615556 -11.56989137 17.76398838 -6.625 17.75 C-5.09875 17.8325 -3.5725 17.915 -2 18 C-2 12.39 -2 6.78 -2 1 C-1.34 0.67 -0.68 0.34 0 0 Z M-14 29 C-14.60111205 31.58358879 -14.60111205 31.58358879 -14.51757812 34.43945312 C-14.53018677 35.52738159 -14.54279541 36.61531006 -14.55578613 37.73620605 C-14.54768921 38.90607056 -14.53959229 40.07593506 -14.53125 41.28125 C-14.5350769 42.48688599 -14.53890381 43.69252197 -14.54284668 44.93469238 C-14.54556826 47.48332555 -14.53819005 50.03198654 -14.52148438 52.58056641 C-14.5000804 56.48533302 -14.52128003 60.38825948 -14.546875 64.29296875 C-14.54423177 66.76823323 -14.5391069 69.24349657 -14.53125 71.71875 C-14.53934692 72.8886145 -14.54744385 74.058479 -14.55578613 75.26379395 C-14.54317749 76.35172241 -14.53056885 77.43965088 -14.51757812 78.56054688 C-14.51439575 79.5166687 -14.51121338 80.47279053 -14.50793457 81.45788574 C-13.83568287 84.82237544 -12.75381647 85.98743155 -10 88 C-7.36796816 88.59498098 -7.36796816 88.59498098 -4.45288086 88.50170898 C-3.34170395 88.51108994 -2.23052704 88.52047089 -1.0856781 88.53013611 C0.10919724 88.51890213 1.30407257 88.50766815 2.53515625 88.49609375 C4.38046181 88.4982766 4.38046181 88.4982766 6.26304626 88.50050354 C8.86296966 88.4988438 11.4629028 88.48727436 14.06274414 88.46655273 C16.73192365 88.44716481 19.39865002 88.43684071 22.06762695 88.44604492 C25.91120554 88.45861106 29.75410245 88.44998373 33.59765625 88.43359375 C34.79455582 88.43652939 35.99145538 88.43946503 37.22462463 88.44248962 C38.88666176 88.42346336 38.88666176 88.42346336 40.58227539 88.40405273 C41.55838272 88.39864975 42.53449005 88.39324677 43.54017639 88.38768005 C46.4093861 87.93547878 47.25990905 87.27446889 49 85 C50.26108735 82.47782531 50.14752356 80.70259509 50.17700195 77.87939453 C50.18983719 76.81133575 50.20267242 75.74327698 50.21589661 74.64285278 C50.22328354 73.48453949 50.23067047 72.3262262 50.23828125 71.1328125 C50.25038887 69.35340775 50.25038887 69.35340775 50.26274109 67.53805542 C50.27658957 65.02457139 50.28730829 62.51106849 50.29516602 59.99755859 C50.31239816 56.1477515 50.35628137 52.29879861 50.40039062 48.44921875 C50.41051547 46.010423 50.41903222 43.57161993 50.42578125 41.1328125 C50.45204338 39.40141525 50.45204338 39.40141525 50.47883606 37.63504028 C50.47591049 36.56067719 50.47298492 35.48631409 50.4699707 34.37939453 C50.47877007 32.96281052 50.47877007 32.96281052 50.48774719 31.51760864 C49.83731619 28.16027368 48.74144893 27.00743055 46 25 C43.37558492 24.39848882 43.37558492 24.39848882 40.46875 24.48242188 C38.80682617 24.46350891 38.80682617 24.46350891 37.11132812 24.44421387 C35.91958984 24.45231079 34.72785156 24.46040771 33.5 24.46875 C32.27216797 24.4649231 31.04433594 24.46109619 29.77929688 24.45715332 C27.18358541 24.45443158 24.58784664 24.46181089 21.9921875 24.47851562 C18.01500401 24.49991925 14.03962718 24.47872037 10.0625 24.453125 C7.54166267 24.45576823 5.02082647 24.46089309 2.5 24.46875 C1.30826172 24.46065308 0.11652344 24.45255615 -1.11132812 24.44421387 C-2.21927734 24.45682251 -3.32722656 24.46943115 -4.46875 24.48242188 C-5.44263672 24.48560425 -6.41652344 24.48878662 -7.41992188 24.49206543 C-10.80829327 25.159127 -11.97438365 26.2286132 -14 29 Z " fill="#673A8D" transform="translate(110,57)"/>
<path d="M0 0 C0.87315353 -0.00807175 1.74630707 -0.01614349 2.6459198 -0.02445984 C4.49610405 -0.03830239 6.34631387 -0.04902378 8.1965332 -0.05688477 C11.02149072 -0.07408795 13.84527496 -0.11797041 16.66992188 -0.16210938 C18.46743931 -0.17223722 20.2649667 -0.18075304 22.0625 -0.1875 C22.90537064 -0.20500809 23.74824127 -0.22251617 24.61665344 -0.24055481 C28.68775361 -0.2255544 30.71808951 -0.08536824 34.2409668 2.13989258 C38.00324244 6.10807999 37.42458942 10.02064075 37.46875 15.2265625 C37.47682175 16.12191208 37.48489349 17.01726166 37.49320984 17.93974304 C37.50705305 19.83700624 37.51777414 21.73429438 37.52563477 23.6315918 C37.54283921 26.52896519 37.58672152 29.42519504 37.63085938 32.32226562 C37.64098707 34.16535619 37.64950293 36.00845646 37.65625 37.8515625 C37.67375809 38.71630692 37.69126617 39.58105133 37.70930481 40.47200012 C37.69464519 44.55093074 37.55460527 46.70528258 35.39135742 50.26245117 C31.32707962 53.97866406 26.79278354 53.42973066 21.58203125 53.4765625 C20.73248871 53.48463425 19.88294617 53.49270599 19.00765991 53.50102234 C17.21053092 53.51484673 15.41337586 53.52557624 13.61621094 53.53344727 C10.87254029 53.55067406 8.13007067 53.59457525 5.38671875 53.63867188 C3.63933176 53.64879814 1.89193455 53.65731445 0.14453125 53.6640625 C-1.08225845 53.69032463 -1.08225845 53.69032463 -2.33383179 53.71711731 C-6.34544249 53.70189025 -8.29318978 53.54076158 -11.76416016 51.33666992 C-15.54900854 47.37626429 -14.96359457 43.46268215 -15.0078125 38.25 C-15.01588425 37.35465042 -15.02395599 36.45930084 -15.03227234 35.53681946 C-15.04611555 33.63955626 -15.05683664 31.74226812 -15.06469727 29.8449707 C-15.08190171 26.94759731 -15.12578402 24.05136746 -15.16992188 21.15429688 C-15.18004957 19.31120631 -15.18856543 17.46810604 -15.1953125 15.625 C-15.21282059 14.76025558 -15.23032867 13.89551117 -15.24836731 13.00456238 C-15.23355421 8.88292473 -15.11105692 6.78141625 -12.86791992 3.21411133 C-8.93916304 -0.48518239 -5.1421857 0.04474383 0 0 Z M-7.76953125 8.23828125 C-7.87052613 10.96552404 -7.90923654 13.66690648 -7.90234375 16.39453125 C-7.90330048 17.21199829 -7.9042572 18.02946533 -7.90524292 18.8717041 C-7.9059247 20.60343503 -7.90407054 22.33516849 -7.89990234 24.06689453 C-7.89455404 26.72694607 -7.89984737 29.38682875 -7.90625 32.046875 C-7.90558922 33.72526079 -7.90430805 35.40364648 -7.90234375 37.08203125 C-7.90436798 37.88306274 -7.90639221 38.68409424 -7.90847778 39.50939941 C-8.24166793 43.17410426 -8.24166793 43.17410426 -6.76953125 46.23828125 C-4.11496932 46.33923689 -1.48697949 46.37799123 1.16796875 46.37109375 C2.36087524 46.37252884 2.36087524 46.37252884 3.57788086 46.37399292 C5.26253335 46.37467468 6.94718846 46.37282068 8.63183594 46.36865234 C11.21946072 46.363304 13.80691191 46.36859744 16.39453125 46.375 C18.02734414 46.37433922 19.66015691 46.37305805 21.29296875 46.37109375 C22.07212646 46.37311798 22.85128418 46.37514221 23.65405273 46.37722778 C27.23841075 46.69667705 27.23841075 46.69667705 30.23046875 45.23828125 C30.33146363 42.51103846 30.37017404 39.80965602 30.36328125 37.08203125 C30.36423798 36.26456421 30.3651947 35.44709717 30.36618042 34.6048584 C30.3668622 32.87312747 30.36500804 31.14139401 30.36083984 29.40966797 C30.35549154 26.74961643 30.36078487 24.08973375 30.3671875 21.4296875 C30.36652672 19.75130171 30.36524555 18.07291602 30.36328125 16.39453125 C30.36530548 15.59349976 30.36732971 14.79246826 30.36941528 13.96716309 C30.70260543 10.30245824 30.70260543 10.30245824 29.23046875 7.23828125 C26.57590682 7.13732561 23.94791699 7.09857127 21.29296875 7.10546875 C20.49769775 7.10451202 19.70242676 7.1035553 18.88305664 7.10256958 C17.19840415 7.10188782 15.51374904 7.10374182 13.82910156 7.10791016 C11.24147678 7.1132585 8.65402559 7.10796506 6.06640625 7.1015625 C4.43359336 7.10222328 2.80078059 7.10350445 1.16796875 7.10546875 C0.38881104 7.10344452 -0.39034668 7.10142029 -1.19311523 7.09933472 C-4.77747325 6.77988545 -4.77747325 6.77988545 -7.76953125 8.23828125 Z " fill="#673A8C" transform="translate(116.76953125,86.76171875)"/>
<path d="M0 0 C2.34765625 -0.203125 2.34765625 -0.203125 5 0 C6.37109375 1.328125 6.37109375 1.328125 7.4375 3.25 C8.04271484 4.33474609 8.04271484 4.33474609 8.66015625 5.44140625 C9.10230469 6.28574219 9.54445312 7.13007812 10 8 C10.55558594 8.99902344 11.11117187 9.99804688 11.68359375 11.02734375 C16.08738335 19.25520932 16.08738335 19.25520932 15.6640625 22.86328125 C15.44492188 23.56839844 15.22578125 24.27351563 15 25 C13.1875 25.6875 13.1875 25.6875 11 26 C9.25 24.6875 9.25 24.6875 8 23 C8 22.34 8 21.68 8 21 C6.39479996 21.06023265 4.79065673 21.14908599 3.1875 21.25 C2.29417969 21.29640625 1.40085937 21.3428125 0.48046875 21.390625 C-2.16053515 21.79121416 -2.16053515 21.79121416 -3.82421875 24.046875 C-4.21222656 24.69140625 -4.60023437 25.3359375 -5 26 C-6.65 25.67 -8.3 25.34 -10 25 C-9.53668134 18.72413821 -7.34598951 14.08996628 -4.4375 8.5625 C-4.01275391 7.73556641 -3.58800781 6.90863281 -3.15039062 6.05664062 C-2.10926358 4.03287682 -1.05906181 2.01441917 0 0 Z M2 12 C2 12.66 2 13.32 2 14 C2.66 14 3.32 14 4 14 C4 13.34 4 12.68 4 12 C3.34 12 2.68 12 2 12 Z " fill="#663A8C" transform="translate(121,101)"/>
<path d="M0 0 C2.625 0.375 2.625 0.375 5 1 C5.02886984 4.97915159 5.04675406 8.95827653 5.0625 12.9375 C5.07087891 14.07380859 5.07925781 15.21011719 5.08789062 16.38085938 C5.09111328 17.46044922 5.09433594 18.54003906 5.09765625 19.65234375 C5.10289307 20.65257568 5.10812988 21.65280762 5.11352539 22.68334961 C5 25 5 25 4 26 C1.5 26.125 1.5 26.125 -1 26 C-3.47598733 23.52401267 -2.1855126 16.89139842 -2.1875 13.5625 C-2.19974609 12.48677734 -2.21199219 11.41105469 -2.22460938 10.30273438 C-2.22654297 9.27599609 -2.22847656 8.24925781 -2.23046875 7.19140625 C-2.23457764 6.24467041 -2.23868652 5.29793457 -2.24291992 4.32250977 C-2 2 -2 2 0 0 Z " fill="#663A8D" transform="translate(140,100)"/>
<path d="M0 0 C0.67289063 0.30164062 1.34578125 0.60328125 2.0390625 0.9140625 C2.42578125 2.98828125 2.42578125 2.98828125 2.0390625 5.9140625 C0.25627176 8.46931941 -1.91462435 10.56504104 -4.1484375 12.7265625 C-5.0156543 13.6227832 -5.0156543 13.6227832 -5.90039062 14.53710938 C-10.22959525 18.81739644 -10.22959525 18.81739644 -13.88671875 19.30078125 C-14.91345703 19.10935547 -14.91345703 19.10935547 -15.9609375 18.9140625 C-16.875 16.875 -16.875 16.875 -16.9609375 13.9140625 C-15.10634184 11.10459431 -12.75118016 8.8685569 -10.3359375 6.5390625 C-9.70558594 5.88550781 -9.07523438 5.23195313 -8.42578125 4.55859375 C-3.70083634 -0.10741214 -3.70083634 -0.10741214 0 0 Z " fill="#8B398D" transform="translate(201.9609375,37.0859375)"/>
<path d="M0 0 C5.42214397 0.119168 8.29335864 3.62873871 11.875 7.25 C12.48085937 7.82363281 13.08671875 8.39726563 13.7109375 8.98828125 C15.32422273 10.59789993 16.7529216 12.09188929 18 14 C17.8828125 16.921875 17.8828125 16.921875 17 19 C14.92578125 19.38671875 14.92578125 19.38671875 12 19 C9.44474309 17.21720926 7.34902146 15.04631315 5.1875 12.8125 C4.59001953 12.23435547 3.99253906 11.65621094 3.37695312 11.06054688 C-0.88185114 6.75307056 -0.88185114 6.75307056 -1.44921875 3.13671875 C-1 1 -1 1 0 0 Z " fill="#8B398D" transform="translate(53,37)"/>
<path d="M0 0 C1.40958984 -0.00193359 1.40958984 -0.00193359 2.84765625 -0.00390625 C3.83636719 -0.00003906 4.82507813 0.00382812 5.84375 0.0078125 C7.32681641 0.00201172 7.32681641 0.00201172 8.83984375 -0.00390625 C9.77957031 -0.00261719 10.71929687 -0.00132813 11.6875 0 C12.55568359 0.00112793 13.42386719 0.00225586 14.31835938 0.00341797 C16.34375 0.1328125 16.34375 0.1328125 17.34375 1.1328125 C17.46875 3.6328125 17.46875 3.6328125 17.34375 6.1328125 C14.98419489 8.49236761 9.07622174 7.31823655 5.90625 7.3203125 C4.92591797 7.33255859 3.94558594 7.34480469 2.93554688 7.35742188 C1.99904297 7.35935547 1.06253906 7.36128906 0.09765625 7.36328125 C-0.76529053 7.36739014 -1.6282373 7.37149902 -2.51733398 7.37573242 C-4.65625 7.1328125 -4.65625 7.1328125 -6.65625 5.1328125 C-5.91285149 0.22638232 -4.73429112 0.00615071 0 0 Z " fill="#673A8D" transform="translate(216.65625,109.8671875)"/>
<path d="M0 0 C0.98033203 -0.01224609 1.96066406 -0.02449219 2.97070312 -0.03710938 C3.90720703 -0.03904297 4.84371094 -0.04097656 5.80859375 -0.04296875 C6.67154053 -0.04707764 7.5344873 -0.05118652 8.42358398 -0.05541992 C10.5625 0.1875 10.5625 0.1875 12.5625 2.1875 C12.02678571 5.72321429 12.02678571 5.72321429 10.5625 7.1875 C9.01294441 7.28649523 7.45896327 7.31829524 5.90625 7.3203125 C4.49666016 7.32224609 4.49666016 7.32224609 3.05859375 7.32421875 C2.06988281 7.32035156 1.08117187 7.31648438 0.0625 7.3125 C-0.92621094 7.31636719 -1.91492188 7.32023437 -2.93359375 7.32421875 C-3.87332031 7.32292969 -4.81304688 7.32164063 -5.78125 7.3203125 C-6.64943359 7.31918457 -7.51761719 7.31805664 -8.41210938 7.31689453 C-10.4375 7.1875 -10.4375 7.1875 -11.4375 6.1875 C-11.5625 3.6875 -11.5625 3.6875 -11.4375 1.1875 C-9.07794489 -1.17205511 -3.16997174 0.00207595 0 0 Z " fill="#673A8D" transform="translate(33.4375,109.8125)"/>
<path d="M0 0 C1.65 0.33 3.3 0.66 5 1 C5 8.59 5 16.18 5 24 C3.02 24 1.04 24 -1 24 C-1.02887236 20.18751574 -1.04675492 16.3750593 -1.0625 12.5625 C-1.07087891 11.47388672 -1.07925781 10.38527344 -1.08789062 9.26367188 C-1.09111328 8.22919922 -1.09433594 7.19472656 -1.09765625 6.12890625 C-1.10289307 5.17056885 -1.10812988 4.21223145 -1.11352539 3.22485352 C-1 1 -1 1 0 0 Z " fill="#99398D" transform="translate(126,7)"/>
</svg>
