<?xml version="1.0" encoding="UTF-8"?>
<svg version="1.1" xmlns="http://www.w3.org/2000/svg" width="256" height="256">
<path d="M0 0 C1.26171875 1.61328125 1.26171875 1.61328125 2.26171875 4.61328125 C7.05667082 7.01075728 11.65331746 6.71638076 16.87109375 6.48828125 C19.26171875 6.61328125 19.26171875 6.61328125 21.26171875 8.61328125 C21.50921875 9.54140625 21.75671875 10.46953125 22.01171875 11.42578125 C23.64762098 15.59733193 25.50838535 17.20548247 29.26171875 19.61328125 C30.90140625 19.45859375 30.90140625 19.45859375 32.57421875 19.30078125 C37.96365494 19.75751313 39.74931282 22.65692096 43.140625 26.66015625 C45.2335132 29.57401164 46.73204997 32.43847669 48.26171875 35.67578125 C50.09075129 39.51461802 50.09075129 39.51461802 53.62890625 41.52734375 C55.90803203 41.77584656 57.98261028 41.83106273 60.26171875 41.61328125 C60.37128906 40.92363281 60.48085937 40.23398437 60.59375 39.5234375 C62.76310687 26.66602972 62.76310687 26.66602972 65.26171875 21.61328125 C69.05334902 19.08552774 72.07045906 19.3888509 76.44921875 19.48828125 C77.19880859 19.49730469 77.94839844 19.50632812 78.72070312 19.515625 C80.56784529 19.53915547 82.41482287 19.57502564 84.26171875 19.61328125 C84.53371094 18.84371094 84.80570313 18.07414062 85.0859375 17.28125 C87.02388284 12.88385243 90.54428729 10.53805204 94.69921875 8.30078125 C100.64891242 6.70452197 105.0980156 7.44386264 110.3984375 10.3359375 C114.25064485 12.97675889 116.77294501 16.14696002 118.26171875 20.61328125 C119.04488915 26.91220887 118.58045157 31.71159877 114.796875 36.91796875 C111.48445075 40.57596397 108.53087206 42.29198521 103.61328125 42.98828125 C97.2861358 43.26563557 93.28140396 42.50609835 88.26171875 38.61328125 C84.26171875 33.48507612 84.26171875 33.48507612 84.26171875 30.61328125 C80.96171875 30.61328125 77.66171875 30.61328125 74.26171875 30.61328125 C74.00777344 31.95003906 73.75382813 33.28679688 73.4921875 34.6640625 C73.14513429 36.41808818 72.79744484 38.17198805 72.44921875 39.92578125 C72.28357422 40.80685547 72.11792969 41.68792969 71.94726562 42.59570312 C71.77646484 43.44326172 71.60566406 44.29082031 71.4296875 45.1640625 C71.27781982 45.94434814 71.12595215 46.72463379 70.96948242 47.52856445 C70.14767974 49.94918297 69.26180158 51.04161274 67.26171875 52.61328125 C64.5625 53.125 64.5625 53.125 61.57421875 53.30078125 C60.58035156 53.36652344 59.58648437 53.43226562 58.5625 53.5 C57.42361328 53.55607422 57.42361328 53.55607422 56.26171875 53.61328125 C56.39449219 54.15855469 56.52726563 54.70382813 56.6640625 55.265625 C56.92896484 56.39677734 56.92896484 56.39677734 57.19921875 57.55078125 C57.37324219 58.28167969 57.54726562 59.01257812 57.7265625 59.765625 C58.46438747 63.69171555 58.85930969 67.64064267 59.26171875 71.61328125 C63.51120204 71.7874404 67.7597703 71.89409252 72.01171875 71.98828125 C73.21828125 72.03855469 74.42484375 72.08882813 75.66796875 72.140625 C78.96762957 72.19561935 82.01061728 72.18636164 85.26171875 71.61328125 C88.05733955 68.92121734 88.05733955 68.92121734 89.26171875 65.61328125 C94.32280645 61.0459582 98.12895703 60.30593733 104.76171875 60.40234375 C109.81257184 60.82850948 112.86257594 62.94407128 116.07421875 66.67578125 C120.1216008 72.11083714 119.86575601 76.96887137 119.26171875 83.61328125 C117.59480347 88.99503628 114.11244082 91.92990309 109.26171875 94.61328125 C103.8311104 96.42348403 99.16428103 96.31425872 94.01171875 93.92578125 C89.91027896 91.66152863 87.36123694 88.81231764 85.26171875 84.61328125 C76.68171875 84.61328125 68.10171875 84.61328125 59.26171875 84.61328125 C58.97296875 86.82015625 58.68421875 89.02703125 58.38671875 91.30078125 C57.78231171 95.92017793 57.01669984 99.22582852 55.26171875 103.61328125 C59.55171875 103.61328125 63.84171875 103.61328125 68.26171875 103.61328125 C71.39003303 110.01887715 72.78817159 116.663573 74.26171875 123.61328125 C77.56171875 123.94328125 80.86171875 124.27328125 84.26171875 124.61328125 C84.46796875 123.89140625 84.67421875 123.16953125 84.88671875 122.42578125 C87.12063332 117.85641054 90.56569717 115.44244736 95.07421875 113.23828125 C100.77368585 112.12073868 105.42723958 112.64412244 110.57421875 115.36328125 C114.83105572 118.92714476 117.83153174 122.15334858 118.53515625 127.8125 C118.80504733 134.42483138 117.53769288 138.53098056 113.26171875 143.61328125 C108.65550789 147.81306174 104.05893898 147.96200976 98.0546875 147.890625 C93.74200862 147.46237297 91.69802719 146.27817351 88.26171875 143.61328125 C84.26171875 138.48507612 84.26171875 138.48507612 84.26171875 135.61328125 C82.98554688 135.63648438 81.709375 135.6596875 80.39453125 135.68359375 C78.72526625 135.70234954 77.05599495 135.72054994 75.38671875 135.73828125 C74.12408203 135.76341797 74.12408203 135.76341797 72.8359375 135.7890625 C72.03027344 135.79550781 71.22460938 135.80195313 70.39453125 135.80859375 C69.65090332 135.81906738 68.90727539 135.82954102 68.14111328 135.84033203 C66.26171875 135.61328125 66.26171875 135.61328125 64.26171875 133.61328125 C63.47238684 130.77860024 62.77261363 127.98187369 62.13671875 125.11328125 C61.95496094 124.32824219 61.77320313 123.54320313 61.5859375 122.734375 C60.26171875 116.92971687 60.26171875 116.92971687 60.26171875 114.61328125 C56.96171875 114.61328125 53.66171875 114.61328125 50.26171875 114.61328125 C49.99101562 115.3403125 49.7203125 116.06734375 49.44140625 116.81640625 C46.37767307 124.08009153 41.37643043 130.48362003 36.78417969 136.84936523 C25.76654206 151.19766811 25.76654206 151.19766811 21.38671875 168.05078125 C22.22721166 170.83935559 22.22721166 170.83935559 24.32421875 173.86328125 C26.80626117 178.02115523 27.03258565 181.87548134 26.26171875 186.61328125 C25.26171875 188.61328125 24.26171875 190.61328125 23.26171875 192.61328125 C23.90835442 195.31368515 23.90835442 195.31368515 25.26171875 197.61328125 C26.85879624 202.40451373 27.29756354 207.12467488 25.3203125 211.875 C22.93963221 215.91245467 20.67482666 218.70491026 16.26171875 220.61328125 C15.60171875 220.61328125 14.94171875 220.61328125 14.26171875 220.61328125 C14.34873047 221.95519531 14.34873047 221.95519531 14.4375 223.32421875 C14.74167943 231.47622738 14.45999885 238.0312863 9.26171875 244.61328125 C3.1051102 249.8799246 -2.61787615 250.76984316 -10.5390625 250.81640625 C-11.29366257 250.82210632 -12.04826263 250.8278064 -12.82572937 250.8336792 C-14.42018237 250.84310744 -16.01465466 250.84965452 -17.60913086 250.85351562 C-20.03208947 250.86320649 -22.45419389 250.89424325 -24.87695312 250.92578125 C-26.43098458 250.9323137 -27.98502207 250.93756322 -29.5390625 250.94140625 C-30.61442009 250.95992645 -30.61442009 250.95992645 -31.71150208 250.9788208 C-39.59261556 250.94440722 -45.10003162 248.12338884 -50.73828125 242.61328125 C-53.83602036 237.67876506 -54.12418144 233.86470711 -53.92578125 228.23828125 C-53.90547852 227.13419922 -53.90547852 227.13419922 -53.88476562 226.0078125 C-53.84972994 224.20931382 -53.79593413 222.41119703 -53.73828125 220.61328125 C-54.6715625 220.33742187 -55.60484375 220.0615625 -56.56640625 219.77734375 C-60.55045247 218.31521841 -62.62593853 216.18923223 -64.73828125 212.61328125 C-67.60387582 206.04006907 -66.32115998 201.26068682 -64.06640625 194.640625 C-63.6503901 192.07023948 -64.2689812 190.79589936 -65.30078125 188.42578125 C-67.10144374 183.41201001 -66.79852293 179.52093242 -64.73828125 174.61328125 C-63.97515625 173.85015625 -63.21203125 173.08703125 -62.42578125 172.30078125 C-60.28519186 168.89169444 -60.75644652 167.84651392 -61.61328125 163.98828125 C-63.47047505 157.84584109 -65.46961101 151.51810321 -69.73828125 146.61328125 C-72.16005009 145.77612659 -74.06871819 145.67460921 -76.62109375 145.6875 C-78.73828125 145.61328125 -78.73828125 145.61328125 -81.67578125 143.98828125 C-83.73828125 141.61328125 -83.73828125 141.61328125 -84.36328125 138.11328125 C-85.37222418 134.50508961 -85.37222418 134.50508961 -88.125 133.16796875 C-91.0812276 131.97600515 -93.56685049 130.99051921 -96.73828125 130.61328125 C-99.42570167 131.92037516 -99.42570167 131.92037516 -101.73828125 133.61328125 C-104.92075354 134.24977571 -106.81792216 134.1429573 -109.65234375 132.51171875 C-115.38019345 128.37616703 -122.04247143 123.32713142 -124.73828125 116.61328125 C-125.29302492 112.36296577 -125.17350623 109.26611872 -122.73828125 105.61328125 C-123.19407219 101.51116278 -124.57582755 97.56562384 -125.73828125 93.61328125 C-126.81078125 93.55140625 -127.88328125 93.48953125 -128.98828125 93.42578125 C-132.73828125 92.61328125 -132.73828125 92.61328125 -134.94140625 90.78125 C-137.65702003 85.99350483 -137.31931547 81.52231543 -137.23828125 76.11328125 C-137.25375 75.08074219 -137.26921875 74.04820313 -137.28515625 72.984375 C-137.26170938 68.44154469 -137.21091462 65.44655443 -134.94140625 61.4453125 C-131.98325534 58.98543169 -129.51599759 58.83122642 -125.73828125 58.61328125 C-125.20433946 57.20150295 -124.68663021 55.78357881 -124.17578125 54.36328125 C-123.88574219 53.574375 -123.59570312 52.78546875 -123.296875 51.97265625 C-122.50533414 48.62936479 -123.23401438 46.621815 -124.73828125 43.61328125 C-125.25273003 37.43989591 -124.83882356 34.51392937 -120.73828125 29.61328125 C-110.75596035 18.8250482 -110.75596035 18.8250482 -104.17578125 18.36328125 C-100.73828125 18.61328125 -100.73828125 18.61328125 -97.73828125 20.61328125 C-94.84025522 20.42274547 -94.84025522 20.42274547 -91.73828125 19.61328125 C-90.66578125 19.40703125 -89.59328125 19.20078125 -88.48828125 18.98828125 C-87.58078125 18.53453125 -86.67328125 18.08078125 -85.73828125 17.61328125 C-85.00957653 15.29857213 -84.34588607 12.96268655 -83.73828125 10.61328125 C-81.56531566 8.13178099 -79.8490183 6.77940502 -76.5378418 6.28417969 C-73.89226471 6.1733756 -71.26107521 6.16134932 -68.61328125 6.17578125 C-61.27544376 6.03427163 -55.75264554 5.477321 -49.21484375 1.88671875 C-38.00762582 -3.87598321 -10.61777521 -8.47036 0 0 Z " fill="#020202" transform="translate(136.73828125,4.38671875)"/>
<path d="M0 0 C4.62 0 9.24 0 14 0 C14 1.36125 14 2.7225 14 4.125 C14.37406026 6.70886416 14.37406026 6.70886416 16 9 C19.78824345 11.30315133 24.06817555 12.50166824 28.27734375 13.80859375 C32 15 32 15 35 17 C37.98103359 16.77642248 39.53435547 16.4014177 41.8125 14.4375 C42.204375 13.963125 42.59625 13.48875 43 13 C46.21524305 14.40844718 48.32183868 16.10344786 50.75 18.625 C51.36359375 19.25664063 51.9771875 19.88828125 52.609375 20.5390625 C53.29773438 21.26222656 53.29773438 21.26222656 54 22 C53.319375 22.86625 52.63875 23.7325 51.9375 24.625 C49.79201618 27.74013788 49.79201618 27.74013788 49.9375 30.6875 C51.24248001 34.7559671 53.02904537 38.50515924 54.85546875 42.36328125 C56.10057162 45.2316923 56.7471666 47.88172135 57 51 C59.97 51.33 62.94 51.66 66 52 C66 56.62 66 61.24 66 66 C64.80375 66.020625 63.6075 66.04125 62.375 66.0625 C60.06432414 66.46046269 60.06432414 66.46046269 58 68 C56.0014764 71.74505944 54.58819198 75.48728771 53.2265625 79.49609375 C52 83 52 83 50 86 C50.27589594 91.05809218 50.87723209 92.83630946 54 97 C51.03 99.97 48.06 102.94 45 106 C41 104 41 104 39 102 C34.60870296 102.35605111 30.95446968 103.69076609 26.9375 105.4375 C25.43509766 106.08525391 25.43509766 106.08525391 23.90234375 106.74609375 C22.94457031 107.15988281 21.98679687 107.57367188 21 108 C19.33568608 108.67251869 17.66981737 109.34126471 16 110 C15.67 112.97 15.34 115.94 15 119 C10.05 119 5.1 119 0 119 C-0.020625 117.741875 -0.04125 116.48375 -0.0625 115.1875 C-0.28798567 112.97324204 -0.28798567 112.97324204 -1 111 C-3.5810383 109.3702223 -3.5810383 109.3702223 -5.703125 108.7890625 C-9.71296076 107.41153389 -13.33069975 105.1538845 -17.03515625 103.109375 C-20.53402373 101.80018085 -22.43728287 101.99877992 -26 103 C-27.73026102 104.47890069 -27.73026102 104.47890069 -29 106 C-31 106 -31 106 -32.7265625 104.390625 C-33.35304688 103.68421875 -33.97953125 102.9778125 -34.625 102.25 C-35.57246094 101.20585937 -35.57246094 101.20585937 -36.5390625 100.140625 C-38 98 -38 98 -38 94 C-37.01 93.01 -37.01 93.01 -36 92 C-35.56589757 87.5142749 -36.34074987 84.56998035 -38.3125 80.5625 C-39.89083127 77.34884216 -41.24344369 74.28613362 -42.3125 70.875 C-43.64631613 67.87679772 -43.64631613 67.87679772 -45.9609375 67.35546875 C-48.44332917 66.98573101 -48.44332917 66.98573101 -52 67 C-52 62.05 -52 57.1 -52 52 C-49.36 51.67 -46.72 51.34 -44 51 C-43.67386719 50.20335937 -43.34773438 49.40671875 -43.01171875 48.5859375 C-39.2516269 39.46854664 -39.2516269 39.46854664 -37.1875 35.625 C-35.74234898 32.43045565 -35.48328477 30.46937367 -36 27 C-37.87769142 24.15079947 -37.87769142 24.15079947 -40 22 C-35.545 17.545 -35.545 17.545 -31 13 C-27 15 -27 15 -24 17 C-19.15408209 16.53311754 -15.0740611 14.31624131 -10.734375 12.24609375 C-8.45296255 11.2064215 -6.25636157 10.44028579 -3.875 9.6875 C-0.87679772 8.35368387 -0.87679772 8.35368387 -0.35546875 6.0390625 C0.01426899 3.55667083 0.01426899 3.55667083 0 0 Z " fill="#BCD8FC" transform="translate(62,21)"/>
<path d="M0 0 C0.928125 0.33 1.85625 0.66 2.8125 1 C7.10534359 2.26674073 11.20662117 2.07088017 15.64453125 1.875 C18 2 18 2 20 4 C20.226875 4.9075 20.45375 5.815 20.6875 6.75 C22.27221267 10.67405041 24.1998066 11.99826656 27.63671875 14.3125 C28.08660156 14.869375 28.53648437 15.42625 29 16 C28.81308594 16.92554687 28.62617188 17.85109375 28.43359375 18.8046875 C27.64401256 22.12955297 27.64401256 22.12955297 29.8359375 25.0703125 C30.67382812 26.07835938 31.51171875 27.08640625 32.375 28.125 C37.18805254 33.98112895 37.18805254 33.98112895 38 38 C36.06833984 38.09087891 36.06833984 38.09087891 34.09765625 38.18359375 C32.41925841 38.26798247 30.74087364 38.3526313 29.0625 38.4375 C28.21236328 38.47681641 27.36222656 38.51613281 26.48632812 38.55664062 C25.67744141 38.59853516 24.86855469 38.64042969 24.03515625 38.68359375 C23.2862915 38.72025146 22.53742676 38.75690918 21.76586914 38.79467773 C19.97538674 38.81771063 19.97538674 38.81771063 19 40 C18.7499227 42.45809998 18.7499227 42.45809998 19 45 C21.52128356 47.52128356 22.51239013 47.29353069 26.0078125 47.4140625 C26.99394531 47.45273437 27.98007813 47.49140625 28.99609375 47.53125 C30.02863281 47.5621875 31.06117188 47.593125 32.125 47.625 C33.16527344 47.66367187 34.20554687 47.70234375 35.27734375 47.7421875 C37.85138311 47.83664766 40.42541155 47.92221214 43 48 C45.94397591 54.65594553 46.64999003 60.75841435 47 68 C45.5162085 68.029729 45.5162085 68.029729 44.00244141 68.06005859 C40.33827923 68.13603456 36.67451836 68.22476352 33.01074219 68.31738281 C31.42390862 68.35570585 29.83698719 68.39055288 28.25 68.421875 C25.97103434 68.46745431 23.69267532 68.52545838 21.4140625 68.5859375 C20.70255035 68.59748871 19.99103821 68.60903992 19.25796509 68.62094116 C15.17896343 68.63408239 15.17896343 68.63408239 12 71 C12.33 72.98 12.66 74.96 13 77 C24.22 77.33 35.44 77.66 47 78 C47 84.27776072 46.86653817 87.4003855 45 93 C44.443125 94.7015625 44.443125 94.7015625 43.875 96.4375 C43.58625 97.283125 43.2975 98.12875 43 99 C42.30849854 99.02505615 41.61699707 99.0501123 40.90454102 99.07592773 C37.79032134 99.19152161 34.67643211 99.31441242 31.5625 99.4375 C30.47388672 99.47681641 29.38527344 99.51613281 28.26367188 99.55664062 C27.22919922 99.59853516 26.19472656 99.64042969 25.12890625 99.68359375 C24.17056885 99.72025146 23.21223145 99.75690918 22.22485352 99.79467773 C20.02861075 99.75834424 20.02861075 99.75834424 19 101 C18.83333333 104 18.83333333 104 19 107 C20.51421001 108.51421001 21.92472768 108.21309856 24.03515625 108.31640625 C24.84404297 108.35830078 25.65292969 108.40019531 26.48632812 108.44335938 C27.33646484 108.48267578 28.18660156 108.52199219 29.0625 108.5625 C30.34350586 108.62727539 30.34350586 108.62727539 31.65039062 108.69335938 C33.76672037 108.79976702 35.88333813 108.90041731 38 109 C34.97087632 114.57918887 31.46606882 119.59384106 27.6875 124.6875 C18.75133536 136.96849996 13.7116241 146.92280289 9 162 C-10.8 162 -30.6 162 -51 162 C-52.65 157.05 -54.3 152.1 -56 147 C-57.485 144.525 -57.485 144.525 -59 142 C-59 141.34 -59 140.68 -59 140 C-58.071875 139.5978125 -58.071875 139.5978125 -57.125 139.1875 C-54.7004767 138.04443152 -54.7004767 138.04443152 -53 135 C-53 134.030625 -53 133.06125 -53 132.0625 C-52 129 -52 129 -49.85546875 127.6875 C-42.2011143 124.45989519 -42.2011143 124.45989519 -38 126 C-37.34 126.33 -36.68 126.66 -36 127 C-30.67187085 127.73733066 -30.67187085 127.73733066 -25.90625 125.6484375 C-23.840239 123.84465097 -21.91324568 121.96452856 -20 120 C-19.40574219 119.44054687 -18.81148437 118.88109375 -18.19921875 118.3046875 C-14.41887009 114.71380739 -13.08961104 112.70260975 -12.8125 107.4375 C-12.61995935 103.93501064 -12.61995935 103.93501064 -15 102 C-14.69744613 96.85658426 -13.74743501 92.37872455 -11 88 C-8.6311629 87.14910003 -6.46066237 86.75942563 -3.9609375 86.484375 C-3.31382812 86.32453125 -2.66671875 86.1646875 -2 86 C-0.42612235 81.27836704 -0.73287281 76.50813637 -0.6875 71.5625 C-0.65849609 70.51255859 -0.62949219 69.46261719 -0.59960938 68.38085938 C-0.59123047 67.36958984 -0.58285156 66.35832031 -0.57421875 65.31640625 C-0.55963623 64.39287354 -0.54505371 63.46934082 -0.5300293 62.51782227 C-1.14558192 59.22005906 -2.40262383 58.05624391 -5 56 C-5.99 55.773125 -6.98 55.54625 -8 55.3125 C-11.48079811 53.78965083 -11.85195831 53.01219988 -13.4375 49.6875 C-14.83132387 46.10502708 -15.45806414 43.70123975 -14 40 C-13.505 39.01 -13.505 39.01 -13 38 C-12.4402711 34.50169436 -12.32075398 32.05614473 -14.28125 29.0078125 C-16.09470743 26.8893645 -18.00004758 24.94302778 -20 23 C-20.64839844 22.319375 -21.29679687 21.63875 -21.96484375 20.9375 C-25.23212336 17.72844914 -27.60242349 15.56689771 -32.3125 15.4375 C-36.07677385 15.74576529 -36.07677385 15.74576529 -39 18 C-43.54749853 17.61021441 -47.78167704 15.64443099 -52 14 C-52 12.35 -52 10.7 -52 9 C-49.83735394 8.17685803 -47.66964902 7.36700221 -45.5 6.5625 C-43.69015625 5.88380859 -43.69015625 5.88380859 -41.84375 5.19140625 C-32.3498426 2.03680417 -22.33010995 2.97651862 -12.47070312 3.21484375 C-11.29830078 3.22902344 -10.12589844 3.24320313 -8.91796875 3.2578125 C-7.85344482 3.2798877 -6.7889209 3.30196289 -5.69213867 3.32470703 C-2.95272086 3.23659026 -2.95272086 3.23659026 -1.13012695 1.48388672 C-0.57071411 0.74936279 -0.57071411 0.74936279 0 0 Z " fill="#FCE3B2" transform="translate(138,9)"/>
<path d="M0 0 C0.94875 0.04125 1.8975 0.0825 2.875 0.125 C7.03405877 7.99213527 10.38997246 16.09123675 13.625 24.375 C14.12342287 25.62771364 14.62211943 26.88031841 15.12109375 28.1328125 C15.59160156 29.33164063 16.06210938 30.53046875 16.546875 31.765625 C16.9706543 32.84360352 17.39443359 33.92158203 17.83105469 35.03222656 C18.87143625 38.11444209 19.60819214 40.88129767 19.875 44.125 C19.215 45.115 18.555 46.105 17.875 47.125 C14.9375 47.5625 14.9375 47.5625 11.875 47.125 C8.79352096 44.25603676 8.74189743 42.45948713 7.875 38.125 C2.595 38.125 -2.685 38.125 -8.125 38.125 C-8.785 40.435 -9.445 42.745 -10.125 45.125 C-12.125 47.125 -12.125 47.125 -15.125 47.4375 C-16.115 47.334375 -17.105 47.23125 -18.125 47.125 C-20.125 44.125 -20.125 44.125 -19.94311523 41.46191406 C-18.94834882 37.40447825 -17.56125612 33.61806392 -16.03515625 29.734375 C-15.73056992 28.94855042 -15.42598358 28.16272583 -15.11216736 27.35308838 C-14.47026749 25.70141212 -13.82548427 24.05085384 -13.17797852 22.40136719 C-12.1864475 19.87231545 -11.20690896 17.33884643 -10.22851562 14.8046875 C-9.60227288 13.19763966 -8.97534363 11.59085914 -8.34765625 9.984375 C-8.05488297 9.22606384 -7.76210968 8.46775269 -7.46046448 7.6864624 C-4.49614328 0.17984573 -4.49614328 0.17984573 0 0 Z " fill="#050506" transform="translate(57.125,53.875)"/>
<path d="M0 0 C15.51 0 31.02 0 47 0 C47 4.62 47 9.24 47 14 C40.60071705 20.39928295 34.72246436 19.28720686 26.17016602 19.35009766 C24.52028284 19.36664678 22.87047105 19.39392356 21.22094727 19.43212891 C18.83832742 19.48701149 16.45738628 19.5087871 14.07421875 19.5234375 C13.34071701 19.54610687 12.60721527 19.56877625 11.85148621 19.59213257 C7.85727031 19.57572708 6.19022315 19.15567013 3.05786133 16.59228516 C-1.78024607 10.49772776 0 10.57321201 0 0 Z " fill="#BBD7FA" transform="translate(93,225)"/>
<path d="M0 0 C1.93715881 -0.01418472 1.93715881 -0.01418472 3.91345215 -0.02865601 C5.32446601 -0.02328632 6.73547707 -0.01713338 8.14648438 -0.01025391 C9.59232734 -0.01227476 11.03816931 -0.01518629 12.48400879 -0.01895142 C15.51368925 -0.0233743 18.5431043 -0.01694517 21.57275391 -0.00292969 C25.45686213 0.01416255 29.34034849 0.00432112 33.2244339 -0.01364708 C36.20986621 -0.0244861 39.19515102 -0.02103811 42.18058777 -0.0132637 C43.61272759 -0.011262 45.0448808 -0.01371993 46.477005 -0.02070236 C48.47815699 -0.02831785 50.47935592 -0.01465302 52.48046875 0 C53.61947632 0.00238678 54.75848389 0.00477356 55.93200684 0.00723267 C58.74023438 0.38818359 58.74023438 0.38818359 60.60803223 1.72494507 C62.37830601 4.32552975 62.12196083 6.33437197 61.74023438 9.38818359 C60.60803223 11.0504303 60.60803223 11.0504303 58.74023438 12.38818359 C55.93200684 12.77586365 55.93200684 12.77586365 52.48046875 12.79223633 C51.18902954 12.8049205 49.89759033 12.81760468 48.5670166 12.83067322 C47.15600423 12.82862192 45.74499296 12.82563402 44.33398438 12.82177734 C42.8881404 12.82633771 41.4422986 12.83164284 39.99645996 12.83766174 C36.96678865 12.84659718 33.93738088 12.84416462 30.90771484 12.83422852 C27.02347903 12.82273158 23.14015133 12.84295789 19.25603485 12.87214565 C16.27059138 12.89048267 13.28536662 12.89022041 10.29988098 12.88450813 C8.86772893 12.88435464 7.43556231 12.89042189 6.00346375 12.90279961 C4.00235971 12.91765949 2.00110641 12.90442852 0 12.88989258 C-1.70851135 12.88964333 -1.70851135 12.88964333 -3.45153809 12.88938904 C-6.25976562 12.38818359 -6.25976562 12.38818359 -8.12756348 10.51698303 C-9.53124415 7.87774177 -9.71351032 6.33752411 -9.25976562 3.38818359 C-6.75196093 -0.21798548 -4.18796724 0.00877585 0 0 Z " fill="#EAF0F1" transform="translate(90.259765625,180.61181640625)"/>
<path d="M0 0 C1.27141846 -0.00953201 2.54283691 -0.01906403 3.8527832 -0.02888489 C5.2416995 -0.02862349 6.63061581 -0.02768656 8.01953125 -0.02612305 C9.44295375 -0.03000986 10.86637509 -0.0343445 12.28979492 -0.03910828 C15.27233644 -0.046569 18.25475958 -0.04628002 21.23730469 -0.04101562 C25.06085176 -0.03521651 28.88391513 -0.0521628 32.7073822 -0.0753603 C35.64647254 -0.0900848 38.58544597 -0.0909712 41.52456665 -0.08785057 C42.93438679 -0.08836428 44.3442134 -0.09361143 45.7539978 -0.10366249 C47.72398184 -0.1159853 49.69406356 -0.10730745 51.6640625 -0.09765625 C52.78530518 -0.09828568 53.90654785 -0.0989151 55.06176758 -0.0995636 C57.83203125 0.2746582 57.83203125 0.2746582 59.6940918 1.57527161 C61.60344119 4.42667355 61.19267947 6.96871614 60.83203125 10.2746582 C57.29170698 12.63487438 55.77028816 12.53708738 51.57226562 12.56518555 C50.28082642 12.57794525 48.98938721 12.59070496 47.65881348 12.60385132 C46.24780425 12.60690829 44.83679303 12.60913642 43.42578125 12.6105957 C41.97993842 12.61702196 40.53409691 12.62375019 39.08825684 12.63076782 C36.05864444 12.64274131 33.0291461 12.64644846 29.99951172 12.64526367 C26.11531761 12.64506019 22.23185279 12.6723912 18.34783173 12.70680809 C15.36241284 12.72902985 12.37717099 12.73310273 9.39167786 12.73204422 C7.95951314 12.73440621 6.52734399 12.74326342 5.09526062 12.75870895 C3.0942016 12.77827454 1.09292883 12.77003275 -0.90820312 12.76049805 C-2.61671448 12.7647731 -2.61671448 12.7647731 -4.35974121 12.76913452 C-7.16796875 12.2746582 -7.16796875 12.2746582 -9.0670166 10.43960571 C-10.63266814 7.36085847 -10.15631785 5.52209096 -9.16796875 2.2746582 C-5.64374041 -0.07482736 -4.17369582 0.01715048 0 0 Z " fill="#E8EEEF" transform="translate(91.16796875,202.725341796875)"/>
<path d="M0 0 C2.4375 0.3125 2.4375 0.3125 4.4375 2.3125 C4.69146729 4.17199707 4.69146729 4.17199707 4.69628906 6.45507812 C4.70259338 7.30936401 4.70889771 8.1636499 4.71539307 9.04382324 C4.7113446 9.96779907 4.70729614 10.8917749 4.703125 11.84375 C4.70503845 12.79060669 4.7069519 13.73746338 4.70892334 14.7130127 C4.71028573 16.71704372 4.70658556 18.72108354 4.69824219 20.72509766 C4.68754347 23.80000553 4.69813572 26.87432914 4.7109375 29.94921875 C4.70961591 31.89323046 4.70705354 33.83724181 4.703125 35.78125 C4.70717346 36.70522583 4.71122192 37.62920166 4.71539307 38.58117676 C4.70908875 39.43546265 4.70278442 40.28974854 4.69628906 41.16992188 C4.69390228 42.300047 4.69390228 42.300047 4.69146729 43.45300293 C4.4375 45.3125 4.4375 45.3125 2.4375 47.3125 C-0.5625 47.625 -0.5625 47.625 -3.5625 47.3125 C-5.58788151 44.27442773 -5.81509698 43.66818826 -5.8371582 40.25585938 C-5.84669022 39.44491821 -5.85622223 38.63397705 -5.86604309 37.79846191 C-5.86513168 36.92653198 -5.86422028 36.05460205 -5.86328125 35.15625 C-5.86756638 34.25757202 -5.8718515 33.35889404 -5.87626648 32.4329834 C-5.88200843 30.53329308 -5.88251103 28.63358077 -5.87817383 26.73388672 C-5.87501196 23.82351319 -5.89848096 20.91415421 -5.92382812 18.00390625 C-5.9261009 16.15885545 -5.92680472 14.31380191 -5.92578125 12.46875 C-5.934991 11.59682007 -5.94420074 10.72489014 -5.95368958 9.82653809 C-5.94746078 9.01559692 -5.94123199 8.20465576 -5.93481445 7.36914062 C-5.93544388 6.65649048 -5.9360733 5.94384033 -5.9367218 5.20959473 C-5.24564529 1.70622427 -3.43577095 0.41899646 0 0 Z " fill="#050607" transform="translate(89.5625,53.6875)"/>
<path d="M0 0 C4.91511194 1.34048507 4.91511194 1.34048507 6.4375 3.9375 C6.97270313 7.53100675 6.88564771 9.25631548 4.875 12.3125 C1.51691451 14.55122366 -0.60995604 14.51241549 -4.5625 13.9375 C-7.18791413 11.73553976 -7.5070448 10.31776421 -8 6.9375 C-7.5625 3.9375 -7.5625 3.9375 -6 1.5 C-3.5625 -0.0625 -3.5625 -0.0625 0 0 Z " fill="#B5E1D7" transform="translate(239.5625,75.0625)"/>
<path d="M0 0 C2.5 2.125 2.5 2.125 4 5 C4 8.50732933 3.6345092 10.2434698 1.375 12.9375 C-2.07517724 14.48100034 -4.39999716 13.93333407 -8 13 C-10.46324069 9.30513897 -10.38991688 7.36706908 -10 3 C-7.77944313 -1.04925076 -4.19686267 -0.58903336 0 0 Z " fill="#B5E1D7" transform="translate(241,128)"/>
<path d="M0 0 C2.5 2.125 2.5 2.125 4 5 C4 8.50732933 3.6345092 10.2434698 1.375 12.9375 C-2.07517724 14.48100034 -4.39999716 13.93333407 -8 13 C-10.46324069 9.30513897 -10.38991688 7.36706908 -10 3 C-7.77944313 -1.04925076 -4.19686267 -0.58903336 0 0 Z " fill="#B5E1D6" transform="translate(241,23)"/>
<path d="M0 0 C2 2 2 2 2.3125 4.4375 C2 7 2 7 0.875 8.875 C-1 10 -1 10 -4.125 9.8125 C-5.07375 9.544375 -6.0225 9.27625 -7 9 C-8.35439668 6.29120665 -8.06501451 3.99066732 -8 1 C-5.23749964 -0.38125018 -3.05268901 -0.19079306 0 0 Z " fill="#050504" transform="translate(156,11)"/>
<path d="M0 0 C0.66 0 1.32 0 2 0 C2.66 2.97 3.32 5.94 4 9 C1.69 9 -0.62 9 -3 9 C-2.01 6.03 -1.02 3.06 0 0 Z " fill="#A5BEDD" transform="translate(56,73)"/>
</svg>
