<svg enable-background="new 0 0 512 512" height="512" viewBox="0 0 512 512" width="512" xmlns="http://www.w3.org/2000/svg"><g id="_x32_5_x2C__Asp_x2C__fromat_x2C__type_x2C__archive_x2C__file_x2C__file_and_folder"><g><g><g><path d="m1 461v-460h300v460c-9.259 0-293.52 0-300 0z" fill="#c975f4"/><path d="m401 511h-350v-460h274.143l31.357 50 44.5 25.858z" fill="#fbf3f3"/><path d="m511 431h-400v-180h400z" fill="#c975f4"/><g fill="#ece6f2"><path d="m111 101h170v20h-170z"/><path d="m111 151h170v20h-170z"/><path d="m111 201h240v20h-240z"/><path d="m325.143 51v75.858h75.857z"/></g><path d="m233.226 291h-14.467l-31.927 96.87 18.995 6.26 7.623-23.13h25.098l7.623 23.13 18.995-6.26-29.663-90zm-13.183 60 5.957-18.075 5.957 18.075z" fill="#fff"/><path d="m285.67 321c0 16.542 13.458 30 30 30 5.514 0 10 4.486 10 10s-4.486 10-10 10h-30v20h30c16.542 0 30-13.458 30-30s-13.458-30-30-30c-5.514 0-10-4.486-10-10s4.486-10 10-10h30v-20h-30c-16.542 0-30 13.458-30 30z" fill="#fff"/><path d="m405.67 291h-40v10 50 40h20v-40h20c16.542 0 30-13.458 30-30s-13.458-30-30-30zm0 40h-20v-20h20c5.514 0 10 4.486 10 10s-4.486 10-10 10z" fill="#fff"/></g></g></g></g></svg>