<svg clip-rule="evenodd" fill-rule="evenodd" height="512" image-rendering="optimizeQuality" shape-rendering="geometricPrecision" text-rendering="geometricPrecision" viewBox="0 0 2667 2667" width="512" xmlns="http://www.w3.org/2000/svg"><g id="Layer_x0020_1"><rect fill="#ff291a" height="2667" rx="1333" width="2667"/><path d="m964 1452h-87c-264 0-399-319-214-508 43-45 100-76 164-86-14-296 316-482 562-317 48 33 88 76 116 128 142-47 292 41 322 187 245 30 351 331 174 508-54 54-129 88-211 88h-87v-257c0-84-69-153-153-153h-433c-84 0-153 69-153 153zm218 625h-224v42c0 37-30 68-68 68h-166c-37 0-68-31-68-68v-166c0-37 31-68 68-68h166c38 0 68 30 68 68v44h224v-44c0-37 31-68 68-68h43v-144h-176c-62 0-113-51-113-113v-433c0-62 51-113 113-113h433c62 0 113 51 113 113v433c0 62-51 113-113 113h-177v144h43c38 0 68 31 68 68v44h225v-44c0-37 30-68 68-68h165c38 0 68 30 68 68v166c0 37-30 68-68 68h-165c-38 0-68-31-68-68v-42h-225v42c0 37-30 68-68 68h-166c-37 0-68-31-68-68zm305-698v183c0 26 40 26 40 0v-183c0-26-40-26-40 0zm0-118v23c0 26 40 26 40 0v-23c0-26-40-26-40 0zm-70 293-119-300c-7-17-30-16-37 0l-120 300c-9 25 28 39 37 15l33-81h137l33 81c9 24 46 10 36-15zm-190-106 52-133 53 133z" fill="#fff" fill-rule="nonzero"/></g></svg>