<?xml version="1.0" standalone="no"?>
<!DOCTYPE svg PUBLIC "-//W3C//DTD SVG 20010904//EN"
 "http://www.w3.org/TR/2001/REC-SVG-20010904/DTD/svg10.dtd">
<svg version="1.0" xmlns="http://www.w3.org/2000/svg"
 width="640.000000pt" height="400.000000pt" viewBox="0 0 640.000000 400.000000"
 preserveAspectRatio="xMidYMid meet">

<g transform="translate(0.000000,400.000000) scale(0.100000,-0.100000)"
fill="#000000" stroke="none">
<path d="M3103 3665 c-12 -8 -23 -25 -25 -38 l-3 -22 -720 -5 -720 -5 -51 -23
c-86 -39 -94 -91 -18 -130 l35 -18 -1 -1017 c0 -902 1 -1021 15 -1054 21 -50
61 -91 110 -114 38 -17 78 -19 653 -19 336 0 612 -4 612 -9 0 -4 -126 -131
-280 -281 -154 -151 -283 -284 -286 -296 -13 -52 45 -91 89 -60 12 8 141 132
287 275 145 143 268 257 272 255 5 -3 8 -103 8 -223 0 -182 2 -221 15 -231 24
-20 67 -15 87 10 16 20 18 45 18 236 0 118 3 214 7 214 4 0 132 -124 283 -275
194 -194 282 -275 298 -275 28 0 62 34 62 63 0 16 -80 102 -285 306 -157 156
-285 286 -285 288 0 1 217 3 481 3 l482 0 -7 46 c-3 26 -6 53 -6 60 0 12 -191
14 -1177 14 -1129 0 -1180 1 -1219 19 -23 10 -54 36 -70 57 l-29 37 -3 911
c-1 501 0 925 3 943 3 18 21 48 39 68 l33 35 1330 0 1329 0 26 -27 c49 -53 53
-69 55 -230 1 -84 4 -157 8 -163 3 -5 14 -10 23 -10 9 0 32 -9 50 -20 18 -11
35 -20 37 -20 3 0 5 110 5 245 0 205 2 245 14 245 25 0 76 50 76 74 0 28 -22
49 -75 73 -37 17 -94 18 -762 21 -637 2 -723 5 -723 18 0 18 -44 64 -62 64 -8
0 -23 -7 -35 -15z"/>
<path d="M3816 3153 c-7 -88 -8 -153 -2 -153 12 0 209 50 213 54 9 9 -38 85
-68 110 -36 31 -102 66 -122 66 -10 0 -16 -21 -21 -77z"/>
<path d="M3645 3178 c-152 -78 -189 -258 -80 -386 49 -56 106 -82 183 -82 35
0 77 6 96 14 85 36 156 138 156 227 l0 47 -120 -26 c-66 -14 -122 -23 -124
-21 -4 4 0 50 19 207 l5 42 -48 0 c-27 -1 -64 -10 -87 -22z"/>
<path d="M2790 3102 c-41 -8 -76 -16 -78 -17 -2 -2 4 -18 14 -36 l17 -33 -115
-111 c-154 -148 -258 -219 -482 -331 -104 -52 -185 -94 -180 -94 33 0 304 88
374 121 140 67 324 193 404 278 34 36 52 39 61 11 3 -11 10 -20 14 -20 8 0 71
213 71 239 0 13 -4 13 -100 -7z"/>
<path d="M4475 2890 c-75 -18 -98 -36 -102 -75 -5 -65 -5 -127 1 -182 7 -55
12 -65 41 -88 19 -14 38 -25 43 -25 18 0 122 82 122 96 0 8 11 36 25 62 26 49
32 111 15 156 -17 45 -84 71 -145 56z"/>
<path d="M3106 2752 c-27 -31 -86 -98 -133 -148 -46 -50 -92 -101 -103 -114
-52 -60 -157 -176 -174 -192 -22 -20 -20 -21 -194 88 -47 30 -93 54 -101 54
-9 -1 -34 -8 -56 -16 -22 -8 -69 -26 -105 -39 -36 -13 -96 -36 -135 -50 -38
-14 -94 -35 -124 -45 -66 -22 -79 -39 -50 -62 30 -26 77 -22 121 8 31 22 294
124 319 124 4 0 46 -24 94 -52 47 -29 93 -58 103 -63 9 -6 46 -27 81 -48 35
-21 67 -39 71 -40 4 -1 33 27 65 63 64 73 95 106 244 268 57 61 107 112 111
112 6 0 119 -160 129 -183 2 -5 58 -90 125 -190 66 -100 123 -186 125 -192 3
-7 59 -90 76 -112 1 -3 26 28 259 320 65 81 124 147 131 147 8 0 16 -9 20 -19
11 -35 32 -45 65 -31 16 7 30 16 30 21 0 17 19 9 31 -12 9 -17 7 -30 -7 -60
-23 -52 -53 -53 -79 -1 -17 33 -19 35 -23 14 -2 -12 8 -42 22 -67 28 -47 126
-152 165 -177 l25 -15 -16 -164 c-12 -118 -13 -166 -5 -171 8 -5 7 -14 -1 -33
-8 -18 -9 -32 -2 -45 5 -10 10 -28 10 -39 0 -16 6 -21 24 -21 21 0 56 -22 56
-36 0 -5 48 -405 65 -544 7 -63 17 -144 21 -180 3 -36 13 -85 20 -110 8 -25
14 -68 14 -96 0 -65 -19 -83 -94 -91 -63 -7 -74 -25 -25 -42 45 -15 98 -14
153 5 44 15 48 15 59 -1 7 -9 19 -15 26 -13 34 8 18 -29 -34 -79 -31 -30 -55
-57 -52 -59 5 -6 61 -8 120 -6 37 2 53 8 71 27 14 15 30 23 38 20 9 -4 22 1
30 9 20 19 32 150 17 178 -8 14 -9 61 -4 147 5 94 2 150 -9 221 -17 100 -14
148 20 380 8 57 16 145 17 195 2 84 1 91 -17 91 -13 -1 -28 13 -43 39 -32 56
-29 62 12 26 50 -43 61 -40 75 22 7 28 22 70 33 92 22 44 52 143 68 220 8 42
4 76 -26 230 -51 256 -42 236 -141 290 -46 26 -93 55 -103 66 -18 19 -19 18
-61 -42 -24 -34 -56 -85 -72 -113 l-28 -51 0 40 c0 22 6 50 14 61 18 26 6 47
-25 42 -20 -2 -24 -10 -26 -46 -1 -24 -7 -51 -12 -59 -14 -26 -24 58 -13 101
12 41 13 41 -57 20 -58 -17 -65 -27 -75 -114 -10 -82 -17 -110 -25 -110 -8 0
-162 192 -171 213 -3 7 -20 29 -39 49 -28 31 -37 35 -55 27 -12 -6 -27 -23
-32 -37 -15 -38 -308 -402 -324 -402 -4 0 -105 149 -225 330 -119 182 -220
330 -224 330 -3 0 -28 -26 -55 -58z"/>
<path d="M2300 1805 l0 -355 351 0 c328 0 350 1 347 18 -2 9 -13 18 -26 20
-21 3 -22 7 -22 126 0 81 -4 126 -12 134 -16 16 -100 16 -116 0 -8 -8 -12 -53
-12 -135 0 -134 -3 -142 -55 -129 -22 6 -24 11 -27 74 l-3 67 -49 3 c-59 4
-66 -4 -66 -80 0 -53 -2 -58 -25 -64 -55 -14 -54 -16 -57 258 l-3 253 -60 0
-60 0 -3 -252 -2 -253 -35 0 -35 0 0 335 c0 291 -2 335 -15 335 -13 0 -15 -46
-15 -355z"/>
</g>
</svg>
