<?xml version="1.0" standalone="no"?>
<!DOCTYPE svg PUBLIC "-//W3C//DTD SVG 20010904//EN"
 "http://www.w3.org/TR/2001/REC-SVG-20010904/DTD/svg10.dtd">
<svg version="1.0" xmlns="http://www.w3.org/2000/svg"
 width="512.000000pt" height="512.000000pt" viewBox="0 0 512.000000 512.000000"
 preserveAspectRatio="xMidYMid meet">

<g transform="translate(0.000000,512.000000) scale(0.100000,-0.100000)"
fill="#000000" stroke="none">
<path d="M500 4791 c-69 -21 -121 -65 -156 -131 -18 -34 -19 -91 -19 -1540 l0
-1505 22 -40 c25 -47 64 -85 113 -111 33 -18 75 -19 777 -22 l741 -2 -52 -158
-53 -157 -289 -5 c-257 -4 -293 -7 -324 -24 -90 -48 -134 -119 -134 -216 0
-97 44 -168 134 -216 33 -18 80 -19 990 -22 671 -2 963 1 981 8 51 21 63 87
24 125 l-24 25 -951 0 -951 0 -24 25 c-33 32 -33 78 0 110 l24 25 949 0 c945
0 949 0 976 21 37 29 34 57 -28 248 -29 91 -57 176 -60 189 -6 19 -4 22 18 22
82 0 125 82 71 135 l-24 25 -1351 0 -1351 0 -24 25 c-24 23 -25 29 -25 160 l0
135 1215 0 1216 0 24 25 c33 32 33 78 0 110 l-24 25 -1216 0 -1215 0 0 1255 0
1256 25 24 24 25 2031 0 2031 0 24 -25 25 -24 0 -551 0 -551 25 -24 c39 -39
104 -27 125 24 7 19 10 195 8 581 -3 519 -4 557 -22 590 -26 49 -64 88 -111
113 l-40 22 -2050 2 c-1127 1 -2061 -2 -2075 -6z m2542 -3511 c26 -85 48 -156
48 -157 0 -2 -236 -3 -524 -3 l-523 0 51 160 51 160 424 -2 425 -3 48 -155z"/>
<path d="M2425 4055 c-16 -15 -25 -36 -25 -55 0 -19 9 -40 25 -55 23 -24 30
-25 142 -25 l118 0 -426 -426 -426 -426 -177 141 c-97 77 -188 144 -203 147
-16 4 -35 2 -50 -7 -12 -8 -171 -182 -353 -387 -359 -405 -359 -404 -305 -457
26 -27 58 -31 92 -12 12 6 138 143 279 302 141 160 274 309 296 333 l39 43
181 -145 c145 -116 188 -146 212 -146 27 0 85 55 493 462 l463 463 0 -118 c0
-113 1 -119 26 -144 21 -21 32 -24 62 -20 67 11 67 12 70 272 l3 235 -25 25
-25 25 -231 0 -231 0 -24 -25z"/>
<path d="M3690 3669 c-370 -66 -666 -327 -769 -677 -101 -345 2 -726 264 -970
104 -98 232 -174 355 -213 l55 -17 3 -106 c2 -84 0 -106 -11 -106 -23 0 -96
-70 -120 -114 -22 -41 -22 -45 -22 -506 0 -457 0 -466 22 -505 25 -47 64 -85
113 -111 31 -17 60 -19 260 -19 200 0 229 2 260 19 49 26 88 64 113 111 22 39
22 48 22 505 0 461 0 465 -22 506 -23 44 -97 114 -120 114 -10 0 -13 25 -13
104 l0 104 52 18 c257 85 457 262 573 506 65 138 89 244 89 403 1 93 -4 153
-18 210 -82 359 -349 633 -705 726 -88 24 -295 33 -381 18z m340 -172 c100
-28 168 -57 243 -107 368 -239 475 -722 243 -1094 -234 -376 -740 -488 -1109
-246 -262 171 -402 476 -358 780 50 339 300 603 641 676 80 17 262 12 340 -9z
m-110 -1817 l0 -80 -80 0 -80 0 0 80 0 80 80 0 80 0 0 -80z m135 -265 l25 -24
0 -431 0 -431 -25 -24 c-24 -25 -26 -25 -215 -25 -189 0 -191 0 -215 25 l-25
24 0 431 0 431 25 24 c24 25 26 25 215 25 189 0 191 0 215 -25z"/>
<path d="M4345 2775 c-19 -18 -25 -35 -25 -67 0 -239 -229 -468 -468 -468 -82
0 -122 -81 -67 -135 19 -20 34 -25 72 -25 81 0 184 28 273 72 203 102 349 332
350 551 0 59 -31 97 -80 97 -19 0 -40 -9 -55 -25z"/>
<path d="M4666 1977 c-26 -26 -26 -28 -26 -175 0 -191 -1 -193 -120 -201 -71
-6 -85 -10 -102 -31 -15 -18 -18 -34 -14 -59 9 -58 25 -66 129 -66 102 0 148
17 198 72 59 63 64 83 64 270 0 192 -2 199 -67 210 -30 4 -41 1 -62 -20z"/>
</g>
</svg>
