<svg id="Icons" height="512" viewBox="0 0 60 60" width="512" xmlns="http://www.w3.org/2000/svg"><path d="m26.129 41.47c-.17 0-.335-.087-.429-.242-.14-.233-.068-.537.164-.682l8.973-5.614-11.208 6.471c-.236.137-.538.058-.678-.175-.141-.233-.068-.537.163-.682l12.067-7.559-14.576 8.415c-.236.137-.538.059-.678-.175-.141-.233-.068-.536.162-.682l15.91-9.993-17.626 10.176c-.236.137-.537.06-.678-.174-.141-.233-.07-.536.16-.682l20.064-12.697-20.566 11.873c-.238.137-.539.058-.679-.176s-.066-.538.166-.682l14.638-9.072-14.195 8.195c-.238.137-.542.058-.681-.178s-.062-.541.172-.683l.446-.27c-.225.09-.49.006-.618-.209-.14-.236-.063-.54.171-.683l2.565-1.556-2.056 1.187c-.236.138-.538.059-.678-.174-.141-.233-.069-.536.161-.682l20.018-12.642-19.501 11.259c-.236.138-.54.058-.679-.176-.14-.235-.066-.539.167-.683l10.504-6.486-9.992 5.769c-.237.138-.538.059-.678-.174-.141-.232-.07-.535.16-.681l15.435-9.79-14.918 8.612c-.234.139-.537.06-.677-.173-.141-.232-.071-.535.158-.682l13.39-8.548-12.872 7.432c-.237.137-.538.06-.678-.175-.141-.233-.068-.536.163-.682l6.689-4.197-6.174 3.564c-.233.137-.533.06-.675-.17s-.076-.531.15-.681l11.782-7.754-11.258 6.5c-.233.137-.532.062-.675-.169-.143-.229-.077-.531.148-.681l9.363-6.217-8.837 5.102c-.232.138-.532.061-.675-.169s-.077-.53.148-.68l6.547-4.355-6.021 3.476c-.233.137-.534.061-.676-.171-.142-.23-.075-.531.152-.68l2.55-1.672-2.026 1.17c-.233.135-.531.062-.673-.167-.143-.228-.08-.528.142-.679l3.486-2.371-2.955 1.706c-.229.134-.521.063-.667-.156-.146-.221-.095-.516.116-.675l4.792-3.622-4.242 2.448c-.231.134-.525.062-.669-.16-.145-.224-.089-.521.126-.678l1.118-.809-.575.331c-.221.129-.5.069-.651-.134-.151-.204-.126-.488.059-.663l2.369-2.231-1.776 1.025c-.189.109-.427.084-.588-.064s-.207-.383-.114-.581l.837-1.78c-.2.032-.403-.061-.51-.244-.138-.239-.056-.545.183-.683l1.183-.683c.189-.108.428-.083.588.064.161.148.207.383.114.581l-.812 1.727 4.111-2.373c.221-.129.5-.068.651.134.151.204.126.488-.059.663l-2.368 2.23 5.246-3.028c.23-.135.525-.062.669.16.145.224.089.521-.126.678l-1.117.809 2.854-1.647c.229-.134.521-.063.667.156.146.221.096.516-.115.675l-4.796 3.625 7.72-4.456c.234-.136.53-.061.674.167.143.228.08.528-.143.679l-3.479 2.366 5.564-3.213c.236-.136.533-.061.676.171.142.23.074.531-.151.68l-2.55 1.672 4.37-2.523c.233-.136.531-.061.675.169.143.229.077.53-.147.68l-6.551 4.358 9.019-5.207c.234-.136.531-.061.675.169.143.229.077.531-.148.681l-9.359 6.214 12.237-7.064c.235-.137.533-.06.676.17.142.23.075.531-.151.681l-11.786 7.757 14.91-8.608c.237-.137.538-.061.679.175.141.233.068.536-.163.682l-6.69 4.198 8.755-5.055c.237-.137.536-.059.678.173.141.232.07.535-.159.682l-13.39 8.548 16.287-9.403c.237-.137.537-.06.678.174.141.232.07.535-.16.681l-15.432 9.788 18.436-10.644c.237-.139.539-.06.68.176.14.235.065.539-.167.683l-10.496 6.481 12.07-6.969c.238-.137.537-.06.678.174s.069.536-.161.682l-20.021 12.645 20.12-11.616c.237-.14.54-.059.681.178.14.236.062.54-.171.683l-2.588 1.569 2.078-1.199c.237-.14.54-.058.681.178.14.236.062.541-.172.683l-.445.27c.226-.091.488-.007.615.207.141.234.066.538-.165.682l-14.63 9.066 14.116-8.149c.237-.137.537-.06.678.174s.069.536-.16.682l-20.066 12.699 19.549-11.286c.237-.136.538-.06.679.175.141.233.068.536-.163.682l-15.919 10 15.403-8.893c.237-.137.538-.058.679.175s.067.537-.163.682l-12.062 7.556 11.547-6.666c.237-.137.538-.059.679.175s.067.537-.163.682l-8.967 5.61 8.451-4.879c.237-.137.537-.059.678.173s.07.535-.159.682l-10.355 6.594 9.837-5.679c.234-.137.535-.061.676.171.143.231.074.533-.153.681l-10.7 6.964 10.178-5.876c.237-.137.537-.059.678.174s.07.535-.16.681l-3.846 2.44 3.328-1.921c.234-.136.535-.06.676.171.143.231.074.533-.153.681l-5.541 3.604 5.019-2.896c.234-.135.53-.061.673.165.144.228.082.526-.139.679l-7.631 5.267 7.097-4.097c.234-.137.535-.06.676.171.142.23.074.532-.152.681l-.683.446.159-.092c.227-.135.521-.064.667.157s.095.517-.117.675l-5.489 4.123 4.939-2.852c.225-.133.514-.066.662.149.147.214.105.507-.097.671l-3.738 3.041 3.173-1.832c.216-.128.497-.071.65.133.151.203.128.487-.056.662l-2.182 2.08 1.587-.916c.21-.124.481-.074.637.116.155.189.15.463-.012.647l-.864.98c.138.026.264.11.339.241.139.239.057.545-.183.683l-2.048 1.183c-.21.123-.481.075-.637-.116-.155-.189-.15-.463.012-.647l.613-.695-2.567 1.481c-.217.127-.497.07-.65-.133-.151-.203-.128-.487.056-.662l2.182-2.08-4.979 2.875c-.225.132-.514.066-.662-.149-.147-.214-.105-.507.097-.671l3.738-3.04-6.688 3.86c-.229.133-.521.064-.667-.157s-.095-.517.117-.675l5.489-4.123-8.583 4.955c-.235.137-.534.061-.676-.171-.142-.23-.074-.532.152-.681l.682-.445-2.247 1.297c-.232.137-.529.062-.673-.165-.144-.228-.082-.526.139-.679l7.635-5.27-10.59 6.113c-.235.137-.534.061-.676-.171-.143-.231-.074-.533.153-.681l5.533-3.599-7.709 4.45c-.236.138-.536.06-.678-.174-.141-.232-.07-.535.16-.681l3.854-2.445-5.717 3.3c-.236.137-.534.061-.676-.171-.143-.231-.074-.533.153-.681l10.7-6.964-13.537 7.815c-.235.137-.537.059-.677-.173-.141-.232-.071-.535.159-.682l10.35-6.59-12.895 7.444c-.079.046-.165.067-.25.067z" fill="#dce4ea"/><path d="m18.422 9.499c-.163 0-.322-.079-.417-.225-.146-.221-.095-.517.117-.675l3.998-3.005-4.839 2.794c-.228.135-.518.064-.665-.153-.146-.219-.099-.513.108-.674l3.162-2.458-2.605 1.504c-.226.131-.51.065-.659-.145-.149-.212-.112-.502.085-.67l1.826-1.546-1.252.723c-.205.121-.466.076-.625-.102-.158-.178-.168-.442-.024-.633l1.157-1.531c-.227.083-.484-.005-.608-.219-.138-.239-.056-.545.183-.683l2.049-1.183c.206-.12.467-.075.625.102.158.178.168.442.024.633l-1.146 1.518 3.94-2.274c.225-.131.51-.066.659.145.149.212.112.502-.085.67l-1.827 1.547 4.092-2.361c.229-.132.519-.063.665.153.146.219.099.513-.108.674l-3.159 2.456 5.687-3.283c.23-.134.522-.063.667.157.146.221.095.517-.117.675l-3.998 3.005 6.646-3.837c.227-.133.519-.064.666.154.146.22.098.515-.111.675l-4.353 3.346 7.232-4.175c.226-.135.52-.063.666.155.146.22.097.516-.113.675l-4.206 3.201 6.984-4.031c.227-.133.518-.064.665.153.146.218.1.512-.107.674l-4.526 3.527 7.543-4.354c.228-.135.52-.063.666.155.146.22.097.516-.113.675l-4.2 3.197 6.977-4.027c.225-.131.516-.065.662.15.148.215.104.508-.099.672l-4.831 3.884 8.147-4.706c.234-.136.531-.062.674.167.143.228.08.527-.143.679l-.508.346 2.064-1.191c.227-.133.518-.064.664.153.147.218.101.512-.106.674l-4.538 3.544 7.571-4.371c.234-.136.53-.062.674.167.143.229.079.528-.144.68l-.166.112 1.288-.743c.229-.136.525-.063.671.162.144.225.087.523-.131.678l-2.3 1.638 2.891-1.669c.227-.132.518-.064.666.154.146.22.098.515-.111.675l-2.982 2.29 3.09-1.783c.225-.134.515-.065.663.151.147.216.104.509-.102.672l-1.79 1.429 1.303-.752c.217-.128.5-.069.652.136.151.205.124.49-.062.663l-1.15 1.068.569-.328c.182-.104.407-.086.57.048.16.135.221.354.151.552l-.479 1.347c.187 0 .356.083.452.25.139.239.057.545-.183.683l-.914.527c-.182.104-.407.085-.57-.048-.16-.135-.221-.354-.151-.552l.448-1.263-3.231 1.865c-.218.127-.5.07-.652-.136-.151-.205-.124-.49.062-.663l1.15-1.068-3.237 1.868c-.226.131-.516.065-.663-.151s-.104-.509.102-.672l1.792-1.43-3.907 2.255c-.227.133-.519.065-.666-.154-.146-.22-.098-.515.111-.675l2.978-2.286-5.401 3.118c-.229.133-.525.063-.671-.162-.144-.225-.087-.523.131-.678l2.307-1.642-4.302 2.482c-.232.137-.53.062-.674-.167-.143-.229-.079-.528.144-.68l.159-.108-1.657.957c-.227.134-.518.064-.664-.153-.147-.218-.101-.512.106-.674l4.538-3.544-7.576 4.374c-.232.136-.53.062-.674-.167-.143-.228-.08-.527.143-.679l.514-.35-2.073 1.196c-.227.132-.516.064-.662-.15-.148-.216-.104-.508.099-.672l4.83-3.883-8.155 4.708c-.228.134-.521.062-.666-.155-.146-.22-.097-.516.113-.675l4.202-3.199-6.983 4.031c-.228.134-.518.064-.665-.153s-.1-.512.107-.674l4.526-3.527-7.548 4.357c-.23.133-.52.063-.667-.155-.146-.22-.096-.516.114-.675l4.206-3.202-6.988 4.034c-.229.132-.52.063-.666-.154-.146-.22-.098-.515.111-.675l4.352-3.345-7.235 4.177c-.079.046-.165.067-.25.067z" fill="#125a91"/><path d="m27.115 21.896c-.164 0-.324-.08-.419-.227-.145-.223-.091-.52.124-.677l2.625-1.922-2.306 1.331c-.226.132-.514.067-.662-.149-.148-.215-.106-.507.096-.671l2.431-1.976-4.617 2.665c-.223.132-.507.068-.656-.142-.15-.209-.117-.497.077-.667l2.808-2.462-3.767 2.174c-.222.13-.5.07-.651-.135-.151-.204-.126-.489.06-.662l1.863-1.748-1.823 1.052c-.209.123-.475.074-.631-.109-.156-.184-.159-.453-.005-.641l.98-1.195c-.179.024-.36-.082-.458-.249-.138-.239-.056-.545.183-.683l2.052-1.185c.209-.123.475-.075.631.109s.159.453.005.641l-.881 1.074 3.199-1.847c.222-.13.5-.069.651.135s.126.489-.06.662l-1.864 1.748 4.41-2.545c.225-.13.508-.067.656.142.15.209.117.497-.076.667l-2.807 2.461 5.665-3.27c.225-.132.514-.066.662.149.147.215.105.507-.097.671l-2.432 1.977 4.845-2.797c.229-.133.523-.063.669.159.145.223.091.52-.124.677l-2.622 1.92 4.774-2.756c.227-.133.518-.065.664.153.147.218.101.512-.106.673l-1.976 1.545 4.106-2.371c.22-.128.502-.069.653.137.15.206.123.492-.065.664l-3.122 2.863 5.553-3.205c.227-.134.519-.064.665.154s.099.513-.109.674l-1.228.95 1.564-.903c.219-.128.501-.069.652.136s.124.49-.062.663l-1.711 1.588 1.605-.927c.209-.123.477-.076.633.111s.156.457 0 .643l-.938 1.117c.166.007.325.096.414.25.139.239.057.545-.183.683l-2.051 1.185c-.209.122-.477.076-.633-.111-.156-.186-.156-.457 0-.643l.796-.947-2.988 1.725c-.218.129-.5.07-.652-.136-.151-.205-.124-.49.062-.663l1.711-1.588-4.137 2.388c-.227.132-.519.065-.665-.154-.146-.218-.099-.513.109-.674l1.227-.948-3.08 1.777c-.218.13-.501.07-.653-.137-.15-.206-.123-.492.065-.664l3.121-2.862-6.349 3.665c-.227.134-.519.064-.664-.153-.147-.218-.101-.512.106-.673l1.979-1.547-6.574 3.795c-.079.046-.165.067-.25.067z" fill="#2aa869"/><g fill="#2473fe"><path d="m49.483 33.492c-.172 0-.341-.09-.433-.25-.139-.239-.057-.545.183-.683l4.456-2.573c.239-.14.545-.058.683.183.139.239.057.545-.183.683l-4.456 2.573c-.079.046-.165.067-.25.067z"/><path d="m47.679 35.573c-.157 0-.311-.074-.407-.21-.149-.211-.115-.5.08-.668l2.274-1.965-3.308 1.909c-.228.133-.521.063-.666-.156-.146-.22-.097-.515.113-.675l1.203-.914-1.815 1.048c-.22.131-.505.069-.657-.142-.149-.21-.115-.499.078-.668l3.31-2.887-5.468 3.156c-.218.13-.505.069-.655-.141-.15-.208-.118-.496.073-.666l3.006-2.666-6.016 3.473c-.225.133-.513.065-.661-.148s-.107-.506.094-.671l2.515-2.062-4.99 2.881c-.224.133-.514.065-.662-.148-.147-.215-.105-.507.097-.672l2.457-2.002-4.89 2.822c-.228.133-.521.063-.666-.155-.146-.22-.097-.516.113-.675l1.56-1.188-2.907 1.678c-.229.133-.517.064-.664-.151-.147-.217-.103-.51.103-.673l1.741-1.381-2.232 1.288c-.221.129-.501.069-.651-.135-.151-.204-.126-.488.059-.662l1.833-1.721-1.777 1.025c-.21.123-.475.074-.632-.109-.156-.186-.158-.455-.003-.642l.963-1.166c-.184-.028-.349-.087-.443-.25-.138-.239-.056-.545.183-.683l2.048-1.183c.208-.123.475-.075.632.109.156.186.158.455.004.642l-.851 1.029 3.123-1.803c.218-.127.499-.071.651.135.151.204.126.488-.06.662l-1.833 1.721 4.361-2.518c.225-.134.517-.065.663.151.147.217.103.51-.103.673l-1.742 1.383 3.823-2.207c.226-.134.52-.063.666.155.146.22.097.516-.113.675l-1.562 1.19 3.5-2.021c.225-.132.515-.065.662.148.147.215.105.507-.097.672l-2.456 2.001 4.888-2.821c.225-.132.513-.065.661.148s.107.506-.094.671l-2.515 2.062 4.99-2.881c.22-.129.506-.068.655.141.15.208.118.496-.073.666l-3.006 2.666 5.65-3.262c.222-.131.507-.067.657.142.149.21.115.499-.078.668l-3.309 2.886 4.207-2.429c.226-.135.52-.064.666.156s.097.515-.113.675l-1.202.913 1.029-.594c.22-.13.508-.067.657.143.149.211.115.5-.08.668l-4.894 4.229c.046.207-.044.43-.238.541l-1.213.7c-.078.046-.164.067-.25.067z"/></g><path d="m22.578 53.182c-.148 0-.294-.066-.392-.189-.154-.194-.143-.472.027-.652l1.979-2.112-1.421.82c-.22.128-.497.069-.648-.13-.152-.201-.131-.483.048-.66l1.628-1.596-1.076.621c-.224.131-.508.067-.657-.143s-.115-.499.08-.668l.531-.46c-.216.118-.487.06-.636-.137-.152-.2-.132-.482.047-.658l1.427-1.408-.872.503c-.218.129-.496.07-.649-.131-.152-.202-.13-.485.051-.66l.698-.678-.137.079c-.202.12-.459.079-.619-.095-.158-.173-.175-.432-.041-.624l.905-1.297-.296.171c-.176.101-.397.087-.557-.038-.161-.125-.229-.335-.174-.53l.212-.753c-.081-.042-.151-.107-.201-.192-.138-.239-.056-.545.183-.683l.492-.284c.175-.102.396-.089.557.038.161.125.229.335.174.53l-.122.432 1.179-.681c.204-.118.46-.078.619.095.158.173.175.432.041.624l-.906 1.297 1.683-.971c.221-.128.497-.07.649.131.152.202.13.485-.051.66l-.696.675.756-.436c.216-.129.496-.07.647.13.153.2.133.482-.046.658l-1.43 1.411 1.152-.665c.225-.13.508-.065.657.143.149.21.115.499-.08.668l-.535.464c.209-.099.466-.038.609.15.152.201.132.483-.048.66l-1.628 1.596.923-.532c.216-.126.488-.071.642.122.154.194.143.472-.027.652l-2.019 2.154c.214-.058.448.032.564.232.138.239.056.545-.183.683l-2.764 1.596c-.078.046-.165.067-.25.067z" fill="#97a7af"/><path d="m4.716 53.003c-.112 0-.223-.037-.313-.11-.161-.13-.226-.345-.163-.541l.418-1.312-1.409.813c-.215.127-.49.072-.644-.124s-.14-.476.033-.655l.11-.114-.216.124c-.212.124-.483.073-.638-.117s-.148-.466.016-.648l1.233-1.379-1.394.804c-.213.124-.483.073-.638-.117s-.149-.465.015-.648l2.086-2.34-1.917 1.106c-.213.126-.488.073-.642-.122-.154-.193-.143-.472.026-.652l2.366-2.529-1.766 1.02c-.211.124-.478.075-.633-.111-.156-.186-.156-.456 0-.643l1.487-1.775c-.228.09-.494.004-.62-.214-.138-.239-.056-.545.183-.683l2.376-1.371c.211-.123.478-.075.633.111.156.186.156.456 0 .643l-1.477 1.763 2.229-1.286c.216-.125.488-.073.642.122.154.193.143.471-.026.652l-2.366 2.529 1.695-.979c.213-.125.483-.073.638.117s.149.465-.015.648l-2.086 2.34 1.409-.812c.213-.125.483-.072.638.117.155.19.148.466-.016.648l-1.233 1.379.567-.327c.216-.126.491-.071.644.124.154.196.14.476-.033.655l-.341.354c.095.01.188.046.266.108.161.13.226.345.163.541l-.464 1.457c.15.019.289.105.371.246.138.239.056.545-.183.683l-.76.438c-.078.045-.164.067-.25.067z" fill="#97a7af"/><path d="m9.828 41.498c-.159 0-.315-.076-.412-.215-.148-.214-.107-.506.094-.671l2.607-2.145-2.837 1.638c-.215.128-.489.072-.643-.124-.154-.195-.14-.475.032-.654l2.038-2.133-1.427.823c-.17.098-.381.089-.541-.026-.159-.113-.237-.311-.2-.503l.333-1.695c-.112-.037-.212-.114-.276-.225-.138-.239-.056-.545.183-.684l.503-.29c.169-.097.38-.088.541.027.159.113.237.311.2.503l-.291 1.477 3.496-2.018c.218-.126.491-.072.643.124.154.195.14.475-.032.654l-2.038 2.133 5.062-2.922c.225-.132.513-.065.661.147.148.214.107.506-.094.671l-2.604 2.142 3.896-2.249c.217-.126.495-.07.647.129.153.199.134.48-.044.658l-2.578 2.565 1.986-1.146c.195-.115.443-.082.604.079.16.16.193.408.079.604l-.83 1.436.157-.091c.238-.14.545-.057.683.183s.056.545-.183.683l-1.776 1.025c-.195.114-.443.082-.604-.079-.16-.16-.193-.408-.079-.604l.83-1.436-3.688 2.129c-.218.128-.494.071-.647-.129-.153-.199-.134-.48.044-.658l2.577-2.564-5.825 3.363c-.079.046-.165.067-.25.067z" fill="#97a7af"/><path d="m13.164 59.428c-.164 0-.324-.08-.419-.227-.146-.223-.091-.52.123-.677l2.272-1.669-3.655 2.11c-.23.136-.526.062-.67-.161-.145-.225-.088-.522.128-.678l3.504-2.514-4.577 2.642c-.231.136-.528.062-.671-.164-.144-.226-.085-.524.134-.678l4.025-2.821-4.798 2.77c-.231.135-.525.062-.669-.161-.145-.223-.089-.521.126-.677l6.362-4.6-7.126 4.113c-.231.136-.527.062-.671-.164s-.085-.524.134-.678l4.422-3.105-4.713 2.721c-.23.136-.527.062-.671-.163-.144-.226-.085-.524.133-.679l2.81-1.979-2.831 1.634c-.23.134-.522.062-.668-.158-.146-.222-.093-.519.12-.676l2.637-1.954-2.481 1.432c-.222.13-.502.068-.653-.137s-.123-.491.064-.664l2.979-2.735-2.586 1.492c-.216.127-.493.07-.646-.127-.153-.198-.136-.479.04-.657l1.108-1.122-.507.293c-.203.118-.46.078-.618-.094-.159-.172-.177-.432-.043-.624l.503-.727c-.089-.041-.167-.11-.22-.202-.138-.239-.056-.545.183-.683l1.183-.684c.201-.118.458-.078.618.094.159.172.177.432.043.624l-.218.314 1.79-1.033c.217-.127.493-.069.646.127.153.198.136.479-.04.657l-1.109 1.122 3.305-1.907c.222-.129.502-.069.653.137.151.205.123.491-.064.664l-2.978 2.735 6.128-3.538c.229-.135.522-.062.668.158.146.222.093.519-.12.676l-2.639 1.956 4.836-2.792c.232-.135.528-.062.671.163.144.226.085.524-.133.679l-2.806 1.978 4.886-2.821c.232-.134.528-.062.671.164.144.226.085.524-.134.678l-4.425 3.108 5.817-3.358c.231-.135.524-.062.669.161s.089.521-.126.677l-6.36 4.598 6.209-3.584c.233-.135.529-.062.671.164.144.226.085.524-.134.678l-4.028 2.824 3.486-2.013c.231-.135.525-.062.67.161.145.225.088.522-.128.678l-3.502 2.512 2.762-1.594c.23-.134.523-.063.668.159.146.223.091.52-.123.677l-2.276 1.671 1.111-.641c.225-.131.508-.066.657.143.149.21.115.499-.08.668l-2.206 1.915c.128.031.243.112.314.235.138.239.056.545-.183.683l-3.592 2.074c-.224.131-.507.067-.657-.143-.149-.21-.115-.499.08-.668l1.655-1.437-4.471 2.581c-.079.046-.165.067-.25.067z" fill="#bcc7ce"/><g fill="#cad3d8"><path d="m21.149 47.47c-.173 0-.341-.09-.434-.25-.138-.239-.056-.545.183-.684l1.844-1.063c.24-.137.544-.056.683.184.138.239.056.545-.183.684l-1.844 1.063c-.079.045-.165.066-.25.066z"/><path d="m15.394 53.3c-.153 0-.303-.07-.4-.2-.152-.202-.129-.485.054-.66l1.367-1.312-3.619 2.089c-.23.134-.525.062-.669-.161-.145-.223-.089-.521.126-.677l2.542-1.838-3.547 2.048c-.229.135-.521.063-.667-.157s-.095-.517.117-.676l5.329-3.998-6.254 3.61c-.231.133-.524.062-.669-.16-.145-.224-.089-.521.125-.677l5.286-3.838-5.667 3.271c-.231.134-.525.062-.669-.16-.145-.223-.09-.52.124-.677l5.095-3.719-5.047 2.914c-.231.135-.525.062-.67-.161-.145-.225-.088-.522.128-.678l2.736-1.963-3.261 1.882c-.226.132-.511.066-.659-.146-.149-.212-.111-.502.086-.669l3.933-3.321-5.362 3.095c-.227.133-.517.063-.664-.152-.147-.218-.101-.512.105-.674l1.998-1.569-1.439.83c-.226.131-.51.065-.659-.145-.149-.212-.112-.502.085-.67l.867-.733-.292.168c-.214.126-.483.072-.638-.117-.155-.191-.148-.467.016-.649l.834-.93c-.127-.031-.243-.112-.313-.235-.138-.239-.056-.545.183-.683l2.049-1.183c.214-.126.483-.072.638.117.155.191.148.467-.016.649l-.534.595 2.397-1.384c.226-.132.51-.065.659.145.149.212.112.502-.085.67l-.869.735 2.685-1.55c.228-.133.517-.064.664.152.147.218.101.512-.105.674l-1.999 1.57 4.151-2.396c.225-.132.511-.066.659.146.149.212.111.502-.086.669l-3.932 3.321 7.165-4.136c.23-.135.526-.062.67.161.145.225.088.522-.128.678l-2.733 1.961 4.376-2.526c.23-.136.524-.063.669.16s.09.52-.124.677l-5.095 3.719 5.861-3.384c.23-.135.523-.063.669.16.145.224.089.521-.125.677l-5.287 3.839 5.165-2.981c.231-.134.522-.063.667.157.146.221.095.517-.117.676l-5.327 3.997 4.792-2.767c.231-.136.524-.062.669.161s.089.521-.126.677l-3.457 2.5c.122.021.235.087.314.191.152.203.129.486-.054.661l-1.683 1.616c.148.02.285.105.366.245.138.239.056.545-.183.683l-2.94 1.697c-.079.046-.165.067-.25.067z"/></g><path d="m14.028 49.468c-.142 0-.281-.061-.379-.174-.157-.182-.162-.449-.013-.638l.255-.32-.96.554c-.218.129-.494.071-.647-.129-.153-.199-.134-.48.044-.658l.077-.076-.028.016c-.205.119-.462.077-.621-.097-.158-.175-.173-.436-.036-.627l.594-.83c-.172 0-.34-.09-.432-.25-.138-.239-.056-.545.183-.683l1.656-.956c.203-.12.462-.077.621.097.158.175.173.436.036.627l-.5.697 1.331-.768c.22-.127.495-.07.647.129.153.199.134.48-.044.658l-.087.087c.196-.086.43-.032.574.134.157.182.162.449.013.638l-.501.63c.125.033.236.113.306.233.138.239.056.545-.183.683l-1.656.956c-.078.046-.165.067-.25.067z" fill="#03cde2"/><path d="m11.589 36.47c-.165 0-.325-.081-.42-.229-.145-.224-.089-.521.127-.677l3.732-2.695-6.121 3.533c-.23.135-.523.063-.668-.158-.146-.222-.093-.519.121-.677l6.604-4.886-8.841 5.104c-.232.134-.525.062-.669-.16-.145-.224-.089-.521.126-.677l7.365-5.342-8.177 4.721c-.234.137-.534.06-.675-.17-.142-.23-.076-.531.15-.681l1.399-.921-1.262.728c-.234.136-.534.06-.676-.171s-.075-.531.152-.68l.324-.212c-.211.062-.445-.014-.57-.206-.145-.224-.089-.521.127-.677l5.132-3.705-4.503 2.6c-.23.135-.525.062-.67-.161s-.089-.521.127-.677l2.802-2.023-1.823 1.052c-.221.129-.499.069-.651-.134-.151-.203-.127-.487.057-.662l2.831-2.684c-.229.095-.496.006-.623-.213-.138-.239-.056-.545.183-.683l3.592-2.074c.22-.129.5-.069.651.134s.127.487-.057.662l-2.819 2.673 6.66-3.845c.231-.134.525-.062.67.161.145.224.089.521-.127.677l-2.797 2.02 4.508-2.603c.231-.135.525-.062.67.161.145.224.089.521-.127.677l-5.134 3.707 6.581-3.8c.234-.138.534-.06.676.171.142.23.075.531-.152.68l-.151.1.609-.352c.234-.137.533-.06.675.17s.076.531-.15.681l-1.396.919 1.793-1.035c.23-.136.524-.062.669.16.145.224.089.521-.126.677l-7.365 5.342 8.136-4.697c.229-.134.523-.062.668.158.146.222.093.519-.121.677l-6.606 4.888 6.986-4.032c.231-.136.525-.062.67.161.145.224.089.521-.127.677l-3.73 2.694 3.649-2.106c.227-.133.515-.065.663.15.147.216.104.509-.1.673l-3.621 2.901 3.29-1.899c.221-.13.502-.068.653.137.151.206.123.492-.066.665l-2.289 2.096 1.636-.944c.218-.128.496-.069.648.13.152.2.132.482-.047.659l-.996.979c.096.041.179.112.235.209.138.239.056.545-.183.683l-2.375 1.372c-.219.127-.496.069-.648-.13-.152-.2-.132-.482.047-.659l.425-.418-2.202 1.271c-.222.129-.502.069-.653-.137s-.123-.492.066-.665l2.288-2.094-5.017 2.896c-.228.132-.516.064-.663-.15-.148-.216-.104-.509.1-.673l3.622-2.902-6.453 3.726c-.079.046-.165.067-.25.067z" fill="#125a91"/><g fill="#262626"><path d="m55.384.642c-7.709 1.061-35.106-2.438-38.696 1.948-1.073 6.143-.092 12.681-.413 18.952-2.904-.241-6.031-.19-8.542 1.489.142-.886-.099-2.084-1.212-1.354-.56.618-.124 1.709-.255 2.504-3.929 3.223-4.832 12.52 1.999 12.37v3.057c-.964.08-1.912.34-2.649.878-7.31-.449-6.969 11.223-.791 12.709 2.612 8.416 15.773 7.99 18.323-.239 4.587-1.282 6.533-8.596 2.681-11.597h25.881c3.078 0 7.957.6 8.014-3.838.052-10.204-.029-20.41 0-30.614.51-3.215-.439-6.726-4.34-6.264zm-37.621 2.765c-1.062-4.248 30.13-1.167 34.844-2.05 5.957-1.014 5.907 2.7 5.669 7.363h-40.552c.026-1.727-.229-3.599.039-5.313zm-11.85 31.168c-4.203-5.715 2.612-13.357 9.027-12.024 5.55-.009 9.705 5.967 7.941 11.148-.323 2.753-15.253 2.239-16.968.876zm11.435 1.975c.305 0 .615.007.927.015v3.006c-2.847-.016-5.695 0-8.541.004v-3.02c2.538.011 5.077-.005 7.614-.005zm-9.22 3.872h.334c5.337.799 15.807-3.152 13.83 6.096-4.765-.67-2.363 6.091-8.022 6.03-6.264.03-3.711-6.852-8.546-6.004.135-2.162-.771-6.016 2.404-6.123zm-5.809 8.988c-1.009-2.545-1.294-7.516 2.345-7.837-.861 3.157-.335 6.854-.198 10.106-.904-.54-1.664-1.303-2.147-2.269zm11.958 9.168c-5.892.078-9.284-5.783-8.553-11.161 1.06-.158 1.714.271 1.761 1.362 1.384 5.457 9.278 6.189 12.174 1.608 1.316-1.485.107-3.434 2.615-2.935.733 5.196-2.188 11.113-7.997 11.127zm11.997-12.612c.177 2.366-.614 4.968-2.871 6.091.414-3.367.702-7.235-.055-10.541 2.055.294 3.111 2.514 2.926 4.45zm31.738-6.618c-.773 1.666-2.67 1.294-4.162 1.294-10.371-.032-20.744.063-31.113-.036-.687-.74-1.864-1.093-3.014-1.029v-3.006c6.724-.091 5.947-9.265 2-12.551-.159-.653.347-2.025-.249-2.294-.797-.008-1.402.357-1.2 1.21-.793-.488-1.65-.853-2.551-1.1v-12.556h40.551c-.253 9.989.491 20.162-.262 30.067z"/><path d="m31.824 20.644c.086-.052.233-.114.351-.185 4.554-.659 14.491 2.586 15.55-3.652-.913-5.36-8.163-2.612-11.957-3.265-4.337.506-9.463-1.208-13.336 1.054-2.963 2.826.305 6.692 3.836 5.867-.124 3.793 3.902 1.379 5.556.181zm0-.167s.003 0 .005 0c-.002 0-.003 0-.005 0zm-3.675 1.121c-.568-.212-.421-1.226-.421-1.675-.656-.961-2.706.137-3.674-.71-3.712-3.547.806-5.537 4.328-4.755 4.291.995 17.064-2.599 17.885 2.663-.332 5.419-12.664-.323-18.117 4.478z"/><path d="m49.423 26.555c-5.778.009-11.558-.015-17.334.006-2.017.099-3.795 1.543-3.813 3.634 1.334 5.951 10.823 2.291 15.31 3.251 1.642 1.384 5.912 3.752 6.127.017 6.757.529 6.559-7.955-.29-6.908zm3.697 4.475c-.7 2.519-3.62.683-4.848 2.05 0 .262.137 1.263-.116 1.458-1.206-.035-2.241-1.441-3.433-1.817-.968-.439-2.417-.166-3.452-.166-3.484-.733-10.642 2.112-11.538-2.675.742-4.337 6.687-1.773 9.753-2.435 3.755.82 14.441-2.738 13.634 3.585z"/><path d="m14.497 49.492c2.495-.355 3.086-4.05.583-4.885-4.282-1.486-5.259 5.709-.583 4.885zm-1.368-3.606c1.612-1.381 3.082 1.877 1.316 2.505-.875.283-1.709-.616-1.709-1.438 0-.752.435-1.119.393-1.066z"/><path d="m21.411 5.314c.431-.008 1.146-.044 1.313-.508-.865-.614-4.012.589-1.313.508z"/><path d="m25.702 5.351c.578-.041 1.995.19 1.976-.616-.435-.38-3.448.184-1.976.616z"/><path d="m9.916 30.457c1.229-.065.905-2.072.653-2.837-.423-.207-1.158-.016-1.298.455.18.729-.525 2.466.645 2.382z"/><path d="m17.525 30.276c1.592.121 1.163-1.385 1.199-2.47-.388-.208-1.216.017-1.449.388.149.595-.334 1.868.249 2.082z"/><path d="m12.696 32.327c.857-.149 2.718.427 2.984-.584-.43-.276-4.603 0-2.984.584z"/></g></svg>