<svg id="Layer_2" viewBox="0 0 64 64" xmlns="http://www.w3.org/2000/svg" data-name="Layer 2"><circle cx="32" cy="32" fill="#f0b587" r="31"/><g><path d="m40.03 18.71c.5.46.8 1.11.8 1.8 0 1.36-1.11 2.47-2.47 2.47s-2.46-1.11-2.46-2.47c0-.7.3-1.34.8-1.8-.01-.07-.03-.14-.03-.21v-5.12c-.88-.29-1.83-.49-2.87-.62v10.42c.49.46.77 1.1.77 1.78 0 1.36-1.11 2.46-2.47 2.46s-2.46-1.11-2.46-2.46c0-.67.28-1.31.77-1.77v-10.53c-1 .06-1.85.18-2.47.29v5.55c0 .45-.18.89-.5 1.2l-2.35 2.35s0 .01 0 .02c0 1.36-1.11 2.47-2.47 2.47s-2.47-1.11-2.47-2.47 1.11-2.47 2.47-2.47h.12l1.81-1.81v-3.88c-2.79 1.16-8.25 4.51-8.25 13.02 0 .06-.03 5.71 2.3 9.6 3.2 5.35 2.57 13.06 2.37 14.84h2.72v-14.98c-.51-.48-.81-1.14-.81-1.84 0-1.39 1.13-2.52 2.51-2.52s2.52 1.13 2.52 2.52c0 .7-.3 1.36-.82 1.84v14.97h2.94v-15.41c0-.44.18-.88.5-1.2l2.82-2.82s0-.07 0-.11c0-1.39 1.13-2.52 2.52-2.52s2.51 1.13 2.51 2.52-1.13 2.52-2.51 2.52c-.04 0-.08 0-.12 0l-2.33 2.33v14.7h2.35v-5.55c0-.1.05-.2.14-.26.08-.06.19-.07.29-.04l.15.05c.66.24 1.02.37 1.71.37 4.13 0 6-1.66 6-2.84 0-.99.75-1.85 1.38-2.4.07-.06.11-.15.11-.24s-.03-.17-.1-.23l-.88-.8c-.07-.07-.11-.17-.1-.26s.07-.19.15-.24l1.55-.95c.06-.04.07-.09.07-.12s0-.07-.04-.11c-.77-.73-1.19-1.7-1.27-2.88 0-.09.03-.18.09-.24.07-.07.16-.1.24-.09.55.03 2.06-.06 2.46-.9.36-.72-1.39-4.2-2.75-6.44-.03-.05-.05-.11-.05-.17v-.66c.06-2.72.12-5.81-2.61-9.19-.65-.8-1.4-1.5-2.23-2.09v3.43c0 .07-.02.14-.03.21z" fill="#96e677"/><path d="m24.73 13.15c-2.73 1.02-9.09 4.42-9.09 13.78 0 .24-.04 5.88 2.39 9.93 3.44 5.75 2.25 14.7 2.24 14.79s.01.18.08.25c.06.07.15.11.24.11h15.48c.18 0 .32-.14.32-.32v-5.41c.53.19.96.31 1.65.31 4.31 0 6.63-1.79 6.63-3.47 0-.79.73-1.55 1.16-1.92.2-.18.32-.44.32-.72 0-.27-.11-.52-.31-.7l-.57-.52 1.2-.74c.21-.13.34-.35.37-.6.02-.24-.07-.47-.24-.63-.58-.55-.92-1.25-1.04-2.12.7-.02 2.18-.19 2.7-1.25.62-1.26-2.06-5.86-2.73-6.97v-.57c.06-2.69.12-6.04-2.75-9.6-.82-1.02-1.79-1.88-2.87-2.57-.22-.14-.45-.27-.67-.4-.69-.38-1.41-.7-2.16-.95-1.09-.37-2.25-.62-3.57-.76-.84-.08-1.71-.1-2.66-.07-.05 0-.1 0-.15 0-1.33.06-2.45.23-3.15.36-.74.14-1.18.27-1.18.27s-.08.02-.19.04c-.26.06-.77.2-1.45.46zm1.79.11s.28-.08.77-.19v5.43c0 .28-.11.56-.31.75l-2.03 2.03s-.03-.06-.04-.09c-.04-.11-.09-.21-.14-.31-.03-.05-.05-.1-.08-.15-.07-.12-.16-.23-.25-.33-.05-.06-.11-.11-.17-.17-.07-.07-.15-.13-.23-.19-.07-.05-.15-.09-.23-.14-.06-.04-.13-.07-.19-.1-.05-.02-.09-.05-.14-.07l1.6-1.6c.06-.06.09-.14.09-.22v-4.26c.8-.29 1.32-.4 1.36-.4zm15.77 3.9c2.73 3.38 2.67 6.46 2.62 9.19v.66c-.01.06 0 .12.04.17 1.35 2.24 3.1 5.72 2.75 6.44-.41.83-1.92.92-2.46.9-.08 0-.18.03-.24.09s-.1.15-.09.24c.08 1.18.5 2.15 1.27 2.88.04.04.04.09.04.11s-.01.08-.07.12l-1.55.95c-.08.05-.14.14-.15.24s.03.2.1.26l.88.8c.06.06.1.14.1.23s-.04.18-.11.24c-.63.55-1.38 1.41-1.38 2.4 0 1.18-1.86 2.84-6 2.84-.69 0-1.05-.13-1.71-.37l-.15-.05c-.1-.03-.21-.02-.29.04s-.14.16-.14.26v5.55h-2.35v-14.7l2.33-2.33s.08 0 .12 0c1.38 0 2.51-1.13 2.51-2.52s-1.13-2.52-2.51-2.52-2.52 1.13-2.52 2.52v.11l-2.82 2.82c-.32.32-.5.76-.5 1.2v15.41h-2.94v-14.97c.52-.48.82-1.14.82-1.84 0-1.39-1.13-2.52-2.52-2.52s-2.51 1.13-2.51 2.52c0 .7.3 1.35.81 1.84v14.98h-2.72c.2-1.77.83-9.49-2.37-14.84-2.33-3.89-2.3-9.54-2.3-9.6 0-8.51 5.46-11.86 8.25-13.02v3.88l-1.81 1.81s-.08 0-.12 0c-1.36 0-2.47 1.11-2.47 2.47s1.11 2.47 2.47 2.47 2.47-1.11 2.47-2.47c0 0 0-.01 0-.02l2.35-2.35c.32-.31.5-.75.5-1.2v-5.55c.62-.11 1.48-.23 2.47-.29v10.53c-.48.47-.77 1.1-.77 1.77 0 1.36 1.11 2.46 2.46 2.46s2.47-1.11 2.47-2.46c0-.68-.29-1.32-.77-1.78v-10.42c1.04.13 1.99.33 2.87.62v5.12c0 .07.02.14.03.21-.5.47-.8 1.11-.8 1.8 0 1.36 1.11 2.47 2.46 2.47s2.47-1.11 2.47-2.47c0-.69-.3-1.34-.8-1.8.01-.07.03-.14.03-.21v-3.43c.83.59 1.58 1.29 2.23 2.09zm-11.65 34.2v-15.41c0-.28.12-.55.32-.75l2.52-2.52s.03.06.04.09c.04.1.09.2.15.3l.09.15c.07.1.15.19.23.28.07.07.13.14.21.2.07.06.14.13.22.18.07.05.15.09.23.14.06.03.12.07.19.09.05.02.09.05.14.07l-2.12 2.12c-.06.06-.09.14-.09.22v14.83h-2.13zm5.21-17.66h-.11s-.07 0-.09 0c0 0-.01 0-.02 0-.87-.1-1.58-.81-1.67-1.64 0-.04 0-.09 0-.13v-.1c0-1.04.84-1.88 1.88-1.88s1.88.85 1.88 1.88-.84 1.88-1.88 1.88zm-9.42 3.13v14.53h-2.13v-14.54s.05.02.08.03c.12.05.25.09.38.13.03 0 .06.02.09.02.17.04.34.06.51.06s.35-.02.51-.06c.03 0 .07-.02.1-.03.12-.03.25-.07.36-.12.03-.01.06-.02.08-.03zm.12-.81c-.65.53-1.69.53-2.36 0-.45-.37-.7-.89-.7-1.47 0-1.04.84-1.88 1.88-1.88s1.88.85 1.88 1.88c0 .58-.25 1.1-.7 1.47zm-2.11-14.04s0 .06 0 .09c0 1.01-.82 1.84-1.84 1.84s-1.84-.82-1.84-1.84.82-1.84 1.84-1.84h.21c.89.11 1.57.83 1.63 1.75zm8.72-9.29v10.04c-.05-.02-.11-.04-.17-.06-.04-.02-.09-.03-.13-.04-.5-.16-1.04-.16-1.54 0-.04.01-.09.03-.13.05-.05.02-.11.03-.16.05v-10.09c.75-.02 1.45 0 2.13.05zm-2.24 10.86c.32-.28.74-.43 1.18-.43s.85.15 1.18.42c.42.35.66.86.66 1.41 0 1.01-.82 1.83-1.84 1.83s-1.83-.82-1.83-1.83c0-.54.24-1.05.65-1.41zm8.5-8.92v3.65c-.06-.03-.12-.04-.18-.06-.05-.02-.09-.03-.14-.05-.24-.08-.49-.13-.74-.13s-.51.05-.75.13c-.05.02-.1.03-.15.05s-.11.03-.16.06v-4.69c.74.28 1.46.63 2.13 1.04zm-2.2 4.44c.32-.26.72-.4 1.13-.4s.81.14 1.14.4c.44.34.7.88.7 1.44 0 1.01-.82 1.84-1.84 1.84s-1.83-.82-1.83-1.84c0-.57.25-1.09.69-1.44z"/><path d="m25.88 37c-.17.03-.34.06-.51.06s-.34-.02-.51-.06c-.03 0-.06-.02-.09-.02-.13-.03-.26-.07-.38-.13-.03-.01-.05-.01-.08-.03v14.54h2.13v-14.53s-.06.02-.08.03c-.12.05-.24.09-.36.12-.03 0-.07.02-.1.03z" fill="#293365"/><path d="m32.86 36.31 2.12-2.12s-.09-.05-.14-.07c-.06-.03-.13-.06-.19-.09-.08-.04-.16-.09-.23-.14-.08-.05-.15-.12-.22-.18s-.14-.13-.21-.2c-.08-.09-.16-.18-.23-.28-.03-.05-.06-.1-.09-.15-.06-.1-.11-.2-.15-.3-.01-.03-.03-.06-.04-.09l-2.52 2.52c-.2.2-.32.48-.32.75v15.41h2.13v-14.83c0-.08.03-.16.09-.22z" fill="#293365"/><path d="m25.37 32.67c-1.03 0-1.88.85-1.88 1.88 0 .58.25 1.1.7 1.47.67.53 1.71.52 2.36 0 .45-.37.7-.89.7-1.47 0-1.04-.85-1.88-1.88-1.88z" fill="#fb5c82"/><path d="m37.72 31.82c0-1.04-.84-1.88-1.88-1.88s-1.88.85-1.88 1.88v.1s0 .09 0 .13c.09.84.79 1.54 1.67 1.64h.02.09.11c1.03 0 1.88-.84 1.88-1.88z" fill="#fb5c82"/><g fill="#293365"><path d="m31.03 12.64v10.09c.05-.02.11-.03.16-.05.04-.02.09-.03.13-.05.5-.16 1.04-.16 1.54 0 .04.01.09.03.13.04.05.02.11.03.17.06v-10.04c-.67-.05-1.38-.07-2.13-.05z"/><path d="m37.3 18.28c.05-.02.11-.04.16-.06s.1-.04.15-.05c.24-.08.49-.13.75-.13s.5.05.74.13c.05.01.09.03.14.05.06.02.12.04.18.06v-3.65c-.67-.41-1.38-.76-2.13-1.04v4.69z"/><path d="m25.16 17.93c0 .08-.03.16-.09.22l-1.6 1.6c.05.02.09.05.14.07.07.03.13.06.19.1.08.04.15.09.23.14.08.06.15.12.23.19.06.05.12.11.17.17.09.1.18.21.25.33.03.05.05.1.08.15.06.1.1.2.14.31.01.03.03.06.04.09l2.03-2.03c.2-.2.31-.47.31-.75v-5.43c-.49.1-.77.18-.77.19-.03 0-.56.11-1.36.4v4.26z"/></g><path d="m20.77 22.07c0 1.01.82 1.84 1.84 1.84s1.84-.82 1.84-1.84c0-.03 0-.06 0-.09-.06-.92-.74-1.64-1.63-1.74h-.21c-1.01 0-1.84.82-1.84 1.83z" fill="#fb5c82"/><path d="m32.1 26.79c1.01 0 1.84-.82 1.84-1.83 0-.55-.24-1.06-.66-1.41-.33-.27-.75-.42-1.18-.42s-.85.15-1.18.43c-.42.35-.65.87-.65 1.41 0 1.01.82 1.83 1.83 1.83z" fill="#fb5c82"/><path d="m38.36 22.35c1.01 0 1.84-.82 1.84-1.84 0-.56-.26-1.1-.7-1.44-.33-.26-.73-.4-1.14-.4s-.82.14-1.13.4c-.44.35-.69.88-.69 1.44 0 1.01.82 1.84 1.83 1.84z" fill="#fb5c82"/></g></svg>