<?xml version="1.0" encoding="UTF-8"?>
<svg version="1.1" xmlns="http://www.w3.org/2000/svg" width="225" height="225">
<path d="M0 0 C74.25 0 148.5 0 225 0 C225 74.25 225 148.5 225 225 C150.75 225 76.5 225 0 225 C0 150.75 0 76.5 0 0 Z " fill="#FCFDFE" transform="translate(0,0)"/>
<path d="M0 0 C74.25 0 148.5 0 225 0 C225 74.25 225 148.5 225 225 C150.75 225 76.5 225 0 225 C0 150.75 0 76.5 0 0 Z M93.04394531 11.24682617 C91.72069351 13.46905985 91.65509516 14.86972606 91.70703125 17.44921875 C91.71669922 18.29677734 91.72636719 19.14433594 91.73632812 20.01757812 C91.76146484 20.89865234 91.78660156 21.77972656 91.8125 22.6875 C91.82603516 23.58017578 91.83957031 24.47285156 91.85351562 25.39257812 C91.88885921 27.59566166 91.93819507 29.79752582 92 32 C91.43224854 32.10812012 90.86449707 32.21624023 90.27954102 32.32763672 C85.09634884 33.38516596 80.6967288 34.82053132 75.9375 37.125 C74.81214844 37.66382812 73.68679687 38.20265625 72.52734375 38.7578125 C71.69332031 39.16773437 70.85929687 39.57765625 70 40 C69.28714844 39.21753906 68.57429688 38.43507813 67.83984375 37.62890625 C66.87322852 36.60598334 65.90573344 35.58389135 64.9375 34.5625 C64.47150391 34.04623047 64.00550781 33.52996094 63.52539062 32.99804688 C60.88017939 30.24486783 59.05267966 29.01447986 55.34765625 27.99609375 C51.78814818 28.0002472 50.94122515 28.05877485 48.5 30.5 C47.84902344 31.139375 47.19804688 31.77875 46.52734375 32.4375 C45.69332031 33.283125 44.85929687 34.12875 44 35 C42.73316661 36.19037768 41.46337012 37.37760601 40.19140625 38.5625 C38.81364522 39.87346843 37.43735825 41.18598764 36.0625 42.5 C35.04929687 43.44262695 35.04929687 43.44262695 34.015625 44.40429688 C30.86051856 47.49193159 29.17762223 49.41952324 27.86328125 53.71484375 C28.01929325 57.46358933 28.49741163 58.47339096 31.125 61.0625 C31.76824219 61.72378906 32.41148438 62.38507812 33.07421875 63.06640625 C33.70972656 63.70449219 34.34523438 64.34257813 35 65 C35.99304604 66.15487577 36.97421606 67.32018538 37.9375 68.5 C38.618125 69.325 39.29875 70.15 40 71 C39.59007813 71.76183594 39.18015625 72.52367187 38.7578125 73.30859375 C38.21898438 74.34113281 37.68015625 75.37367187 37.125 76.4375 C36.32449219 77.95150391 36.32449219 77.95150391 35.5078125 79.49609375 C33.7414186 83.6009003 32.82484253 87.6244009 32 92 C31.44014404 91.98428955 30.88028809 91.9685791 30.3034668 91.95239258 C27.7649141 91.89000152 25.22652271 91.85099782 22.6875 91.8125 C21.80642578 91.78736328 20.92535156 91.76222656 20.01757812 91.73632812 C19.17001953 91.72666016 18.32246094 91.71699219 17.44921875 91.70703125 C16.66893311 91.6913208 15.88864746 91.67561035 15.0847168 91.65942383 C12.96939582 91.87652499 12.96939582 91.87652499 11.24682617 93.02807617 C9.29751249 96.11102244 9.57258303 99.30911986 9.6015625 102.84375 C9.59869232 103.60925171 9.59582214 104.37475342 9.59286499 105.16345215 C9.590825 106.78068787 9.59635037 108.3979483 9.60888672 110.01513672 C9.62494242 112.49112091 9.60903703 114.96547285 9.58984375 117.44140625 C9.59182619 119.01302444 9.5956699 120.58464161 9.6015625 122.15625 C9.59548981 122.89693726 9.58941711 123.63762451 9.5831604 124.40075684 C9.62300438 127.31144617 9.66753399 129.47418681 11.24682617 131.97192383 C13.46837921 133.27466158 14.88002394 133.3446975 17.44921875 133.29296875 C18.29677734 133.28330078 19.14433594 133.27363281 20.01757812 133.26367188 C20.89865234 133.23853516 21.77972656 133.21339844 22.6875 133.1875 C23.58017578 133.17396484 24.47285156 133.16042969 25.39257812 133.14648438 C27.59566166 133.11114079 29.79752582 133.06180493 32 133 C32.15855469 133.66644531 32.31710938 134.33289063 32.48046875 135.01953125 C34.26873946 142.08369456 36.79978 148.46042 40 155 C39.21753906 155.71285156 38.43507813 156.42570313 37.62890625 157.16015625 C36.60598334 158.12677148 35.58389135 159.09426656 34.5625 160.0625 C33.7880957 160.76149414 33.7880957 160.76149414 32.99804688 161.47460938 C30.24486783 164.11982061 29.01447986 165.94732034 27.99609375 169.65234375 C28.0002472 173.21185182 28.05877485 174.05877485 30.5 176.5 C31.4590625 177.47646484 31.4590625 177.47646484 32.4375 178.47265625 C33.283125 179.30667969 34.12875 180.14070312 35 181 C36.19037768 182.26683339 37.37760601 183.53662988 38.5625 184.80859375 C39.87346843 186.18635478 41.18598764 187.56264175 42.5 188.9375 C43.12841797 189.61296875 43.75683594 190.2884375 44.40429688 190.984375 C47.49193159 194.13948144 49.41952324 195.82237777 53.71484375 197.13671875 C57.46358933 196.98070675 58.47339096 196.50258837 61.0625 193.875 C61.72378906 193.23175781 62.38507812 192.58851563 63.06640625 191.92578125 C63.70449219 191.29027344 64.34257813 190.65476563 65 190 C66.15487577 189.00695396 67.32018538 188.02578394 68.5 187.0625 C69.325 186.381875 70.15 185.70125 71 185 C71.76183594 185.40992188 72.52367187 185.81984375 73.30859375 186.2421875 C74.34113281 186.78101563 75.37367187 187.31984375 76.4375 187.875 C77.44683594 188.40867188 78.45617187 188.94234375 79.49609375 189.4921875 C83.6009003 191.2585814 87.6244009 192.17515747 92 193 C91.98428955 193.55985596 91.9685791 194.11971191 91.95239258 194.6965332 C91.89000152 197.2350859 91.85099782 199.77347729 91.8125 202.3125 C91.78736328 203.19357422 91.76222656 204.07464844 91.73632812 204.98242188 C91.72666016 205.82998047 91.71699219 206.67753906 91.70703125 207.55078125 C91.6913208 208.33106689 91.67561035 209.11135254 91.65942383 209.9152832 C91.87652499 212.03060418 91.87652499 212.03060418 93.02807617 213.75317383 C96.11102244 215.70248751 99.30911986 215.42741697 102.84375 215.3984375 C103.60925171 215.40130768 104.37475342 215.40417786 105.16345215 215.40713501 C106.78068787 215.409175 108.3979483 215.40364963 110.01513672 215.39111328 C112.49112091 215.37505758 114.96547285 215.39096297 117.44140625 215.41015625 C119.01302444 215.40817381 120.58464161 215.4043301 122.15625 215.3984375 C123.26728088 215.40754654 123.26728088 215.40754654 124.40075684 215.4168396 C127.31144617 215.37699562 129.47418681 215.33246601 131.97192383 213.75317383 C133.27466158 211.53162079 133.3446975 210.11997606 133.29296875 207.55078125 C133.28330078 206.70322266 133.27363281 205.85566406 133.26367188 204.98242188 C133.23853516 204.10134766 133.21339844 203.22027344 133.1875 202.3125 C133.17396484 201.41982422 133.16042969 200.52714844 133.14648438 199.60742188 C133.11114079 197.40433834 133.06180493 195.20247418 133 193 C133.66644531 192.84144531 134.33289063 192.68289062 135.01953125 192.51953125 C142.08369456 190.73126054 148.46042 188.20022 155 185 C156.06927734 186.17369141 156.06927734 186.17369141 157.16015625 187.37109375 C158.12677148 188.39401666 159.09426656 189.41610865 160.0625 190.4375 C160.76149414 191.2119043 160.76149414 191.2119043 161.47460938 192.00195312 C164.11982061 194.75513217 165.94732034 195.98552014 169.65234375 197.00390625 C173.21185182 196.9997528 174.05877485 196.94122515 176.5 194.5 C177.47646484 193.5409375 177.47646484 193.5409375 178.47265625 192.5625 C179.30667969 191.716875 180.14070312 190.87125 181 190 C182.26683339 188.80962232 183.53662988 187.62239399 184.80859375 186.4375 C186.18635478 185.12653157 187.56264175 183.81401236 188.9375 182.5 C189.61296875 181.87158203 190.2884375 181.24316406 190.984375 180.59570312 C194.13948144 177.50806841 195.82237777 175.58047676 197.13671875 171.28515625 C196.98070675 167.53641067 196.50258837 166.52660904 193.875 163.9375 C192.91013672 162.94556641 192.91013672 162.94556641 191.92578125 161.93359375 C191.29027344 161.29550781 190.65476563 160.65742188 190 160 C189.00695396 158.84512423 188.02578394 157.67981462 187.0625 156.5 C186.0415625 155.2625 186.0415625 155.2625 185 154 C185.40992188 153.154375 185.81984375 152.30875 186.2421875 151.4375 C186.78101563 150.303125 187.31984375 149.16875 187.875 148 C188.40867188 146.88625 188.94234375 145.7725 189.4921875 144.625 C191.10456066 140.74862099 192.07673823 137.08745019 193 133 C193.55985596 133.01571045 194.11971191 133.0314209 194.6965332 133.04760742 C197.2350859 133.10999848 199.77347729 133.14900218 202.3125 133.1875 C203.19357422 133.21263672 204.07464844 133.23777344 204.98242188 133.26367188 C205.82998047 133.27333984 206.67753906 133.28300781 207.55078125 133.29296875 C208.33106689 133.3086792 209.11135254 133.32438965 209.9152832 133.34057617 C212.03060418 133.12347501 212.03060418 133.12347501 213.75317383 131.97192383 C215.70248751 128.88897756 215.42741697 125.69088014 215.3984375 122.15625 C215.40130768 121.39074829 215.40417786 120.62524658 215.40713501 119.83654785 C215.409175 118.21931213 215.40364963 116.6020517 215.39111328 114.98486328 C215.37505758 112.50887909 215.39096297 110.03452715 215.41015625 107.55859375 C215.40817381 105.98697556 215.4043301 104.41535839 215.3984375 102.84375 C215.40754654 101.73271912 215.40754654 101.73271912 215.4168396 100.59924316 C215.37699562 97.68855383 215.33246601 95.52581319 213.75317383 93.02807617 C211.53162079 91.72533842 210.11997606 91.6553025 207.55078125 91.70703125 C206.70322266 91.71669922 205.85566406 91.72636719 204.98242188 91.73632812 C204.10134766 91.76146484 203.22027344 91.78660156 202.3125 91.8125 C201.41982422 91.82603516 200.52714844 91.83957031 199.60742188 91.85351562 C197.40433834 91.88885921 195.20247418 91.93819507 193 92 C192.83781982 91.1483728 192.83781982 91.1483728 192.67236328 90.27954102 C191.61483404 85.09634884 190.17946868 80.6967288 187.875 75.9375 C187.33617187 74.81214844 186.79734375 73.68679687 186.2421875 72.52734375 C185.83226562 71.69332031 185.42234375 70.85929687 185 70 C185.78246094 69.28714844 186.56492188 68.57429688 187.37109375 67.83984375 C188.39401666 66.87322852 189.41610865 65.90573344 190.4375 64.9375 C191.2119043 64.23850586 191.2119043 64.23850586 192.00195312 63.52539062 C194.75513217 60.88017939 195.98552014 59.05267966 197.00390625 55.34765625 C196.9997528 51.78814818 196.94122515 50.94122515 194.5 48.5 C193.860625 47.84902344 193.22125 47.19804688 192.5625 46.52734375 C191.716875 45.69332031 190.87125 44.85929687 190 44 C188.80962232 42.73316661 187.62239399 41.46337012 186.4375 40.19140625 C185.12653157 38.81364522 183.81401236 37.43735825 182.5 36.0625 C181.87158203 35.38703125 181.24316406 34.7115625 180.59570312 34.015625 C177.50806841 30.86051856 175.58047676 29.17762223 171.28515625 27.86328125 C167.53641067 28.01929325 166.52660904 28.49741163 163.9375 31.125 C162.94556641 32.08986328 162.94556641 32.08986328 161.93359375 33.07421875 C160.97646484 34.02748047 160.97646484 34.02748047 160 35 C158.84512423 35.99304604 157.67981462 36.97421606 156.5 37.9375 C155.675 38.618125 154.85 39.29875 154 40 C153.40574219 39.67386719 152.81148437 39.34773438 152.19921875 39.01171875 C145.95439009 35.71934408 139.86674054 33.6057207 133 32 C133.02094727 31.44014404 133.04189453 30.88028809 133.06347656 30.3034668 C133.14666202 27.76499414 133.19866381 25.226808 133.25 22.6875 C133.28351563 21.80642578 133.31703125 20.92535156 133.3515625 20.01757812 C133.36445313 19.17001953 133.37734375 18.32246094 133.390625 17.44921875 C133.41157227 16.66893311 133.43251953 15.88864746 133.45410156 15.0847168 C133.15201429 12.88683895 133.15201429 12.88683895 131.45825195 11.24682617 C128.08899852 9.53793976 124.97046817 9.57013653 121.27734375 9.6015625 C120.53545303 9.59869232 119.79356232 9.59582214 119.02919006 9.59286499 C117.46500889 9.5908282 115.90080203 9.59633117 114.33666992 9.60888672 C111.94196772 9.62496999 109.54894729 9.60901472 107.15429688 9.58984375 C105.63280878 9.59182581 104.11132172 9.59566871 102.58984375 9.6015625 C101.51632912 9.59245346 101.51632912 9.59245346 100.42112732 9.5831604 C97.56604662 9.62360424 95.48642519 9.6899434 93.04394531 11.24682617 Z " fill="#FDFEFE" transform="translate(0,0)"/>
<path d="M0 0 C0.74093399 -0.00287018 1.48186798 -0.00574036 2.24525452 -0.00869751 C3.81121587 -0.0107375 5.37720274 -0.00521208 6.94311523 0.00732422 C9.33570637 0.02335742 11.72660255 0.00748656 14.11914062 -0.01171875 C15.6419308 -0.00973586 17.16471993 -0.00589123 18.6875 0 C19.40115219 -0.00607269 20.11480438 -0.01214539 20.8500824 -0.0184021 C23.89611462 0.02454389 26.13398357 0.25836263 28.8684082 1.64526367 C30.81721345 3.861316 30.87921583 4.92596798 30.80078125 7.84765625 C30.78789062 8.69521484 30.775 9.54277344 30.76171875 10.41601562 C30.72820312 11.29708984 30.6946875 12.17816406 30.66015625 13.0859375 C30.64210938 13.97861328 30.6240625 14.87128906 30.60546875 15.79101562 C30.55833384 17.99457254 30.49256282 20.19596351 30.41015625 22.3984375 C31.07660156 22.55699219 31.74304688 22.71554688 32.4296875 22.87890625 C39.49385081 24.66717696 45.87057625 27.1982175 52.41015625 30.3984375 C53.12300781 29.61597656 53.83585938 28.83351563 54.5703125 28.02734375 C55.53692773 27.00442084 56.50442281 25.98232885 57.47265625 24.9609375 C57.93865234 24.44466797 58.40464844 23.92839844 58.88476562 23.39648438 C61.52997686 20.64330533 63.35747659 19.41291736 67.0625 18.39453125 C70.62200807 18.3986847 71.4689311 18.45721235 73.91015625 20.8984375 C74.88662109 21.8575 74.88662109 21.8575 75.8828125 22.8359375 C76.71683594 23.6815625 77.55085937 24.5271875 78.41015625 25.3984375 C79.67698964 26.58881518 80.94678613 27.77604351 82.21875 28.9609375 C83.59651103 30.27190593 84.972798 31.58442514 86.34765625 32.8984375 C87.36085937 33.84106445 87.36085937 33.84106445 88.39453125 34.80273438 C91.54963769 37.89036909 93.23253402 39.81796074 94.546875 44.11328125 C94.390863 47.86202683 93.91274462 48.87182846 91.28515625 51.4609375 C90.64191406 52.12222656 89.99867188 52.78351562 89.3359375 53.46484375 C88.70042969 54.10292969 88.06492188 54.74101563 87.41015625 55.3984375 C86.41711021 56.55331327 85.43594019 57.71862288 84.47265625 58.8984375 C83.79203125 59.7234375 83.11140625 60.5484375 82.41015625 61.3984375 C82.82007813 62.16027344 83.23 62.92210937 83.65234375 63.70703125 C84.19117188 64.73957031 84.73 65.77210937 85.28515625 66.8359375 C85.81882813 67.84527344 86.3525 68.85460937 86.90234375 69.89453125 C88.66873765 73.9993378 89.58531372 78.0228384 90.41015625 82.3984375 C90.97001221 82.38272705 91.52986816 82.3670166 92.10668945 82.35083008 C94.64524215 82.28843902 97.18363354 82.24943532 99.72265625 82.2109375 C100.60373047 82.18580078 101.48480469 82.16066406 102.39257812 82.13476562 C103.24013672 82.12509766 104.08769531 82.11542969 104.9609375 82.10546875 C105.74122314 82.0897583 106.52150879 82.07404785 107.32543945 82.05786133 C109.41015625 82.3984375 109.41015625 82.3984375 111.16333008 83.42651367 C113.11264376 86.50945994 112.83757322 89.70755736 112.80859375 93.2421875 C112.81289902 94.39044006 112.81289902 94.39044006 112.81729126 95.56188965 C112.81933125 97.17912537 112.81380588 98.7963858 112.80126953 100.41357422 C112.78521383 102.88955841 112.80111922 105.36391035 112.8203125 107.83984375 C112.81833006 109.41146194 112.81448635 110.98307911 112.80859375 112.5546875 C112.81466644 113.29537476 112.82073914 114.03606201 112.82699585 114.79919434 C112.78715187 117.70988367 112.74262226 119.87262431 111.16333008 122.37036133 C108.94177704 123.67309908 107.53013231 123.743135 104.9609375 123.69140625 C104.11337891 123.68173828 103.26582031 123.67207031 102.39257812 123.66210938 C101.51150391 123.63697266 100.63042969 123.61183594 99.72265625 123.5859375 C98.82998047 123.57240234 97.93730469 123.55886719 97.01757812 123.54492188 C94.81449459 123.50957829 92.61263043 123.46024243 90.41015625 123.3984375 C90.25160156 124.06488281 90.09304687 124.73132813 89.9296875 125.41796875 C88.14141679 132.48213206 85.61037625 138.8588575 82.41015625 145.3984375 C83.19261719 146.11128906 83.97507813 146.82414063 84.78125 147.55859375 C85.80417291 148.52520898 86.8262649 149.49270406 87.84765625 150.4609375 C88.36392578 150.92693359 88.88019531 151.39292969 89.41210938 151.87304688 C92.16528842 154.51825811 93.39567639 156.34575784 94.4140625 160.05078125 C94.40990905 163.61028932 94.3513814 164.45721235 91.91015625 166.8984375 C91.27078125 167.54941406 90.63140625 168.20039063 89.97265625 168.87109375 C88.70421875 170.12212891 88.70421875 170.12212891 87.41015625 171.3984375 C86.21977857 172.66527089 85.03255024 173.93506738 83.84765625 175.20703125 C82.53668782 176.58479228 81.22416861 177.96107925 79.91015625 179.3359375 C78.9675293 180.34914062 78.9675293 180.34914062 78.00585938 181.3828125 C74.91822466 184.53791894 72.99063301 186.22081527 68.6953125 187.53515625 C64.94656692 187.37914425 63.93676529 186.90102587 61.34765625 184.2734375 C60.68636719 183.63019531 60.02507812 182.98695313 59.34375 182.32421875 C58.70566406 181.68871094 58.06757813 181.05320313 57.41015625 180.3984375 C56.25528048 179.40539146 55.08997087 178.42422144 53.91015625 177.4609375 C52.67265625 176.44 52.67265625 176.44 51.41015625 175.3984375 C50.56453125 175.80835938 49.71890625 176.21828125 48.84765625 176.640625 C47.71328125 177.17945313 46.57890625 177.71828125 45.41015625 178.2734375 C44.29640625 178.80710938 43.18265625 179.34078125 42.03515625 179.890625 C38.15877724 181.50299816 34.49760644 182.47517573 30.41015625 183.3984375 C30.4258667 183.95829346 30.44157715 184.51814941 30.45776367 185.0949707 C30.52015473 187.6335234 30.55915843 190.17191479 30.59765625 192.7109375 C30.62279297 193.59201172 30.64792969 194.47308594 30.67382812 195.38085938 C30.68349609 196.22841797 30.69316406 197.07597656 30.703125 197.94921875 C30.71883545 198.72950439 30.7345459 199.50979004 30.75073242 200.3137207 C30.41015625 202.3984375 30.41015625 202.3984375 29.38208008 204.15161133 C26.29913381 206.10092501 23.10103639 205.82585447 19.56640625 205.796875 C18.41815369 205.80118027 18.41815369 205.80118027 17.2467041 205.80557251 C15.62946838 205.8076125 14.01220795 205.80208713 12.39501953 205.78955078 C9.91903534 205.77349508 7.4446834 205.78940047 4.96875 205.80859375 C3.39713181 205.80661131 1.82551464 205.8027676 0.25390625 205.796875 C-0.48678101 205.80294769 -1.22746826 205.80902039 -1.99060059 205.8152771 C-4.90128992 205.77543312 -7.06403056 205.73090351 -9.56176758 204.15161133 C-10.86450533 201.93005829 -10.93454125 200.51841356 -10.8828125 197.94921875 C-10.87314453 197.10166016 -10.86347656 196.25410156 -10.85351562 195.38085938 C-10.82837891 194.49978516 -10.80324219 193.61871094 -10.77734375 192.7109375 C-10.75704102 191.37192383 -10.75704102 191.37192383 -10.73632812 190.00585938 C-10.70098454 187.80277584 -10.65164868 185.60091168 -10.58984375 183.3984375 C-11.15759521 183.29031738 -11.72534668 183.18219727 -12.31030273 183.07080078 C-17.49349491 182.01327154 -21.89311495 180.57790618 -26.65234375 178.2734375 C-27.77769531 177.73460937 -28.90304688 177.19578125 -30.0625 176.640625 C-30.89652344 176.23070312 -31.73054688 175.82078125 -32.58984375 175.3984375 C-33.30269531 176.18089844 -34.01554687 176.96335938 -34.75 177.76953125 C-35.71661523 178.79245416 -36.68411031 179.81454615 -37.65234375 180.8359375 C-38.11833984 181.35220703 -38.58433594 181.86847656 -39.06445312 182.40039062 C-41.70966436 185.15356967 -43.53716409 186.38395764 -47.2421875 187.40234375 C-50.80169557 187.3981903 -51.6486186 187.33966265 -54.08984375 184.8984375 C-55.06630859 183.939375 -55.06630859 183.939375 -56.0625 182.9609375 C-56.89652344 182.1153125 -57.73054688 181.2696875 -58.58984375 180.3984375 C-59.85667714 179.20805982 -61.12647363 178.02083149 -62.3984375 176.8359375 C-63.77619853 175.52496907 -65.1524855 174.21244986 -66.52734375 172.8984375 C-67.2028125 172.27001953 -67.87828125 171.64160156 -68.57421875 170.99414062 C-71.72932519 167.90650591 -73.41222152 165.97891426 -74.7265625 161.68359375 C-74.5705505 157.93484817 -74.09243212 156.92504654 -71.46484375 154.3359375 C-70.82160156 153.67464844 -70.17835937 153.01335937 -69.515625 152.33203125 C-68.56236328 151.37490234 -68.56236328 151.37490234 -67.58984375 150.3984375 C-66.59679771 149.24356173 -65.61562769 148.07825212 -64.65234375 146.8984375 C-63.97171875 146.0734375 -63.29109375 145.2484375 -62.58984375 144.3984375 C-62.99976562 143.5528125 -63.4096875 142.7071875 -63.83203125 141.8359375 C-64.37085937 140.7015625 -64.9096875 139.5671875 -65.46484375 138.3984375 C-65.99851562 137.2846875 -66.5321875 136.1709375 -67.08203125 135.0234375 C-68.69440441 131.14705849 -69.66658198 127.48588769 -70.58984375 123.3984375 C-71.14969971 123.41414795 -71.70955566 123.4298584 -72.28637695 123.44604492 C-74.82492965 123.50843598 -77.36332104 123.54743968 -79.90234375 123.5859375 C-80.78341797 123.61107422 -81.66449219 123.63621094 -82.57226562 123.66210938 C-83.41982422 123.67177734 -84.26738281 123.68144531 -85.140625 123.69140625 C-85.92091064 123.7071167 -86.70119629 123.72282715 -87.50512695 123.73901367 C-89.58984375 123.3984375 -89.58984375 123.3984375 -91.34301758 122.37036133 C-93.29233126 119.28741506 -93.01726072 116.08931764 -92.98828125 112.5546875 C-92.99115143 111.78918579 -92.99402161 111.02368408 -92.99697876 110.23498535 C-92.99901875 108.61774963 -92.99349338 107.0004892 -92.98095703 105.38330078 C-92.96490133 102.90731659 -92.98080672 100.43296465 -93 97.95703125 C-92.99801756 96.38541306 -92.99417385 94.81379589 -92.98828125 93.2421875 C-92.99435394 92.50150024 -93.00042664 91.76081299 -93.00668335 90.99768066 C-92.96683937 88.08699133 -92.92230976 85.92425069 -91.34301758 83.42651367 C-89.12146454 82.12377592 -87.70981981 82.05374 -85.140625 82.10546875 C-84.29306641 82.11513672 -83.44550781 82.12480469 -82.57226562 82.13476562 C-81.69119141 82.15990234 -80.81011719 82.18503906 -79.90234375 82.2109375 C-79.00966797 82.22447266 -78.11699219 82.23800781 -77.19726562 82.25195312 C-74.99418209 82.28729671 -72.79231793 82.33663257 -70.58984375 82.3984375 C-70.48172363 81.83068604 -70.37360352 81.26293457 -70.26220703 80.67797852 C-69.20467779 75.49478634 -67.76931243 71.0951663 -65.46484375 66.3359375 C-64.92601563 65.21058594 -64.3871875 64.08523437 -63.83203125 62.92578125 C-63.42210938 62.09175781 -63.0121875 61.25773437 -62.58984375 60.3984375 C-63.37230469 59.68558594 -64.15476562 58.97273438 -64.9609375 58.23828125 C-65.98386041 57.27166602 -67.0059524 56.30417094 -68.02734375 55.3359375 C-68.80174805 54.63694336 -68.80174805 54.63694336 -69.59179688 53.92382812 C-72.34497592 51.27861689 -73.57536389 49.45111716 -74.59375 45.74609375 C-74.58959655 42.18658568 -74.5310689 41.33966265 -72.08984375 38.8984375 C-71.45046875 38.24746094 -70.81109375 37.59648438 -70.15234375 36.92578125 C-69.30671875 36.09175781 -68.46109375 35.25773437 -67.58984375 34.3984375 C-66.39946607 33.13160411 -65.21223774 31.86180762 -64.02734375 30.58984375 C-62.71637532 29.21208272 -61.40385611 27.83579575 -60.08984375 26.4609375 C-59.46142578 25.78546875 -58.83300781 25.11 -58.18554688 24.4140625 C-55.09791216 21.25895606 -53.17032051 19.57605973 -48.875 18.26171875 C-45.12625442 18.41773075 -44.11645279 18.89584913 -41.52734375 21.5234375 C-40.86605469 22.16667969 -40.20476563 22.80992188 -39.5234375 23.47265625 C-38.88535156 24.10816406 -38.24726562 24.74367188 -37.58984375 25.3984375 C-36.43496798 26.39148354 -35.26965837 27.37265356 -34.08984375 28.3359375 C-33.26484375 29.0165625 -32.43984375 29.6971875 -31.58984375 30.3984375 C-30.82800781 29.98851563 -30.06617188 29.57859375 -29.28125 29.15625 C-28.24871094 28.61742188 -27.21617188 28.07859375 -26.15234375 27.5234375 C-25.14300781 26.98976563 -24.13367188 26.45609375 -23.09375 25.90625 C-18.98894345 24.1398561 -14.96544285 23.22328003 -10.58984375 22.3984375 C-10.6055542 21.83858154 -10.62126465 21.27872559 -10.63745117 20.7019043 C-10.69984223 18.1633516 -10.73884593 15.62496021 -10.77734375 13.0859375 C-10.80248047 12.20486328 -10.82761719 11.32378906 -10.85351562 10.41601562 C-10.86318359 9.56845703 -10.87285156 8.72089844 -10.8828125 7.84765625 C-10.89852295 7.06737061 -10.9142334 6.28708496 -10.93041992 5.4831543 C-10.58984375 3.3984375 -10.58984375 3.3984375 -9.54589844 1.64526367 C-6.53458471 -0.27420453 -3.45907166 -0.02935109 0 0 Z M3.41015625 14.3984375 C3.34957031 15.43484375 3.28898437 16.47125 3.2265625 17.5390625 C3.14212254 18.90886623 3.05747628 20.27865725 2.97265625 21.6484375 C2.93333984 22.33035156 2.89402344 23.01226562 2.85351562 23.71484375 C2.64349153 27.04291791 2.39081623 30.20099152 1.41015625 33.3984375 C0.42917969 33.594375 -0.55179687 33.7903125 -1.5625 33.9921875 C-9.96377454 35.8090195 -17.100511 38.23099777 -24.45141602 42.75585938 C-28.6740908 45.26891797 -31.70228703 46.04666979 -36.58984375 45.3984375 C-38.8828125 43.97265625 -38.8828125 43.97265625 -40.77734375 42.0859375 C-43.33510128 39.60110992 -45.69828374 37.56710751 -48.58984375 35.3984375 C-51.55984375 38.3684375 -54.52984375 41.3384375 -57.58984375 44.3984375 C-56.25953125 45.9453125 -56.25953125 45.9453125 -54.90234375 47.5234375 C-54.3609375 48.16410156 -53.81953125 48.80476563 -53.26171875 49.46484375 C-52.22126336 50.66817416 -51.1523006 51.84813462 -50.04296875 52.98828125 C-48.65234375 54.4609375 -48.65234375 54.4609375 -46.58984375 57.3984375 C-46.84484309 62.60342404 -48.98518734 66.48330797 -51.40234375 70.9609375 C-57.32528676 82.14863005 -57.32528676 82.14863005 -59.58984375 94.3984375 C-63.30263844 95.63603573 -66.90290721 95.75452647 -70.77734375 95.9609375 C-71.52693359 96.00412109 -72.27652344 96.04730469 -73.04882812 96.09179688 C-74.8956275 96.19766435 -76.74271209 96.2985351 -78.58984375 96.3984375 C-78.58984375 100.6884375 -78.58984375 104.9784375 -78.58984375 109.3984375 C-77.46964844 109.45902344 -76.34945312 109.51960938 -75.1953125 109.58203125 C-73.72264391 109.66645174 -72.24998831 109.75109899 -70.77734375 109.8359375 C-70.03935547 109.87525391 -69.30136719 109.91457031 -68.54101562 109.95507812 C-65.35913033 110.14224785 -62.62821997 110.38564543 -59.58984375 111.3984375 C-58.81640625 113.69921875 -58.81640625 113.69921875 -58.21484375 116.7109375 C-56.40116387 124.68733071 -53.64989098 132.26447949 -49.27734375 139.2109375 C-47.20187245 143.13127217 -46.74612572 145.02644408 -47.58984375 149.3984375 C-49.16346127 151.62493889 -50.86660112 153.54914582 -52.765625 155.50390625 C-54.90485237 157.64805747 -54.90485237 157.64805747 -57.58984375 161.3984375 C-53.13484375 165.8534375 -53.13484375 165.8534375 -48.58984375 170.3984375 C-47.55859375 169.5115625 -46.52734375 168.6246875 -45.46484375 167.7109375 C-44.82546875 167.16824219 -44.18609375 166.62554687 -43.52734375 166.06640625 C-42.32106322 165.02793491 -41.13023899 163.9708725 -39.96484375 162.88671875 C-36.21267558 159.47654507 -36.21267558 159.47654507 -33.19140625 159.09765625 C-30.12614002 159.45204889 -28.63062635 160.35872741 -26.08984375 162.0859375 C-18.77280631 166.69861535 -10.8385849 169.87503302 -2.33984375 171.5234375 C-1.10234375 171.8121875 0.13515625 172.1009375 1.41015625 172.3984375 C2.64775448 176.11123219 2.76624522 179.71150096 2.97265625 183.5859375 C3.01583984 184.33552734 3.05902344 185.08511719 3.10351562 185.85742188 C3.2093831 187.70422125 3.31025385 189.55130584 3.41015625 191.3984375 C7.70015625 191.3984375 11.99015625 191.3984375 16.41015625 191.3984375 C16.42433594 190.28984375 16.43851562 189.18125 16.453125 188.0390625 C16.50003471 186.57547966 16.54828206 185.11193927 16.59765625 183.6484375 C16.60635742 182.55402344 16.60635742 182.55402344 16.61523438 181.4375 C16.77225483 177.59922225 17.05939808 175.76861684 19.73828125 172.94140625 C22.47507419 171.36094834 24.96910301 170.67679612 28.04296875 170.015625 C35.62378766 168.03910786 42.74751889 164.4951451 49.27734375 160.21875 C52.41213104 159.01306258 54.21750084 159.41390036 57.41015625 160.3984375 C60.18359375 162.68359375 60.18359375 162.68359375 62.78515625 165.4609375 C63.65914062 166.38003906 64.533125 167.29914063 65.43359375 168.24609375 C66.08585938 168.95636719 66.738125 169.66664063 67.41015625 170.3984375 C68.5188161 169.48721023 69.62187844 168.56917091 70.72265625 167.6484375 C71.33753906 167.13796875 71.95242187 166.6275 72.5859375 166.1015625 C74.46947954 164.34305216 75.92589281 162.49924114 77.41015625 160.3984375 C76.69988281 159.75777344 75.98960937 159.11710938 75.2578125 158.45703125 C74.33871094 157.59207031 73.41960937 156.72710937 72.47265625 155.8359375 C71.55613281 154.98902344 70.63960937 154.14210937 69.6953125 153.26953125 C66.94652789 149.81593008 66.42996962 147.78709811 66.41015625 143.3984375 C67.484375 140.87890625 67.484375 140.87890625 69.09765625 138.5859375 C73.81279193 131.37134332 76.45312632 123.84085767 78.6015625 115.52734375 C79.57919059 112.95339539 80.08765872 111.91844605 82.41015625 110.3984375 C85.20267208 110.02169232 87.79794826 109.79651809 90.59765625 109.7109375 C91.34724609 109.67677734 92.09683594 109.64261719 92.86914062 109.60742188 C94.71562463 109.52509456 96.56286619 109.46008469 98.41015625 109.3984375 C98.41015625 105.1084375 98.41015625 100.8184375 98.41015625 96.3984375 C97.28996094 96.33785156 96.16976562 96.27726562 95.015625 96.21484375 C93.54295641 96.13042326 92.07030081 96.04577601 90.59765625 95.9609375 C89.85966797 95.92162109 89.12167969 95.88230469 88.36132812 95.84179688 C85.17944283 95.65462715 82.44853247 95.41122957 79.41015625 94.3984375 C78.71885364 92.00476413 78.19338591 89.71146719 77.72265625 87.2734375 C76.22179461 80.30796065 73.78497407 74.59786906 70.05200195 68.53662109 C67.54010769 64.31350258 66.76192788 61.28596468 67.41015625 56.3984375 C68.8359375 54.10546875 68.8359375 54.10546875 70.72265625 52.2109375 C73.20748383 49.65317997 75.24148624 47.28999751 77.41015625 44.3984375 C74.44015625 41.4284375 71.47015625 38.4584375 68.41015625 35.3984375 C67.37890625 36.2853125 66.34765625 37.1721875 65.28515625 38.0859375 C64.32609375 38.89998047 64.32609375 38.89998047 63.34765625 39.73046875 C62.14137572 40.76894009 60.95055149 41.8260025 59.78515625 42.91015625 C56.03282601 46.32047722 56.03282601 46.32047722 53.0078125 46.69921875 C49.95086885 46.34525685 48.49605896 45.44714352 45.97265625 43.7109375 C38.52577314 39.00237015 30.18424449 36.15416239 21.59765625 34.2734375 C20.54578125 33.9846875 19.49390625 33.6959375 18.41015625 33.3984375 C17.17255802 29.68564281 17.05406728 26.08537404 16.84765625 22.2109375 C16.80447266 21.46134766 16.76128906 20.71175781 16.71679688 19.93945312 C16.6109294 18.09265375 16.51005865 16.24556916 16.41015625 14.3984375 C12.12015625 14.3984375 7.83015625 14.3984375 3.41015625 14.3984375 Z " fill="#3F4E6D" transform="translate(102.58984375,9.6015625)"/>
<path d="M0 0 C1.19689453 0.36738281 1.19689453 0.36738281 2.41796875 0.7421875 C16.15281052 5.5547057 25.49479522 16.22910256 31.73828125 28.97265625 C34.35297854 35.24631073 35.32250691 40.72456895 35.25 47.4375 C35.26160156 48.50581055 35.26160156 48.50581055 35.2734375 49.59570312 C35.22297344 63.48593514 28.73367611 76.12214743 19.17578125 85.953125 C7.92524326 96.53711406 -5.59105142 99.66125572 -20.79296875 99.33984375 C-33.88725071 98.61655199 -45.55230843 91.25865669 -54.40625 81.9453125 C-64.23923164 69.94329079 -67.06483596 56.34739306 -66.21777344 41.07226562 C-64.8180967 27.75336861 -56.49832642 16.19342235 -46.484375 7.78515625 C-32.86140981 -2.00367251 -16.1544343 -5.13870488 0 0 Z " fill="#0895FD" transform="translate(128,64)"/>
<path d="M0 0 C3.20676092 1.60338046 3.76889491 4.93144026 5 8.125 C5.39058594 9.10339844 5.39058594 9.10339844 5.7890625 10.1015625 C6.55744579 12.05744724 7.28411668 14.0243609 8 16 C8.433125 17.17304687 8.86625 18.34609375 9.3125 19.5546875 C10.14357499 23.71950647 9.28634977 25.99117025 8 30 C7.81640032 32.67299529 7.7127749 35.20955432 7.75 37.875 C7.75676758 38.57898926 7.76353516 39.28297852 7.77050781 40.00830078 C7.87475987 45.26333178 8.35360357 50.0137708 10 55 C10.25652344 55.80695313 10.51304688 56.61390625 10.77734375 57.4453125 C15.57393272 70.90869955 25.41096251 79.58389438 37.97265625 85.73828125 C43.99351316 88.24761903 49.22366701 89.27579578 55.75 89.25 C56.45535889 89.25193359 57.16071777 89.25386719 57.88745117 89.25585938 C61.97318243 89.21483891 65.42522888 88.69233981 69.3125 87.5 C77.62643678 85.61567742 86.774201 91.24302782 94 95 C95.485 95.99 95.485 95.99 97 97 C94.43873936 98.294174 91.87606642 99.58540784 89.3125 100.875 C88.59126953 101.23980469 87.87003906 101.60460937 87.12695312 101.98046875 C81.44300678 104.83541897 76.11846371 107.08715611 69.8671875 108.33984375 C67.38775486 109.21646324 66.48052511 109.78588137 65 112 C64.62325482 114.79251583 64.39808059 117.38779201 64.3125 120.1875 C64.27833984 120.93708984 64.24417969 121.68667969 64.20898438 122.45898438 C64.12665706 124.30546838 64.06164719 126.15270994 64 128 C59.71 128 55.42 128 51 128 C50.93941406 126.87980469 50.87882812 125.75960937 50.81640625 124.60546875 C50.73198576 123.13280016 50.64733851 121.66014456 50.5625 120.1875 C50.52318359 119.44951172 50.48386719 118.71152344 50.44335938 117.95117188 C50.25618965 114.76928658 50.01279207 112.03837622 49 109 C46.61074553 108.14270038 46.61074553 108.14270038 43.6875 107.625 C34.72079623 105.57790473 26.32169205 102.51152714 19.01171875 96.8203125 C15.70741266 95.47292555 13.3976812 96.10645397 10 97 C7.05083675 99.22847279 7.05083675 99.22847279 4.5625 102.0625 C3.69753906 102.98160156 2.83257812 103.90070313 1.94140625 104.84765625 C1.30074219 105.55792969 0.66007812 106.26820313 0 107 C-1.10865985 106.08877273 -2.21172219 105.17073341 -3.3125 104.25 C-4.23482422 103.48429687 -4.23482422 103.48429687 -5.17578125 102.703125 C-7.05932329 100.94461466 -8.51573656 99.10080364 -10 97 C-9.36191406 96.37351562 -8.72382812 95.74703125 -8.06640625 95.1015625 C-7.24011719 94.28429687 -6.41382812 93.46703125 -5.5625 92.625 C-4.73878906 91.81289062 -3.91507813 91.00078125 -3.06640625 90.1640625 C-0.49137441 87.46733728 -0.05541834 86.58772604 0.296875 82.8515625 C-0.06116097 78.20651684 -1.51225556 75.37393219 -3.75 71.375 C-12 55.84623016 -12 55.84623016 -12 48 C-15.71279469 46.76240177 -19.31306346 46.64391103 -23.1875 46.4375 C-24.31188477 46.37272461 -24.31188477 46.37272461 -25.45898438 46.30664062 C-27.30578375 46.20077315 -29.15286834 46.0999024 -31 46 C-31 41.71 -31 37.42 -31 33 C-29.87980469 32.93941406 -28.75960938 32.87882812 -27.60546875 32.81640625 C-26.13280016 32.73198576 -24.66014456 32.64733851 -23.1875 32.5625 C-22.44951172 32.52318359 -21.71152344 32.48386719 -20.95117188 32.44335938 C-17.76928658 32.25618965 -15.03837622 32.01279207 -12 31 C-11.14270038 28.61074553 -11.14270038 28.61074553 -10.625 25.6875 C-8.52859688 16.46771663 -4.93933521 8.04928701 0 0 Z " fill="#E4E6E7" transform="translate(55,73)"/>
<path d="M0 0 C2.64 0 5.28 0 8 0 C9.42808369 4.09206747 10.85214285 8.18550604 12.27246094 12.28027344 C12.75637735 13.67356297 13.2413986 15.06646928 13.72753906 16.45898438 C14.42542506 18.4586414 15.1193484 20.45963523 15.8125 22.4609375 C16.23144531 23.66540527 16.65039062 24.86987305 17.08203125 26.11083984 C18 29 18 29 18 31 C15.36 31 12.72 31 10 31 C9.34 28.36 8.68 25.72 8 23 C5.36 23 2.72 23 0 23 C-0.2165625 24.1446875 -0.2165625 24.1446875 -0.4375 25.3125 C-1 28 -1 28 -2 31 C-4.64 31 -7.28 31 -10 31 C-7.45115129 20.41620917 -3.6653736 10.23507071 0 0 Z " fill="#F2F9FE" transform="translate(90,97)"/>
<path d="M0 0 C14 0 14 0 18 2 C20.82559534 6.23839301 20.89480067 10.0271255 20 15 C18.27370148 17.77682182 17.01837763 18.3536122 14 20 C10.125 20.3125 10.125 20.3125 7 20 C7 23.63 7 27.26 7 31 C4.69 31 2.38 31 0 31 C0 20.77 0 10.54 0 0 Z " fill="#FCFDFE" transform="translate(112,97)"/>
<path d="M0 0 C2.64 0 5.28 0 8 0 C8 10.23 8 20.46 8 31 C5.36 31 2.72 31 0 31 C0 20.77 0 10.54 0 0 Z " fill="#EEF6FE" transform="translate(137,97)"/>
<path d="M0 0 C2.475 0.495 2.475 0.495 5 1 C5.625 3.375 5.625 3.375 6 6 C5.34 6.66 4.68 7.32 4 8 C2.68 8 1.36 8 0 8 C0 5.36 0 2.72 0 0 Z " fill="#1E9CFD" transform="translate(119,103)"/>
<path d="M0 0 C0.66 0.33 1.32 0.66 2 1 C2.6328125 3.50390625 2.6328125 3.50390625 3.125 6.5625 C3.29257812 7.57441406 3.46015625 8.58632813 3.6328125 9.62890625 C3.75398438 10.41136719 3.87515625 11.19382812 4 12 C2.82460004 11.07347299 1.65989423 10.13336613 0.5 9.1875 C-0.1496875 8.66542969 -0.799375 8.14335938 -1.46875 7.60546875 C-3 6 -3 6 -3 3 C-1.5 1.3125 -1.5 1.3125 0 0 Z " fill="#E2E4E6" transform="translate(49,50)"/>
<path d="M0 0 C2.64 0.33 5.28 0.66 8 1 C8 1.99 8 2.98 8 4 C7.01 4.66 6.02 5.32 5 6 C3.35 4.02 1.7 2.04 0 0 Z " fill="#E5E6E8" transform="translate(165,174)"/>
</svg>
