<svg clip-rule="evenodd" fill-rule="evenodd" height="173.397mm" image-rendering="optimizeQuality" shape-rendering="geometricPrecision" text-rendering="geometricPrecision" viewBox="0 0 173.397 173.397" width="173.397mm" xmlns="http://www.w3.org/2000/svg" xmlns:xlink="http://www.w3.org/1999/xlink"><linearGradient id="id0" gradientUnits="userSpaceOnUse" x1="25.739" x2="147.659" y1="147.659" y2="25.739"><stop offset="0" stop-color="#8a2387"/><stop offset=".470588" stop-color="#e94057"/><stop offset="1" stop-color="#f27121"/></linearGradient><g id="Layer_x0020_1"><circle cx="86.699" cy="86.699" fill="url(#id0)" r="84.667"/><g id="_329944104" fill="#fff"><path id="_329913648" d="m105.831 41.8645c3.8635 0 7.4807 1.4919 10.191 4.1996 2.7088 2.7101 4.1996 6.328 4.1996 10.1919.0006 3.8639-1.492 7.4842-4.1996 10.192l-47.6092 47.6101c-1.4523 1.4521-1.4532 3.8168-.0009 5.2688 1.4522 1.4544 3.8165 1.4546 5.2687 0l47.6112-47.6103c4.1141-4.1125 6.3791-9.605 6.3791-15.4606.0009-5.8558-2.2652-11.3456-6.3801-15.4607-4.1143-4.1149-9.6051-6.3801-15.4607-6.3801-5.8555-.0001-11.3456 2.2652-15.4608 6.3801-.7009.7011-1.0864 1.6386-1.0864 2.6357.0007.9969.3852 1.932 1.0864 2.6331.7022.7012 1.6361 1.0891 2.6334 1.0891 1.0003 0 1.9343-.3878 2.6355-1.0891 2.7085-2.7079 6.3278-4.1995 10.1928-4.1996zm-34.7831 80.9384c-1.5666 0-3.1334-.5967-4.3244-1.7877-2.3811-2.3847-2.382-6.2608 0-8.6454l47.6111-47.6077c2.2578-2.2602 3.5002-5.2787 3.5002-8.5061.0009-3.2249-1.2433-6.2459-3.5011-8.5036-2.2571-2.2577-5.2786-3.5008-8.5036-3.5008-3.2272-.0003-6.2459 1.2431-8.5035 3.5008-1.1528 1.1511-2.6878 1.7878-4.3239 1.7878-1.6334-.0001-3.1702-.6366-4.3215-1.7878-2.3839-2.3822-2.3845-6.2608 0-8.6453 4.5655-4.5652 10.6567-7.0789 17.1489-7.0789 6.4926-.0002 12.5814 2.5138 17.149 7.0789 4.5651 4.5675 7.0789 10.6569 7.0789 17.1489.0003 6.4946-2.5139 12.5839-7.0789 17.149l-47.61 47.6102c-1.1906 1.191-2.7578 1.7877-4.3212 1.7877z"/><path id="_329913600" d="m78.3634 117.524c-.2012 0-.4083-.0497-.5948-.1591l-8.8218-5.0925c-.5695-.3306-.766-1.0589-.4353-1.6308.329-.5695 1.0592-.7658 1.6287-.4376l8.8218 5.0945c.5696.3284.7658 1.0594.435 1.6288-.2202.3827-.6215.5968-1.0336.5967z"/><path id="_329913912" d="m84.7513 111.139c-.2048 0-.4086-.052-.5976-.1589l-8.819-5.0923c-.5717-.3307-.7687-1.0592-.4381-1.6311.3284-.5695 1.0592-.7658 1.6287-.4376l8.8223 5.0922c.5718.3307.7654 1.0593.437 1.6312-.221.3828-.6239.5967-1.0333.5965z"/><path id="_329913984" d="m91.1356 104.754c-.2036 0-.4077-.052-.5967-.1614l-8.8188-5.0924c-.5718-.3281-.7663-1.0591-.4383-1.6309.3308-.5694 1.0593-.7658 1.6311-.4351l8.8203 5.092c.5718.3307.7674 1.0594.4367 1.6313-.2207.3828-.6216.5967-1.0343.5965z"/><path id="_329913744" d="m97.5212 98.3662c-.2013 0-.4082-.0497-.5947-.159l-8.8219-5.0923c-.5684-.3309-.7659-1.0592-.435-1.6311.3287-.5695 1.0566-.7658 1.6286-.4375l8.8226 5.0944c.5695.3284.7649 1.0594.4368 1.6288-.2208.383-.6241.5968-1.0364.5967z"/><path id="_329914056" d="m103.909 91.9809c-.2037 0-.4083-.052-.5972-.1589l-8.8194-5.0923c-.5717-.3306-.7684-1.0617-.4377-1.631.3293-.5721 1.0592-.7658 1.6312-.4377l8.8196 5.0922c.5717.3306.7655 1.0593.4375 1.6312-.2205.3828-.6242.5967-1.034.5965z"/><path id="_329913552" d="m110.294 85.5959c-.2047 0-.4085-.0521-.5975-.1615l-8.8191-5.0925c-.5717-.3281-.7663-1.059-.4381-1.6284.3307-.5719 1.0593-.7683 1.6312-.4376l8.8199 5.092c.5719.3285.7679 1.0594.437 1.6313-.221.3827-.6215.5968-1.0334.5967z"/><path id="_329913768" d="m116.679 79.2082c-.2014 0-.4079-.0496-.5944-.159l-8.8211-5.0923c-.5695-.3306-.7665-1.0592-.4384-1.631.331-.5695 1.0592-.7658 1.631-.4377l8.8226 5.0948c.5695.3281.7651 1.0592.4344 1.6285-.2185.383-.6215.5968-1.0341.5967z"/><path id="_329913504" d="m123.032 72.8031c-.2014 0-.4082-.0496-.5947-.159l-8.7861-5.0724c-.5729-.3307-.7693-1.0616-.4386-1.631.3289-.5719 1.0592-.7658 1.631-.4376l8.7882 5.0747c.5684.3282.7649 1.0593.4342 1.6287-.2182.3829-.6218.5967-1.034.5966z"/><path id="_329913864" d="m127.157 66.1966c-.2013 0-.4085-.052-.595-.1614l-8.6626-5.0004c-.5718-.3307-.7686-1.0591-.4377-1.631.3291-.5719 1.0592-.7658 1.6309-.4375l8.6631 5.0026c.5696.328.7655 1.0593.435 1.6312-.2213.3828-.6218.5967-1.0337.5965z"/><path id="_329913168" d="m128.816 58.9461c-.2015 0-.4083-.0519-.5949-.1589l-10.6165-6.129c-.5695-.3309-.7664-1.0592-.4356-1.6312.3282-.5719 1.0592-.7658 1.6284-.4375l10.6171 6.1289c.5695.3306.766 1.0618.4352 1.6312-.2204.3828-.6215.5967-1.0337.5965z"/><path id="_329912976" d="m126.749 47.7596c-.0326 0-.065-.0022-.0972-.0047l-13.267-1.0892c-.6569-.0521-1.147-.6289-1.0922-1.2853.0527-.6591.6266-1.1463 1.2855-1.0941l13.2681 1.0916c.6569.052 1.1456.6291 1.0909 1.2855-.0492.6238-.5719 1.0964-1.1881 1.0962z"/><path id="_329912832" d="m105.831 44.2513c-.4353 0-.8563-.2385-1.0652-.6537-.2977-.5893-.0645-1.3054.5247-1.6037l12.3627-6.266c.5896-.2985 1.3079-.062 1.6062.5248.2959.5891.0621 1.3078-.5272 1.6062l-12.3619 6.2633c-.1745.0869-.3586.1294-.5393.1291z"/><path id="_329912736" d="m100.082 45.5493c-.2237 0-.4506-.062-.6519-.1938-.552-.3606-.7062-1.099-.3456-1.651l7.2364-11.0871c.3603-.5519 1.098-.7085 1.6499-.348.5523.3603.7087 1.099.3483 1.651l-7.2356 11.0893c-.2283.3507-.6117.5398-1.0015.5396z"/><path id="_329912760" d="m95.4803 48.8738c-.6143 0-1.1347-.4674-1.1894-1.0891l-.9913-11.4999c-.0571-.6565.4294-1.2356 1.0857-1.2928.652-.0571 1.2357.4302 1.2905 1.0866l.9928 11.4995c.057.6565-.4285 1.236-1.0873 1.2932-.0339.0025-.0697.0025-.101.0025z"/><path id="_329912904" d="m83.8729 133.432h.0033zm18.4797-80.4634c-.9555 0-1.9102.3631-2.6363 1.0891l-47.6078 47.61c-4.1142 4.1128-6.3827 9.6053-6.3827 15.4584.0006 5.8555 2.2677 11.3481 6.3827 15.4632 8.5238 8.5234 22.3954 8.5235 30.9214 0 1.4528-1.4546 1.4519-3.8167 0-5.2713-.7012-.6989-1.6387-1.0866-2.6357-1.0866-.9969 0-1.9321.388-2.6332 1.0866-2.7095 2.7101-6.3279 4.2021-10.1918 4.2021-3.8632-.0002-7.4843-1.4918-10.1921-4.1996-2.7096-2.7104-4.2019-6.3304-4.2019-10.1919.0008-3.8641 1.4919-7.4842 4.2019-10.1943l47.6082-47.6081c.7016-.7009 1.0887-1.6383 1.0887-2.6353 0-.9972-.3878-1.932-1.089-2.6332-.7258-.7262-1.6783-1.089-2.6324-1.0891zm-34.7831 88.4001c-6.211 0-12.4225-2.3645-17.1493-7.0936-4.5651-4.5653-7.0813-10.6545-7.0813-17.149.0008-6.4921 2.5162-12.5813 7.0813-17.1464l47.6079-47.6105c2.3842-2.3843 6.2633-2.3843 8.6453.0003 1.1539 1.1511 1.7877 2.6878 1.7877 4.3214.0007 1.6359-.6341 3.1701-1.7877 4.3239l-47.6098 47.6077c-2.2579 2.2577-3.5014 5.2787-3.5014 8.5036.0005 3.2272 1.2432 6.2484 3.5009 8.5062 2.2607 2.2576 5.2787 3.5009 8.5061 3.5009 3.2249-.0002 6.2459-1.2433 8.5035-3.5009 1.1518-1.1539 2.6854-1.7879 4.3215-1.7879 1.6371-.0002 3.1702.6341 4.3239 1.7879 2.3828 2.3818 2.382 6.2608 0 8.6428l.0007-.0002c-4.7295 4.7293-10.9412 7.0939-17.1493 7.0938z"/><path id="_329912616" d="m103.854 63.3397c-.2036 0-.4082-.052-.5971-.1614l-8.8184-5.0923c-.5729-.3282-.7694-1.0592-.4387-1.6286.3313-.572 1.0592-.7682 1.6313-.4376l8.8193 5.0922c.5718.3306.7657 1.0592.4374 1.6312-.2203.3828-.6215.5967-1.0338.5965z"/><path id="_329912568" d="m97.4664 69.725c-.2015 0-.4056-.0521-.5945-.1591l-8.821-5.0925c-.5695-.3306-.7667-1.0589-.436-1.6308.3285-.572 1.059-.7658 1.6284-.4376l8.8229 5.0919c.5694.331.765 1.0595.4367 1.6314-.2208.3827-.6241.5968-1.0365.5967z"/><path id="_329912664" d="m91.082 76.1099c-.2026 0-.4088-.0494-.5954-.1588l-8.8212-5.0924c-.5718-.3306-.7666-1.059-.4383-1.6309.3309-.5694 1.0617-.7658 1.6311-.4352l8.8223 5.0922c.5695.3281.7655 1.0592.4346 1.6287-.2209.3827-.6215.5967-1.0342.5967z"/><path id="_329912952" d="m84.6964 82.4978c-.2036 0-.4086-.0522-.5974-.1615l-8.8193-5.0923c-.5717-.3285-.7685-1.0592-.4377-1.6286.3315-.5721 1.0591-.7683 1.6311-.4376l8.8197 5.0922c.5717.3307.7655 1.0592.4374 1.6311-.2215.3829-.6217.5967-1.0338.5967z"/><path id="_329944992" d="m78.3086 88.883c-.2014 0-.4084-.0522-.5947-.1591l-8.8219-5.0924c-.5695-.3307-.7659-1.0615-.4352-1.6309.3289-.572 1.0592-.7659 1.6287-.4376l8.8229 5.092c.5684.3306.7647 1.0619.4364 1.6313-.2204.3827-.624.5967-1.0362.5967z"/><path id="_329944872" d="m71.9231 95.268c-.2014 0-.4079-.0496-.5944-.1589l-8.8211-5.0924c-.5717-.3306-.7665-1.0591-.4384-1.631.331-.5696 1.0592-.7658 1.631-.4351l8.8226 5.0922c.5695.3281.7651 1.0593.4344 1.6287-.2207.3828-.6215.5967-1.0341.5965z"/><path id="_329944896" d="m65.5386 101.656c-.2047 0-.4085-.0521-.5975-.1615l-8.8191-5.0923c-.5718-.3283-.7663-1.0591-.4381-1.6285.3307-.572 1.0593-.7683 1.6312-.4376l8.8199 5.0922c.5719.3306.7653 1.0592.437 1.6311-.221.3829-.6215.5968-1.0334.5966z"/><path id="_329945016" d="m59.151 108.041c-.2016 0-.4086-.0522-.5951-.1592l-8.7868-5.075c-.5718-.3281-.7662-1.059-.4379-1.6284.3316-.5719 1.0592-.7683 1.631-.4375l8.7873 5.0721c.5695.3306.7656 1.0619.4376 1.6313-.2205.3827-.6242.5967-1.0361.5967z"/><path id="_329945088" d="m54.9013 114.578c-.2013 0-.4083-.052-.5948-.1589l-8.6617-5.0029c-.5729-.3306-.7669-1.0591-.4386-1.6309.3312-.5697 1.0591-.7658 1.6311-.4351l8.6628 5.0001c.5695.3306.7657 1.0593.4375 1.6311-.2206.3829-.6242.5968-1.0363.5966z"/><path id="_329944056" d="m55.1967 122.955c-.2035 0-.4078-.0521-.5968-.1615l-10.6146-6.1268c-.5717-.3306-.7682-1.0615-.4375-1.6308.3313-.572 1.0592-.7659 1.6309-.4376l10.6156 6.129c.5717.3306.7648 1.0592.4368 1.6311-.2209.3829-.6218.5967-1.0344.5966z"/><path id="_329944512" d="m59.9184 129.101c-.0313 0-.0672.0003-.0994-.0047l-13.2669-1.0893c-.6567-.052-1.1444-.6288-1.0923-1.2852.0551-.6566.6266-1.1463 1.2879-1.0916l13.2681 1.089c.6568.0523 1.1432.6292 1.0911 1.2855-.0516.6242-.5744 1.0966-1.1885 1.0963z"/><path id="_329944416" d="m55.2069 137.784c-.4376 0-.8557-.2387-1.067-.6539-.2981-.5869-.0622-1.3054.5247-1.6038l12.3655-6.2635c.5863-.2982 1.3049-.0619 1.6032.5249.299.589.0622 1.3054-.5246 1.6037l-12.3648 6.2656c-.1712.0871-.3583.127-.537.127z"/><path id="_329944224" d="m66.0779 141.309c-.2237 0-.4508-.0621-.6521-.1939-.5517-.3605-.7062-1.099-.3481-1.6509l7.2381-11.0897c.3615-.5518 1.099-.706 1.651-.3455.5522.3579.7086 1.099.3482 1.651l-7.2379 11.0869c-.2281.3505-.6095.5422-.9992.5421z"/><path id="_329944704" d="m78.9107 138.395c-.6144 0-1.1372-.4673-1.1893-1.0888l-.9914-11.4999c-.0573-.6565.4293-1.2357 1.0857-1.2928.6518-.0549 1.2359.4301 1.2932 1.0865l.9899 11.4996c.0571.6565-.4282 1.2359-1.0871 1.2931-.0339.0023-.0696.0025-.101.0023z"/></g></g></svg>