<?xml version="1.0" encoding="UTF-8"?>
<svg version="1.1" xmlns="http://www.w3.org/2000/svg" width="512" height="512">
<path d="M0 0 C5.73378444 4.0371566 9.89681845 8.24227815 12 15 C13.9035575 26.3856876 14.70299921 37.9927837 15.80224609 49.4765625 C17.8223972 70.56591751 20.02480451 91.61339101 22.6171875 112.640625 C22.84634239 114.50924597 23.07540719 116.37787799 23.30438232 118.246521 C24.66498192 129.32996374 24.66498192 129.32996374 26.06811523 140.40808105 C34.75089149 207.94504331 34.75089149 207.94504331 20 229 C16.56275425 233.23703117 12.82966829 237.12359044 9 241 C8.29633301 241.71736328 7.59266602 242.43472656 6.86767578 243.17382812 C-7.29153728 257.58239715 -7.29153728 257.58239715 -12.95703125 262.44921875 C-17.72012022 266.55261313 -22.09236953 271.02162105 -26.5 275.5 C-31.54404491 280.62500871 -36.60769412 285.61867711 -42.06201172 290.30664062 C-45.43076234 293.25015968 -48.62587435 296.36190164 -51.8125 299.5 C-52.46669922 300.12519531 -53.12089844 300.75039063 -53.79492188 301.39453125 C-57.80244421 305.34883828 -60.15173981 308.66821596 -62 314 C-60.75863281 313.95359375 -59.51726562 313.9071875 -58.23828125 313.859375 C-56.59637829 313.82184579 -54.95444923 313.78544686 -53.3125 313.75 C-52.49587891 313.71648437 -51.67925781 313.68296875 -50.83789062 313.6484375 C-46.69707993 313.58137984 -44.5725115 313.64153226 -40.98046875 315.890625 C-37.52686266 319.56902201 -37.84620834 322.67764156 -37.83886719 327.49145508 C-37.83390228 328.26400131 -37.82893738 329.03654755 -37.82382202 329.83250427 C-37.80918654 332.39485558 -37.80239568 334.95714496 -37.796875 337.51953125 C-37.79112415 339.29831443 -37.78536641 341.0770976 -37.77960205 342.85588074 C-37.76908775 346.58922617 -37.76324807 350.32255004 -37.75976562 354.0559082 C-37.75428369 358.83768137 -37.73026396 363.61916938 -37.70179367 368.40085316 C-37.68316005 372.0768873 -37.67796128 375.7528529 -37.67642975 379.42893028 C-37.67340371 381.1915715 -37.66537681 382.95421152 -37.65224457 384.71680641 C-37.63517074 387.18487781 -37.63706753 389.65225467 -37.64355469 392.12036133 C-37.62973251 393.21077225 -37.62973251 393.21077225 -37.6156311 394.32321167 C-37.65176369 398.71632638 -38.29534247 401.50675439 -41 405 C-43.60684611 406.30342306 -45.52540303 406.13777669 -48.44587708 406.15390015 C-49.60255386 406.16250061 -50.75923065 406.17110107 -51.95095825 406.17996216 C-53.22631439 406.18422211 -54.50167053 406.18848206 -55.81567383 406.19287109 C-57.16744701 406.20077155 -58.51921809 406.20904047 -59.87098694 406.21765137 C-64.31631453 406.24387726 -68.76165158 406.25917921 -73.20703125 406.2734375 C-74.73674717 406.27879688 -76.26646303 406.28417439 -77.79617882 406.28956985 C-84.15881057 406.31119911 -90.52143978 406.32993628 -96.88409901 406.34119225 C-106.00575656 406.35743467 -115.12698835 406.39061852 -124.24848539 406.44759309 C-130.66044048 406.48627937 -137.07228163 406.50582333 -143.48435038 406.51111281 C-147.31490797 406.51476804 -151.14501153 406.52680657 -154.97544289 406.55921555 C-158.57972187 406.58927386 -162.1832716 406.59561669 -165.78764915 406.58383179 C-167.73932083 406.58350559 -169.69094735 406.60798622 -171.64245605 406.63320923 C-180.07737396 406.5729882 -180.07737396 406.5729882 -184.28678894 403.95877075 C-186.42807787 400.26069572 -186.69069092 397.23822747 -186.61523438 393.07617188 C-186.62078339 392.29343399 -186.6263324 391.51069611 -186.63204956 390.70423889 C-186.64382963 388.12511351 -186.61958909 385.54775164 -186.59375 382.96875 C-186.59203837 381.17183512 -186.59210511 379.37491775 -186.59387207 377.57800293 C-186.59221977 373.81526747 -186.57353852 370.05312846 -186.54199219 366.29052734 C-186.50231477 361.47175594 -186.49794748 356.65376551 -186.50545502 351.83486176 C-186.50852719 348.12531401 -186.4963954 344.41594125 -186.47932434 340.70643616 C-186.47230201 338.92986652 -186.46916888 337.15327704 -186.47001648 335.37669373 C-186.46821511 332.89204185 -186.44680508 330.40831897 -186.41992188 327.92382812 C-186.42285248 327.19224991 -186.42578308 326.46067169 -186.42880249 325.70692444 C-186.35563012 321.31525097 -185.70256814 318.49454008 -183 315 C-179.93466836 313.46733418 -176.73245728 313.89723529 -173.375 313.9375 C-172.31539063 313.94426758 -172.31539063 313.94426758 -171.234375 313.95117188 C-169.48954725 313.96296125 -167.744763 313.98089676 -166 314 C-166.00888245 313.17695877 -166.01776489 312.35391754 -166.0269165 311.50593567 C-166.10753626 303.69574543 -166.1682026 295.88576097 -166.20724869 288.07526112 C-166.22799852 284.06114051 -166.25608078 280.04736776 -166.30175781 276.03344727 C-166.34567179 272.14952432 -166.36923149 268.26593295 -166.37950897 264.38178062 C-166.38681967 262.91040525 -166.40109206 261.43904511 -166.42292023 259.96781349 C-166.61867306 246.20899727 -164.25510481 234.93004498 -156 223.75 C-155.14450562 222.54657959 -155.14450562 222.54657959 -154.27172852 221.31884766 C-153.09730873 219.66937255 -151.91577728 218.0249369 -150.72705078 216.38574219 C-148.59208804 213.43651178 -146.50207804 210.45718867 -144.41235352 207.47583008 C-142.93487628 205.37126269 -141.4492937 203.27266635 -139.9609375 201.17578125 C-137.98085103 198.38577806 -136.0068852 195.59163551 -134.0390625 192.79296875 C-127.31200892 183.22852665 -120.49782715 173.73037429 -113.63671875 164.26171875 C-112.01490936 162.02060267 -110.39734868 159.77648685 -108.78125 157.53125 C-105.52958396 153.01447106 -102.2672737 148.50549889 -99 144 C-98.14704346 142.82171631 -98.14704346 142.82171631 -97.27685547 141.61962891 C-91.01813154 132.98877349 -84.67887708 124.43687799 -78 116.125 C-77.2265625 115.15312744 -77.2265625 115.15312744 -76.4375 114.16162109 C-72.88032259 109.79504687 -69.11441305 105.55720653 -64 103 C-62.29297265 102.93003986 -60.58331997 102.91559846 -58.875 102.9375 C-58.01406738 102.9485376 -57.15313477 102.9595752 -56.26611328 102.97094727 C-55.5182959 102.98053467 -54.77047852 102.99012207 -54 103 C-53.9179834 102.03594238 -53.8359668 101.07188477 -53.75146484 100.07861328 C-52.31359145 84.4835395 -49.82552866 69.04069215 -47.36914062 53.58105469 C-46.74317513 49.63725671 -46.13355221 45.69111004 -45.52756691 41.74419975 C-45.05219103 38.66629302 -44.56545294 35.59025984 -44.075634 32.51462173 C-43.84589741 31.06018399 -43.62022285 29.60509785 -43.39894485 28.14934921 C-41.73139521 17.22003846 -40.14557836 7.58822477 -31.125 0.44140625 C-21.66409298 -5.97601046 -9.68375323 -6.11320735 0 0 Z M-23 16 C-24.90659089 22.38843052 -25.91427041 28.9404236 -26.98828125 35.51171875 C-27.17199783 36.62223602 -27.35571442 37.7327533 -27.54499817 38.87692261 C-28.13882091 42.47970302 -28.7264807 46.0834425 -29.3125 49.6875 C-29.61205597 51.52439896 -29.61205597 51.52439896 -29.91766357 53.39840698 C-32.47204858 69.09815688 -34.94887603 84.80551163 -37.125 100.5625 C-37.2330899 101.32509125 -37.34117981 102.0876825 -37.45254517 102.87338257 C-37.75175799 104.99901671 -38.03840702 107.12591623 -38.3203125 109.25390625 C-38.55645264 111.00682983 -38.55645264 111.00682983 -38.79736328 112.79516602 C-39.24530808 119.8797098 -36.70888391 125.53478075 -34.05859375 131.9765625 C-30.86888348 142.38807969 -33.50522566 150.44246118 -38.38476562 159.72192383 C-38.94804565 160.76819443 -38.94804565 160.76819443 -39.52270508 161.83560181 C-41.11849019 164.80085719 -42.65926175 167.79358989 -44.20413208 170.78559875 C-44.99284366 172.31196561 -45.7842505 173.83694276 -46.57833862 175.36051941 C-50.25291535 182.42237773 -53.6702158 189.58172184 -57 196.8125 C-57.52279541 197.94727783 -58.04559082 199.08205566 -58.58422852 200.2512207 C-61.83878977 207.36419158 -65.02310287 214.50663392 -68.125 221.6875 C-68.47949219 222.50645752 -68.83398438 223.32541504 -69.19921875 224.16918945 C-71.40881764 229.36553782 -73.29469765 234.61748933 -75 240 C-75.65194336 240.08628662 -76.30388672 240.17257324 -76.97558594 240.26147461 C-78.1014209 240.41048218 -78.1014209 240.41048218 -79.25 240.5625 C-82.41832431 240.98183704 -84.99371761 241.2171453 -88 240 C-90.19906869 233.40279394 -88.65712775 228.01925658 -86.0625 221.8125 C-85.71968994 220.9757373 -85.37687988 220.13897461 -85.02368164 219.27685547 C-77.34394293 200.95489604 -68.66733408 182.92355967 -59.52734375 165.2890625 C-59.1739946 164.60264679 -58.82064545 163.91623108 -58.45658875 163.20901489 C-56.79009176 159.97238472 -55.10640963 156.74796981 -53.38256836 153.54150391 C-48.96432314 145.09774159 -48.96432314 145.09774159 -50 136 C-50.90596002 133.27551674 -51.9320146 130.63867357 -53.0625 128 C-53.48499023 126.98099609 -53.48499023 126.98099609 -53.91601562 125.94140625 C-54.60191311 124.29060213 -55.29969829 122.64474531 -56 121 C-59.82986112 120.5549064 -59.82986112 120.5549064 -61.45703125 122.30664062 C-61.90433594 122.91701172 -62.35164063 123.52738281 -62.8125 124.15625 C-63.32425781 124.84066162 -63.83601563 125.52507324 -64.36328125 126.23022461 C-65.17345703 127.35376343 -65.17345703 127.35376343 -66 128.5 C-66.57105469 129.27029541 -67.14210938 130.04059082 -67.73046875 130.83422852 C-68.91774121 132.43675149 -70.09998078 134.04301458 -71.27734375 135.65283203 C-72.8547886 137.80214535 -74.45172532 139.93420065 -76.0625 142.05859375 C-82.9749611 151.1767698 -89.68746365 160.43433182 -96.36328125 169.7265625 C-97.97652508 171.96739283 -99.59637192 174.20327617 -101.21875 176.4375 C-108.10383346 185.92461394 -114.87170359 195.48740298 -121.578125 205.1015625 C-124.30288158 209.00704692 -127.04272125 212.90149461 -129.79296875 216.7890625 C-131.27615765 218.88611622 -132.75549312 220.98584507 -134.234375 223.0859375 C-136.02196673 225.62272214 -137.82459969 228.14757029 -139.640625 230.6640625 C-140.44806996 231.79676574 -141.25537042 232.92957201 -142.0625 234.0625 C-143.10083984 235.50302734 -143.10083984 235.50302734 -144.16015625 236.97265625 C-149.39698027 245.58951106 -149.40440744 253.42588686 -149.29296875 263.21875 C-149.28994751 264.50813477 -149.28692627 265.79751953 -149.28381348 267.12597656 C-149.26818192 271.91739977 -149.2262982 276.70870838 -149.1875 281.5 C-149.125625 292.225 -149.06375 302.95 -149 314 C-125.9 314 -102.8 314 -79 314 C-78.34 310.37 -77.68 306.74 -77 303 C-75.0672792 299.96286732 -73.36130774 297.62773848 -71 295 C-70.37609375 294.25878906 -69.7521875 293.51757812 -69.109375 292.75390625 C-66.01987589 289.14746339 -62.87250517 285.85285753 -59.2734375 282.75390625 C-54.79244502 278.88121915 -50.64801764 274.72357351 -46.5 270.5 C-45.07549444 269.04954716 -43.64842536 267.60160735 -42.21875 266.15625 C-41.59935547 265.52525391 -40.97996094 264.89425781 -40.34179688 264.24414062 C-38.35604857 262.34120084 -36.33241773 260.53933909 -34.25268555 258.74169922 C-29.92165584 254.97567912 -25.81693456 251.01269753 -21.73828125 246.9765625 C-20.60775581 245.85814468 -20.60775581 245.85814468 -19.45439148 244.71713257 C-17.87398073 243.15045491 -16.29504467 241.58228834 -14.7175293 240.01269531 C-13.1132555 238.41998414 -11.50451383 236.83176078 -9.89135742 235.24804688 C-7.53870567 232.93821411 -5.19972589 230.61527491 -2.86328125 228.2890625 C-1.79126213 227.24330551 -1.79126213 227.24330551 -0.69758606 226.17642212 C8.35261688 217.08696653 13.26843903 206.39396177 13.52536011 193.48724365 C13.5195694 192.5478595 13.51377869 191.60847534 13.5078125 190.640625 C13.50323029 189.59022034 13.49864807 188.53981567 13.493927 187.45758057 C13.13532662 169.82565073 10.46120583 152.28205117 8.25863647 134.80879593 C7.09041861 125.4944051 5.96590579 116.17456091 4.8359375 106.85546875 C4.64892651 105.31937108 4.64892651 105.31937108 4.45813751 103.75224113 C2.83084732 90.36531242 1.32053448 76.97536794 0.0390625 63.55078125 C-0.03050785 62.82395267 -0.1000782 62.0971241 -0.17175674 61.34827042 C-0.86578045 54.06719806 -1.52571991 46.78355775 -2.16064453 39.49707031 C-2.26631744 38.33370651 -2.37199036 37.17034271 -2.48086548 35.97172546 C-2.67326754 33.85060176 -2.85595928 31.72856116 -3.0262146 29.60554504 C-3.49852133 24.45843371 -4.14832923 20.45640145 -7 16 C-9.75368606 13.76728157 -11.48258624 13.06467672 -15 12.625 C-18.58734688 13.07341836 -20.28429479 13.58603982 -23 16 Z " fill="#4B6274" transform="translate(451,106)"/>
<path d="M0 0 C7.97675247 4.14733326 12.32688703 8.8344031 15.1875 17.375 C16.33793533 22.44108202 17.13390235 27.54715247 17.9140625 32.6796875 C18.14922177 34.16845564 18.38535603 35.65707007 18.62240601 37.14553833 C19.11566414 40.25929 19.60067933 43.37416929 20.07910156 46.49023438 C20.68359536 50.4264566 21.30306238 54.36012287 21.92798233 58.29314804 C24.41229693 73.94443534 26.84340695 89.57596514 28.1875 105.375 C28.89318115 105.3332666 29.5988623 105.2915332 30.32592773 105.24853516 C36.25361813 104.95404214 39.60684998 105.28165318 44.1875 109.375 C57.88852616 122.72621273 68.47863808 139.66349319 79.59033203 155.15283203 C81.21006899 157.40640063 82.83633459 159.65510745 84.46484375 161.90234375 C90.25420782 169.89259466 95.99697859 177.91209639 101.67041016 185.98510742 C105.2759562 191.10744086 108.94202844 196.18315739 112.625 201.25 C117.23589298 207.60596857 121.74997343 214.02175709 126.1875 220.5 C126.71529053 221.26940918 127.24308105 222.03881836 127.78686523 222.83154297 C128.79095168 224.30497435 129.78799326 225.78323539 130.77734375 227.26660156 C131.68903684 228.62972163 132.61774997 229.98167683 133.56640625 231.31933594 C140.45983932 241.44856707 140.61146075 252.46497095 140.48046875 264.32421875 C140.47486001 265.8330696 140.47059597 267.34192599 140.46760559 268.8507843 C140.45625718 272.78485719 140.42687885 276.71858751 140.39349365 280.65252686 C140.36257446 284.68171558 140.349054 288.71096071 140.33398438 292.74023438 C140.30199731 300.61864521 140.25092539 308.49677976 140.1875 316.375 C141.22390625 316.34019531 142.2603125 316.30539062 143.328125 316.26953125 C144.69790042 316.24138518 146.06769341 316.21408589 147.4375 316.1875 C148.46037109 316.14979492 148.46037109 316.14979492 149.50390625 316.11132812 C152.64226658 316.06562385 154.83020911 316.17964256 157.609375 317.69921875 C160.91824718 321.21284787 160.35426126 325.54375796 160.38037109 330.07177734 C160.38854858 330.85422318 160.39672607 331.63666901 160.40515137 332.44282532 C160.42996483 335.0321883 160.44650916 337.62149668 160.4609375 340.2109375 C160.46626118 341.09558308 160.47158485 341.98022865 160.47706985 342.89168167 C160.50378125 347.57231021 160.52316432 352.25291224 160.53759766 356.93359375 C160.5509496 360.80785669 160.57882775 364.68159451 160.61962891 368.55566406 C160.66890051 373.23408122 160.69371154 377.91202124 160.70082474 382.5906868 C160.70754289 384.37290277 160.72277967 386.15510786 160.74671555 387.93717575 C160.77831632 390.4318276 160.77841248 392.92463436 160.77099609 395.41943359 C160.78740143 396.1541539 160.80380676 396.88887421 160.82070923 397.64585876 C160.77839085 401.12598182 160.22191407 403.31556579 158.47428894 406.33377075 C153.23382559 409.58831105 148.06290638 409.05358418 142.01538086 408.99023438 C140.66153773 408.99373727 139.30769872 408.99939776 137.95387268 409.00704956 C134.28432156 409.0212822 130.61552113 409.00425273 126.94604182 408.98076439 C123.10421339 408.96064089 119.26241567 408.96653565 115.42054749 408.96887207 C108.97026198 408.96881852 102.52026962 408.94907373 96.07006836 408.91699219 C88.61331743 408.88008459 81.15695026 408.87131896 73.70011991 408.8782897 C66.52450501 408.88459484 59.34902166 408.87384127 52.1734333 408.85432434 C49.12048022 408.84615089 46.06759438 408.84344068 43.01463127 408.84501648 C39.42022156 408.84589544 35.82617652 408.83167667 32.23186302 408.80578995 C30.28370348 408.79521224 28.33548164 408.79930044 26.38729858 408.80380249 C25.22787247 408.7924527 24.06844635 408.78110291 22.87388611 408.76940918 C21.86640792 408.76568047 20.85892973 408.76195175 19.8209219 408.75811005 C16.7533046 408.31183328 15.3946932 407.52497838 13.1875 405.375 C11.99158214 401.78724643 12.02426792 398.50536865 12.01049805 394.77001953 C12.00392685 393.99732727 11.99735565 393.22463501 11.99058533 392.42852783 C11.97087514 389.87162172 11.959196 387.31477423 11.94921875 384.7578125 C11.94514322 383.88419949 11.9410677 383.01058647 11.93686867 382.11050034 C11.91601954 377.48822008 11.90171175 372.86596943 11.89233398 368.24365234 C11.88126052 363.46966996 11.84684672 358.69615252 11.80716228 353.92233467 C11.78102361 350.25059134 11.7726447 346.57895939 11.76905251 342.9071312 C11.7641809 341.14726489 11.75255057 339.38740375 11.73401451 337.62762833 C11.70967666 335.16429941 11.71057764 332.70218176 11.7175293 330.23876953 C11.70471924 329.51339996 11.69190918 328.7880304 11.67871094 328.04067993 C11.72833507 323.21198895 12.75918828 320.76304736 16.1875 317.375 C18.484037 316.2267315 19.77063167 316.25938825 22.3203125 316.27734375 C23.12597656 316.28056641 23.93164062 316.28378906 24.76171875 316.28710938 C25.60347656 316.29548828 26.44523437 316.30386719 27.3125 316.3125 C28.16199219 316.31701172 29.01148437 316.32152344 29.88671875 316.32617188 C31.98700909 316.33797126 34.0872633 316.35590694 36.1875 316.375 C34.25717687 311.26626948 32.31917208 308.01342487 28.36328125 304.125 C27.66563911 303.43229004 27.66563911 303.43229004 26.9539032 302.72558594 C25.47844428 301.26571953 23.989433 299.82059052 22.5 298.375 C21.52061469 297.40712924 20.54209199 296.4383848 19.56445312 295.46875 C14.88740093 290.85165623 10.11802288 286.39216389 5.13354492 282.109375 C0.5058893 277.98506619 -3.75753338 273.46503431 -8.1015625 269.046875 C-12.1778661 264.92854765 -16.32719664 261.00359977 -20.71826172 257.22460938 C-24.91993692 253.51373372 -28.88977321 249.56517901 -32.875 245.625 C-33.73416016 244.79484375 -34.59332031 243.9646875 -35.47851562 243.109375 C-48.4777921 230.23919753 -55.87602713 215.24121028 -56.24996948 196.88931274 C-56.2985957 176.4085937 -53.64785103 156.32613247 -51.07113647 136.038517 C-50.02937209 127.78742773 -49.02859613 119.53118988 -48.02519989 111.27536201 C-47.77424351 109.21077281 -47.52272368 107.14625202 -47.27063751 105.08180046 C-45.63733717 91.68702502 -44.12502385 78.2894022 -42.8515625 64.85546875 C-42.78199215 64.12238998 -42.7124218 63.38931122 -42.64074326 62.63401794 C-41.9469749 55.28486113 -41.28893123 47.93291586 -40.65185547 40.57861328 C-40.54618256 39.39962967 -40.44050964 38.22064606 -40.33163452 37.00593567 C-40.1404798 34.86684971 -39.9577559 32.72698119 -39.7862854 30.58622742 C-38.78309155 19.42023076 -36.47003276 10.92338266 -27.8125 3.375 C-19.46807878 -1.9998763 -9.37544439 -3.8889537 0 0 Z M-19.8125 19.375 C-21.57840513 22.95245879 -22.16862956 26.19037378 -22.5234375 30.14306641 C-22.63152237 31.29937561 -22.73960724 32.45568481 -22.85096741 33.64703369 C-23.01755104 35.54265045 -23.01755104 35.54265045 -23.1875 37.4765625 C-23.31335706 38.83421316 -23.44016893 40.19177559 -23.56785583 41.54925537 C-23.84333733 44.48508664 -24.11542358 47.42120129 -24.38473511 50.35760498 C-26.45051668 72.83323424 -28.71984243 95.2720283 -31.49609375 117.671875 C-31.610172 118.59577908 -31.72425026 119.51968315 -31.84178543 120.47158432 C-32.85497273 128.67089282 -33.8736717 136.86943699 -34.93774414 145.06231689 C-42.31900075 184.32307997 -42.31900075 184.32307997 -31.74609375 220.50732422 C-27.91794217 225.37768239 -23.71356809 229.74663524 -19.31640625 234.1015625 C-18.12784279 235.28943863 -18.12784279 235.28943863 -16.91526794 236.50131226 C-15.25114338 238.16243648 -13.5846101 239.82115085 -11.91577148 241.47753906 C-9.3801197 243.99491719 -6.85257896 246.52022251 -4.32617188 249.046875 C-2.69838753 250.66974326 -1.07014749 252.29215459 0.55859375 253.9140625 C1.677714 255.03151352 1.677714 255.03151352 2.81944275 256.17153931 C6.9007334 260.21654354 11.07767622 264.0835856 15.42829895 267.83694458 C17.61035657 269.74470012 19.66370703 271.75373796 21.6953125 273.8203125 C22.45457031 274.58730469 23.21382812 275.35429687 23.99609375 276.14453125 C24.76050781 276.92183594 25.52492188 277.69914062 26.3125 278.5 C32.15934695 284.53002487 32.15934695 284.53002487 38.4453125 290.0859375 C41.31093817 292.47804098 43.58217096 294.98363055 45.9375 297.875 C46.69546875 298.7928125 47.4534375 299.710625 48.234375 300.65625 C52.10972166 306.05073255 52.32126644 309.4451315 53.1875 316.375 C76.2875 316.375 99.3875 316.375 123.1875 316.375 C123.27 305.69125 123.3525 295.0075 123.4375 284 C123.47391602 280.64537598 123.51033203 277.29075195 123.54785156 273.83447266 C123.55954246 271.15267577 123.56973333 268.47087174 123.578125 265.7890625 C123.59380524 264.76345718 123.59380524 264.76345718 123.60980225 263.71713257 C123.79841154 250.71352756 121.04066276 242.12131384 113.1875 231.8125 C112.02121574 230.24026513 110.85587275 228.66733165 109.69140625 227.09375 C109.10504395 226.30742187 108.51868164 225.52109375 107.91455078 224.7109375 C105.25913843 221.11933651 102.69031041 217.46873616 100.125 213.8125 C99.13285694 212.40361454 98.14066945 210.99476036 97.1484375 209.5859375 C95.66803571 207.48097596 94.18802171 205.3757421 92.70800781 203.27050781 C86.02342871 193.76580305 79.28020034 184.30703776 72.4609375 174.8984375 C70.31058618 171.93133553 68.17019684 168.95749496 66.0390625 165.9765625 C55.44037348 151.17480371 44.38376936 136.72847018 33.1875 122.375 C30.15426659 123.02567962 30.15426659 123.02567962 29.18847656 125.02978516 C28.25426421 127.34728924 27.33056689 129.66626553 26.4375 132 C26.10878906 132.79535156 25.78007813 133.59070313 25.44140625 134.41015625 C25.13589844 135.19519531 24.83039063 135.98023438 24.515625 136.7890625 C24.2362207 137.5001416 23.95681641 138.2112207 23.66894531 138.94384766 C22.31442679 145.78375407 25.32097054 151.28924227 28.38671875 157.15625 C28.81391205 157.99522324 29.24110535 158.83419647 29.6812439 159.69859314 C30.59682309 161.49608035 31.51652479 163.29147262 32.43997192 165.08493042 C34.86265138 169.79525237 37.24898069 174.52383198 39.6328125 179.25390625 C40.10938797 180.19895523 40.58596344 181.14400421 41.07698059 182.11769104 C45.33352326 190.59459895 49.36381864 199.16029331 53.25 207.8125 C53.67096451 208.74352539 53.67096451 208.74352539 54.10043335 209.69335938 C64.42838273 232.58421395 64.42838273 232.58421395 63.1875 238.375 C61.125 241.3125 61.125 241.3125 58.1875 243.375 C54.5625 243.4375 54.5625 243.4375 51.1875 242.375 C48.93136167 239.83063861 47.59477693 237.29450029 46.375 234.140625 C46.03162598 233.27695312 45.68825195 232.41328125 45.33447266 231.5234375 C44.95597168 230.56695312 44.5774707 229.61046875 44.1875 228.625 C39.46892925 217.0123067 34.20066475 205.6898165 28.8125 194.375 C28.40115814 193.50842773 27.98981628 192.64185547 27.56600952 191.74902344 C23.59784896 183.39709324 19.60225995 175.0727376 15.29296875 166.890625 C14.72819824 165.81039062 14.16342773 164.73015625 13.58154297 163.6171875 C12.57311188 161.70929441 11.54416477 159.81200793 10.48876953 157.9296875 C6.81606614 150.9925071 5.53920618 143.93791174 7.81713867 136.25 C8.34012261 135.0216599 8.89307873 133.80563017 9.47583008 132.60449219 C15.10867603 120.98703417 12.58027676 109.8636791 10.54730225 97.59521484 C9.85436234 93.31932304 9.22439556 89.0337242 8.58203125 84.75 C7.26573865 76.02303705 5.89623784 67.30550602 4.49685669 58.59150696 C3.67323911 53.45468432 2.86887141 48.31583963 2.09655762 43.17105103 C1.77302556 41.02424536 1.44250308 38.87865793 1.10888672 36.73339844 C0.71436906 34.19291985 0.33115663 31.65064945 -0.03857422 29.10644531 C-0.21533691 27.9975293 -0.39209961 26.88861328 -0.57421875 25.74609375 C-0.71819092 24.79661865 -0.86216309 23.84714355 -1.01049805 22.86889648 C-1.99446014 19.80917875 -3.37680518 18.42909199 -5.8125 16.375 C-11.25198559 13.65525721 -15.4537654 15.70970045 -19.8125 19.375 Z " fill="#4B6274" transform="translate(86.8125,103.625)"/>
<path d="M0 0 C12.81258873 9.16687265 21.249933 22.55948418 24.47265625 38 C26.42034398 53.48213001 24.01024537 69.09549896 14.85546875 82.04296875 C10.51580256 87.34101871 5.71904991 92.22818606 0.85546875 97.04296875 C2.03109375 97.20796875 3.20671875 97.37296875 4.41796875 97.54296875 C15.74424203 100.07976813 26.39702837 107.33638973 34.85546875 115.04296875 C35.83257812 115.92726563 36.8096875 116.8115625 37.81640625 117.72265625 C55.98933838 134.72749245 65.8444851 157.91973415 66.97793579 182.72290039 C67.15649421 188.80857704 67.18385722 194.89250934 67.17114258 200.98046875 C67.1679399 204.19694649 67.19167663 207.41253877 67.21679688 210.62890625 C67.21906638 212.68619677 67.21977499 214.74348974 67.21875 216.80078125 C67.22795975 217.75598663 67.23716949 218.71119202 67.24665833 219.69534302 C67.21242546 224.59869532 67.13720019 228.10569108 63.85546875 232.04296875 C60.8424602 233.54947302 57.73385145 233.19097365 54.42874146 233.19013977 C53.65397992 233.19381646 52.87921839 233.19749315 52.08097923 233.20128125 C49.47080897 233.21234206 46.86067849 233.21616595 44.25048828 233.2199707 C42.38478467 233.22623345 40.51908232 233.23288008 38.65338135 233.23988342 C33.57488512 233.25730851 28.49639831 233.26784888 23.41787958 233.27608895 C20.24754706 233.28123496 17.07721749 233.28731081 13.90688705 233.29360008 C3.99490064 233.31265471 -5.9170783 233.32688636 -15.82907951 233.33521205 C-27.28466927 233.34499232 -38.74006621 233.37133134 -50.19558799 233.41171294 C-59.04147919 233.4418295 -67.88731497 233.4566766 -76.73325646 233.45999306 C-82.02076329 233.46234828 -87.30806419 233.47137007 -92.5955162 233.49645424 C-97.567916 233.5196626 -102.5399732 233.52399746 -107.51241302 233.51369286 C-109.3393861 233.51319565 -111.16637564 233.51957027 -112.99329758 233.5332489 C-115.48389233 233.55085625 -117.97324262 233.54391767 -120.46383667 233.53071594 C-121.55323353 233.54716981 -121.55323353 233.54716981 -122.6646384 233.56395608 C-126.08894437 233.52000655 -127.83558459 233.2864775 -130.56207466 231.13748455 C-132.87361174 228.07796876 -133.2719429 226.40684308 -133.28979492 222.63183594 C-133.29617477 221.71617859 -133.30255463 220.80052124 -133.30912781 219.8571167 C-133.31024063 218.86141663 -133.31135345 217.86571655 -133.3125 216.83984375 C-133.3158284 215.81046692 -133.3191568 214.78109009 -133.32258606 213.72052002 C-133.32766013 211.531458 -133.32999424 209.34238821 -133.32983398 207.15332031 C-133.33199515 203.84817129 -133.35007471 200.54337003 -133.36914062 197.23828125 C-133.40818592 183.19780502 -133.22745677 169.58667132 -128.58203125 156.16796875 C-128.19567505 155.04334229 -128.19567505 155.04334229 -127.80151367 153.89599609 C-122.83760804 140.12104932 -115.4414318 129.32405225 -105.14453125 119.04296875 C-104.27248047 118.06457031 -104.27248047 118.06457031 -103.3828125 117.06640625 C-95.01167087 107.83073866 -79.71644473 98.06231309 -67.14453125 97.04296875 C-67.78390625 96.42421875 -68.42328125 95.80546875 -69.08203125 95.16796875 C-70.1046068 94.12801231 -71.12512254 93.08602964 -72.14453125 92.04296875 C-72.83417969 91.36105469 -73.52382812 90.67914063 -74.234375 89.9765625 C-85.31801919 78.4760975 -91.11490693 64.45279721 -91.51953125 48.54296875 C-91.12050866 32.85340039 -85.43687875 18.53635047 -74.45703125 7.22265625 C-53.83927447 -12.21097261 -24.1516426 -14.96317091 0 0 Z M-92.63452148 130.26318359 C-106.95048005 144.58137589 -115.99534675 163.87716211 -116.25805664 184.25585938 C-116.25790129 185.7369886 -116.25243234 187.21812494 -116.2421875 188.69921875 C-116.24077255 189.48695679 -116.2393576 190.27469482 -116.23789978 191.08630371 C-116.23235737 193.57189939 -116.2198161 196.05740086 -116.20703125 198.54296875 C-116.20200879 200.2408841 -116.1974472 201.93880089 -116.19335938 203.63671875 C-116.18326299 207.77219983 -116.16367703 211.90748036 -116.14453125 216.04296875 C-109.21453125 216.04296875 -102.28453125 216.04296875 -95.14453125 216.04296875 C-95.09554687 213.0575 -95.0465625 210.07203125 -94.99609375 206.99609375 C-94.94207814 204.10346479 -94.8847729 201.21091842 -94.82714844 198.31835938 C-94.78887456 196.30865637 -94.75401889 194.29888524 -94.72265625 192.2890625 C-94.67697134 189.39949195 -94.61898238 186.51038979 -94.55859375 183.62109375 C-94.54126694 182.27401337 -94.54126694 182.27401337 -94.52359009 180.89971924 C-94.5037204 180.05914978 -94.48385071 179.21858032 -94.46337891 178.35253906 C-94.45005524 177.61529602 -94.43673157 176.87805298 -94.42300415 176.11846924 C-94.10096889 173.71829192 -93.4120169 172.09966207 -92.14453125 170.04296875 C-89.05279373 168.49709999 -86.55023573 168.74937354 -83.14453125 169.04296875 C-72.00401461 180.18348539 -78.51082918 200.29215772 -78.14453125 216.04296875 C-48.44453125 216.04296875 -18.74453125 216.04296875 11.85546875 216.04296875 C12.18546875 201.85296875 12.51546875 187.66296875 12.85546875 173.04296875 C16.85546875 169.04296875 16.85546875 169.04296875 20.41796875 168.60546875 C23.85546875 169.04296875 23.85546875 169.04296875 25.73046875 170.41796875 C27.61096272 173.13423782 27.99244245 174.86428531 28.06079102 178.12548828 C28.08073624 178.9662088 28.10068146 179.80692932 28.12123108 180.67312622 C28.14629982 182.03569046 28.14629982 182.03569046 28.171875 183.42578125 C28.1926561 184.35518524 28.21343719 185.28458923 28.23484802 186.24215698 C28.30034521 189.21735085 28.35922927 192.19263452 28.41796875 195.16796875 C28.46115381 197.18230103 28.50476809 199.19662416 28.54882812 201.2109375 C28.65683626 206.15485713 28.75590837 211.09884282 28.85546875 216.04296875 C35.78546875 216.04296875 42.71546875 216.04296875 49.85546875 216.04296875 C49.90182881 211.29621341 49.94151466 206.55026968 49.96533203 201.8034668 C49.97527943 200.1947155 49.98884218 198.58598173 50.00634766 196.97729492 C50.27630495 171.49809017 45.16247892 150.18625667 27.28125 131.34765625 C17.58900514 122.13924326 5.90058972 114.49965799 -7.38427734 111.95483398 C-8.277789 111.78193344 -9.17130066 111.6090329 -10.09188843 111.43089294 C-11.10794662 111.23887047 -11.10794662 111.23887047 -12.14453125 111.04296875 C-12.04208603 111.76658096 -11.93964081 112.49019318 -11.83409119 113.23573303 C-10.86755019 120.075227 -9.91036258 126.91597266 -8.96350765 133.75821781 C-8.47646331 137.27534301 -7.9858917 140.79189861 -7.48706055 144.30737305 C-6.91294981 148.3545127 -6.35454447 152.40368685 -5.796875 156.453125 C-5.52664772 158.33476097 -5.52664772 158.33476097 -5.2509613 160.25440979 C-3.38267953 174.02032884 -3.38267953 174.02032884 -6.30859375 179.04003906 C-6.79070312 179.56178711 -7.2728125 180.08353516 -7.76953125 180.62109375 C-8.30723145 181.21962158 -8.84493164 181.81814941 -9.39892578 182.43481445 C-9.97497559 183.04800537 -10.55102539 183.66119629 -11.14453125 184.29296875 C-12.33081445 185.6029116 -13.51570154 186.91412008 -14.69921875 188.2265625 C-15.28413086 188.86835449 -15.86904297 189.51014648 -16.47167969 190.17138672 C-19.57921715 193.64809165 -22.44477478 197.31440823 -25.33984375 200.96875 C-27.72334305 203.70822647 -29.38761082 204.94424 -33.01953125 205.41796875 C-38.72479688 204.73333687 -41.85622255 200.42077347 -45.26953125 196.10546875 C-47.82571466 192.89087446 -50.39189711 189.73486213 -53.13671875 186.6796875 C-53.63671387 186.11564209 -54.13670898 185.55159668 -54.65185547 184.97045898 C-55.62406325 183.87787807 -56.60703466 182.79475109 -57.60205078 181.72290039 C-60.90623589 177.96922703 -62.04833918 174.93635661 -62.14453125 170.04296875 C-61.78399339 165.48540042 -61.141931 160.9773934 -60.4921875 156.453125 C-60.22371254 154.50363197 -60.22371254 154.50363197 -59.94981384 152.51475525 C-59.47659364 149.07933126 -58.99189424 145.64562442 -58.50469971 142.2121582 C-58.00849306 138.7003541 -57.52327954 135.18703314 -57.03710938 131.67382812 C-56.08360576 124.79536014 -55.11795348 117.91864541 -54.14453125 111.04296875 C-67.84516338 111.04296875 -83.01980115 121.13828348 -92.63452148 130.26318359 Z " fill="#4A6274" transform="translate(289.14453125,8.95703125)"/>
<path d="M0 0 C37.62 0 75.24 0 114 0 C114 19.47 114 38.94 114 59 C76.38 59 38.76 59 0 59 C0 39.53 0 20.06 0 0 Z " fill="#5DB1FB" transform="translate(282,437)"/>
<path d="M0 0 C37.62 0 75.24 0 114 0 C114 19.47 114 38.94 114 59 C76.38 59 38.76 59 0 59 C0 39.53 0 20.06 0 0 Z " fill="#5DB1FB" transform="translate(116,437)"/>
<path d="M0 0 C5.79962998 3.93505466 9.55854832 8.95018581 13 15 C13.62455078 16.05574219 13.62455078 16.05574219 14.26171875 17.1328125 C18.7453272 26.16295725 18.49324557 37.94773033 16.1171875 47.578125 C11.69346313 59.00363828 4.47038331 67.11358883 -6.65625 72.21875 C-18.11052065 76.93521439 -28.13058007 77.29281799 -40.015625 73.26953125 C-44.28302513 71.45421051 -47.59232206 69.11419371 -51 66 C-52.299375 64.8553125 -52.299375 64.8553125 -53.625 63.6875 C-63.6190672 52.37842395 -66.10143224 41.85082521 -65.21142578 27.05566406 C-64.74670931 22.53728915 -63.25438645 18.89586159 -61 15 C-60.5875 14.23558594 -60.175 13.47117187 -59.75 12.68359375 C-54.12976661 3.24734963 -45.70186036 -2.56233468 -35.44140625 -6.16015625 C-22.71572504 -9.26574247 -11.06769053 -6.52106152 0 0 Z " fill="#5DB1FB" transform="translate(280,23)"/>
<path d="M0 0 C3.3 0 6.6 0 10 0 C10.24479167 1.77473958 10.48958333 3.54947917 10.734375 5.32421875 C10.89462158 6.4851001 11.05486816 7.64598145 11.2199707 8.84204102 C11.57626604 11.42702854 11.93155588 14.01215484 12.28588867 16.59741211 C13.13740248 22.80442118 13.99609118 29.00994618 14.89657593 35.21006775 C15.18698813 37.21173557 15.47432891 39.21382088 15.76074219 41.21606445 C16.12375819 43.74673573 16.49273618 46.27656017 16.86816406 48.80541992 C17.03155273 49.95373291 17.19494141 51.1020459 17.36328125 52.28515625 C17.51063721 53.29457275 17.65799316 54.30398926 17.80981445 55.34399414 C18.05076707 58.70897935 17.78629972 60.8467832 15.87670898 63.64746094 C15.42110596 64.17114258 14.96550293 64.69482422 14.49609375 65.234375 C14.00302734 65.80800781 13.50996094 66.38164062 13.00195312 66.97265625 C12.48568359 67.55917969 11.96941406 68.14570313 11.4375 68.75 C10.91736328 69.35199219 10.39722656 69.95398438 9.86132812 70.57421875 C8.58043726 72.05488159 7.29103688 73.52817542 6 75 C0.34961452 72.56701049 -4.16385332 68.57550866 -7.21191406 63.24609375 C-9.82183139 55.80766765 -7.02132288 46.57941873 -5.58886719 39.08544922 C-4.90677387 35.51152907 -4.34297293 31.92794679 -3.79492188 28.33154297 C-3.44439524 26.04497917 -3.07101521 23.76301182 -2.6953125 21.48046875 C-1.55363196 14.35204192 -0.78092515 7.175324 0 0 Z " fill="#5DB0F9" transform="translate(251,118)"/>
</svg>
