<?xml version="1.0" encoding="UTF-8"?>
<svg version="1.1" xmlns="http://www.w3.org/2000/svg" width="300" height="199">
<path d="M0 0 C2.52363285 1.98313213 4.97558525 4.02590285 7.41015625 6.1171875 C8.19519531 6.77976562 8.98023438 7.44234375 9.7890625 8.125 C16.42781963 13.85387671 22.01848806 20.21585221 27.41015625 27.1171875 C31.03101208 25.91023556 31.75711305 24.68426711 34.03515625 21.6796875 C45.9186243 6.47838987 59.91034671 -7.57996197 79.41015625 -11.8828125 C82.86136326 -12.28649515 86.25029014 -12.36130056 89.72265625 -12.3203125 C90.63909912 -12.31201416 91.55554199 -12.30371582 92.49975586 -12.29516602 C111.10740837 -11.83428013 124.66473412 -2.59273206 137.41015625 10.1171875 C138.19132812 10.87515625 138.9725 11.633125 139.77734375 12.4140625 C164.91022471 38.35191118 174.55862713 78.46782156 174.65039062 113.49853516 C174.66004601 115.7168604 174.69113086 117.93423667 174.72265625 120.15234375 C174.86640775 139.50872519 170.80996862 159.69839749 157.3125 174.40234375 C145.20200184 185.829357 132.06905704 187.71212205 116.0390625 187.42578125 C104.70681577 186.97592596 96.53256166 182.56145554 87.41015625 176.1171875 C86.60835937 175.56289062 85.8065625 175.00859375 84.98046875 174.4375 C79.55715781 170.55819217 79.55715781 170.55819217 78.41015625 167.1171875 C77.75015625 166.7871875 77.09015625 166.4571875 76.41015625 166.1171875 C76.41015625 165.4571875 76.41015625 164.7971875 76.41015625 164.1171875 C75.75015625 163.7871875 75.09015625 163.4571875 74.41015625 163.1171875 C71.41015625 159.54026442 71.41015625 159.54026442 71.41015625 157.1171875 C70.42015625 156.7871875 69.43015625 156.4571875 68.41015625 156.1171875 C67.4762734 154.56071608 66.55645846 152.99449392 65.69921875 151.39453125 C64.12980038 148.62189213 62.37757235 146.0095726 60.59765625 143.3671875 C57.84044291 139.25981903 55.09743437 135.14574922 52.41015625 130.9921875 C51.83265625 130.10273438 51.25515625 129.21328125 50.66015625 128.296875 C49.41015625 126.1171875 49.41015625 126.1171875 49.41015625 124.1171875 C48.75015625 123.7871875 48.09015625 123.4571875 47.41015625 123.1171875 C46.30912016 121.34012666 45.27612321 119.52039665 44.28515625 117.6796875 C43.74632812 116.69097656 43.2075 115.70226562 42.65234375 114.68359375 C41.41015625 112.1171875 41.41015625 112.1171875 41.41015625 110.1171875 C40.75015625 110.1171875 40.09015625 110.1171875 39.41015625 110.1171875 C39.02537109 109.29541016 39.02537109 109.29541016 38.6328125 108.45703125 C35.91637306 102.83208089 32.91265247 97.4209344 29.72265625 92.0546875 C29.33021729 91.38751709 28.93777832 90.72034668 28.53344727 90.03295898 C26.56122796 86.48891866 26.56122796 86.48891866 23.41015625 84.1171875 C23.14243408 84.82625244 22.87471191 85.53531738 22.59887695 86.26586914 C21.36799864 89.21830862 19.94195055 91.94131812 18.390625 94.73828125 C17.78718262 95.82753906 17.18374023 96.91679688 16.56201172 98.0390625 C15.90767625 99.21118865 15.25287996 100.38305765 14.59765625 101.5546875 C14.26413147 102.1523291 13.93060669 102.7499707 13.5869751 103.36572266 C-26.97056181 175.98588172 -26.97056181 175.98588172 -55.69140625 186.22265625 C-70.4014723 189.59801209 -87.3119504 188.31781627 -100.33984375 180.4921875 C-114.50235073 170.0321275 -121.83927942 154.37152912 -125.10668945 137.4387207 C-126.06819396 130.82868088 -125.83242646 124.09972671 -125.83984375 117.4296875 C-125.8415155 116.64295654 -125.84318726 115.85622559 -125.84490967 115.0456543 C-125.84643179 103.11828985 -125.07645119 91.80795383 -122.58984375 80.1171875 C-122.27394162 78.0968832 -121.9609798 76.07611457 -121.65234375 74.0546875 C-120.65275525 68.74792905 -118.71180672 64.06149992 -116.58984375 59.1171875 C-115.88141925 57.32211185 -115.17325145 55.52692897 -114.47021484 53.72973633 C-111.45747551 46.05182758 -108.13284912 38.56754987 -104.58984375 31.1171875 C-103.92984375 31.1171875 -103.26984375 31.1171875 -102.58984375 31.1171875 C-102.33976562 30.40691406 -102.0896875 29.69664063 -101.83203125 28.96484375 C-94.22548187 11.52718809 -75.98983986 -3.03531406 -58.71484375 -9.9453125 C-38.52588175 -16.02734289 -16.9424457 -12.31713247 0 0 Z M58.82421875 29.34765625 C55.86247095 32.74551902 53.10743764 36.25721626 50.41015625 39.8671875 C49.92885254 40.50519287 49.44754883 41.14319824 48.95166016 41.80053711 C45.37149095 46.50712971 45.37149095 46.50712971 44.41015625 52.1171875 C45.90499385 55.15486967 47.84053487 57.85279659 49.78515625 60.6171875 C55.08126967 68.4294312 60.0018073 76.39683037 64.71298218 84.56985474 C72.02910183 97.26066622 79.73204662 109.62323889 87.87255859 121.80712891 C89.19935446 123.80048274 90.50810702 125.80333914 91.8046875 127.81640625 C102.27235001 144.16495752 102.27235001 144.16495752 118.41015625 154.1171875 C125.7152813 154.85336289 131.21796803 153.6412433 137.09765625 148.9921875 C147.79696531 135.6903438 145.62289865 117.09958582 144.6472168 101.10986328 C144.51570333 99.04626432 144.51570333 99.04626432 143.41015625 97.1171875 C143.27694877 95.59862223 143.17899651 94.07691235 143.09765625 92.5546875 C140.88262036 66.84684672 129.78880653 39.01082838 110.03125 22.02734375 C91.85356421 8.78011819 73.49842407 14.12900161 58.82421875 29.34765625 Z M-67.52734375 36.3671875 C-86.85704794 61.83146847 -95.8793711 98.35134648 -92.12890625 130.0078125 C-90.54085071 138.63936143 -87.84049493 146.39937995 -80.40234375 151.6171875 C-74.49648187 154.7669805 -68.54064329 155.27518047 -62.09765625 153.38671875 C-42.78544905 144.84122132 -31.41010644 121.10000595 -20.58984375 104.1171875 C-18.65287849 101.08660731 -16.71467744 98.05681972 -14.77636719 95.02709961 C-13.40678175 92.88627083 -12.03763796 90.74515944 -10.66894531 88.60375977 C-4.36106638 78.74109363 2.01083923 68.92071501 8.41015625 59.1171875 C5.87021038 54.47701303 3.21118129 50.35126547 -0.15234375 46.2421875 C-0.91675781 45.29601562 -1.68117188 44.34984375 -2.46875 43.375 C-4.46089493 40.89633261 -4.46089493 40.89633261 -7.58984375 40.1171875 C-8.05390625 39.158125 -8.05390625 39.158125 -8.52734375 38.1796875 C-9.41465566 35.95881546 -9.41465566 35.95881546 -11.58984375 35.1171875 C-13.58984375 34.1171875 -13.58984375 34.1171875 -14.46484375 32.2421875 C-17.39530447 26.7068728 -24.99063905 24.30045948 -30.58984375 22.1171875 C-45.23526846 17.83072173 -58.12352964 25.5716089 -67.52734375 36.3671875 Z " fill="#0176EF" transform="translate(125.58984375,11.8828125)"/>
<path d="M0 0 C0.66 0.66 1.32 1.32 2 2 C-17.71724399 28.26221642 -17.71724399 28.26221642 -26.9375 30.8125 C-27.618125 30.874375 -28.29875 30.93625 -29 31 C-29 30.34 -29 29.68 -29 29 C-28.19949219 28.63261719 -28.19949219 28.63261719 -27.3828125 28.2578125 C-15.04289784 22.06650584 -7.54044114 11.1341833 0 0 Z " fill="#0081F9" transform="translate(91,136)"/>
<path d="M0 0 C0.33 0.99 0.66 1.98 1 3 C0.38125 3.0825 -0.2375 3.165 -0.875 3.25 C-3.14204641 3.77067982 -3.14204641 3.77067982 -3.85546875 5.75390625 C-5.30144038 8.59156389 -7.18153348 10.44635099 -9.4375 12.6875 C-10.21996094 13.47511719 -11.00242187 14.26273438 -11.80859375 15.07421875 C-14 17 -14 17 -17 18 C-15.34460834 13.74327859 -12.26236271 11.00257093 -9.0625 7.875 C-8.52431641 7.33746094 -7.98613281 6.79992187 -7.43164062 6.24609375 C-5.05290666 3.89375758 -2.79133165 1.86088777 0 0 Z " fill="#0068E6" transform="translate(49,12)"/>
<path d="M0 0 C0.66 0.33 1.32 0.66 2 1 C1.22914063 2.04800781 0.45828125 3.09601562 -0.3359375 4.17578125 C-1.34899285 5.55466214 -2.36201178 6.93356979 -3.375 8.3125 C-3.88289062 9.00279297 -4.39078125 9.69308594 -4.9140625 10.40429688 C-5.64882812 11.40493164 -5.64882812 11.40493164 -6.3984375 12.42578125 C-6.84880371 13.03848877 -7.29916992 13.65119629 -7.76318359 14.2824707 C-8.87760643 15.83003577 -9.94215082 17.41322623 -11 19 C-11.66 19 -12.32 19 -13 19 C-11.52239021 14.65550599 -9.27984593 11.4452532 -6.5 7.8125 C-5.7059375 6.76707031 -4.911875 5.72164062 -4.09375 4.64453125 C-2 2 -2 2 0 0 Z " fill="#007EF8" transform="translate(181,43)"/>
<path d="M0 0 C0.33 0.99 0.66 1.98 1 3 C-0.39113995 4.27596932 -1.78814413 5.54554648 -3.1875 6.8125 C-3.96480469 7.52019531 -4.74210937 8.22789062 -5.54296875 8.95703125 C-7.96504664 10.97093703 -10.15817911 12.63574468 -13 14 C-15.3125 13.6875 -15.3125 13.6875 -17 13 C-16.27554687 12.56429687 -15.55109375 12.12859375 -14.8046875 11.6796875 C-9.19494208 8.22408432 -4.41805995 4.89568806 0 0 Z " fill="#0080F9" transform="translate(284,181)"/>
<path d="M0 0 C0 3 0 3 -2.046875 5.3046875 C-3.38492188 6.57699219 -3.38492188 6.57699219 -4.75 7.875 C-8.11374265 11.09121008 -11.16572735 14.30485014 -14 18 C-14.66 17.67 -15.32 17.34 -16 17 C-11.07037669 10.7178043 -6.2879759 4.95010869 0 0 Z " fill="#0082F9" transform="translate(176,16)"/>
<path d="M0 0 C0.33 0.66 0.66 1.32 1 2 C-6.11389522 10.81548975 -6.11389522 10.81548975 -11 12 C-7.49102731 7.81576108 -3.91939465 3.80411834 0 0 Z " fill="#0082F9" transform="translate(98,175)"/>
<path d="M0 0 C3.21524305 1.40844718 5.32183868 3.10344786 7.75 5.625 C8.67039062 6.57246094 8.67039062 6.57246094 9.609375 7.5390625 C10.29773438 8.26222656 10.29773438 8.26222656 11 9 C10.67 9.66 10.34 10.32 10 11 C8.70145279 9.92492371 7.41141639 8.83956264 6.125 7.75 C5.40570312 7.14671875 4.68640625 6.5434375 3.9453125 5.921875 C2.02947882 4.02912366 1.03550955 2.46342273 0 0 Z " fill="#0081F8" transform="translate(13,179)"/>
<path d="M0 0 C0.66 0.66 1.32 1.32 2 2 C0.23084525 2.98219627 -1.54038569 3.96065359 -3.3125 4.9375 C-4.29863281 5.48277344 -5.28476563 6.02804688 -6.30078125 6.58984375 C-9 8 -9 8 -12 9 C-11.67 8.01 -11.34 7.02 -11 6 C-10.01 6 -9.02 6 -8 6 C-8 5.34 -8 4.68 -8 4 C-5.36 2.68 -2.72 1.36 0 0 Z " fill="#0067E5" transform="translate(77,32)"/>
<path d="M0 0 C-3.6441774 2.4294516 -5.71241272 2.16179575 -10 2 C-10 1.34 -10 0.68 -10 0 C-6.33694766 -0.74926071 -3.57644848 -1.2380014 0 0 Z " fill="#007FF9" transform="translate(262,197)"/>
<path d="M0 0 C0.66 0 1.32 0 2 0 C2.33 2.97 2.66 5.94 3 9 C2.34 9 1.68 9 1 9 C0.67 6.03 0.34 3.06 0 0 Z " fill="#0080F9" transform="translate(267,93)"/>
<path d="M0 0 C0.66 0 1.32 0 2 0 C1.44271087 3.34373475 0.64826111 6.03312999 -1 9 C-1.99 8.67 -2.98 8.34 -4 8 C-3.34 6.68 -2.68 5.36 -2 4 C-1.34 4 -0.68 4 0 4 C0 2.68 0 1.36 0 0 Z " fill="#016AE6" transform="translate(47,62)"/>
<path d="M0 0 C0.66 0.66 1.32 1.32 2 2 C0.35 3.65 -1.3 5.3 -3 7 C-3.66 6.67 -4.32 6.34 -5 6 C-4.34 5.01 -3.68 4.02 -3 3 C-2.34 3 -1.68 3 -1 3 C-0.67 2.01 -0.34 1.02 0 0 Z " fill="#007EF8" transform="translate(264,158)"/>
<path d="M0 0 C2.31 1.98 4.62 3.96 7 6 C6.67 6.66 6.34 7.32 6 8 C1.125 4.5 1.125 4.5 0 0 Z " fill="#026AE7" transform="translate(143,29)"/>
</svg>
