<svg version="1.1" id="Capa_1" xmlns="http://www.w3.org/2000/svg" xmlns:xlink="http://www.w3.org/1999/xlink" x="0px" y="0px" viewBox="0 0 512 512" style="enable-background:new 0 0 512 512;" xml:space="preserve">
<g>
	<g>
		<g>
			<path style="fill:#B2AEE4;" d="M504.5,207.34c0,36.98-10.89,75.55-28.74,110.09C284.786,302.07,225.585,200.99,283.07,30.02&#10;&#9;&#9;&#9;&#9;c12.98-2.65,26.49-4.02,40.37-4.02C423.43,26,504.5,96.92,504.5,207.34z"/>
			<path style="fill:#A29CDE;" d="M475.76,317.43c-8.64,16.72-18.91,32.5-30.36,46.69c-2.9,3.59-4.52,8.04-4.52,12.66V486H255.56&#10;&#9;&#9;&#9;&#9;c-16.56,0-30-13.43-30-30v-23.92c0-5.52-4.47-10-10-10h-13.19c-33.13,0-60-26.86-60-60v-18.83l10-7.5l-10-7.5v-20.19&#10;&#9;&#9;&#9;&#9;c0-5.53-4.47-10-10-10h-6.98c-14.62,0-24.08-15.45-17.44-28.48l32.51-63.74c1.27-2.48,1.99-5.2,2.11-7.98&#10;&#9;&#9;&#9;&#9;c3.86-89.98,62.63-151.97,140.5-167.84C272.76,171.84,338.24,269.04,475.76,317.43z"/>
		</g>
		<g>
			<path style="fill:#8CE09F;" d="M219.5,37.5v63.98c0,14.39-10.12,26.41-23.64,29.31C128.576,113.615,91.475,75.963,116.71,7.5&#10;&#9;&#9;&#9;&#9;h72.79C206.07,7.5,219.5,20.93,219.5,37.5z"/>
			<path style="fill:#73DA8C;" d="M195.86,130.79c-2.05,0.46-4.18,0.69-6.36,0.69h-21.6c-3.87,0-7,3.14-7,7v18.62&#10;&#9;&#9;&#9;&#9;c0,8.94-10.84,13.39-17.12,7.02l-29.25-29.66c-1.88-1.9-4.44-2.98-7.12-2.98H37.5c-16.57,0-30-13.43-30-30V37.5&#10;&#9;&#9;&#9;&#9;c0-16.57,13.43-30,30-30h79.21C111.67,67.96,138.58,109.65,195.86,130.79z"/>
		</g>
		<g>
			<path style="fill:#A4E7FF;" d="M437.86,185.17l-12.8-2.56c-3.47-0.69-6.34-3.15-7.47-6.5c-1.3-3.82-2.84-7.54-4.61-11.11&#10;&#9;&#9;&#9;&#9;c-1.57-3.18-1.28-6.95,0.68-9.9l7.25-10.87c2.64-3.96,2.12-9.24-1.25-12.62l-14.88-14.87c-3.37-3.37-8.65-3.89-12.62-1.25&#10;&#9;&#9;&#9;&#9;l-10.87,7.25c-2.94,1.96-6.72,2.24-9.89,0.68c-3.58-1.77-7.29-3.31-11.11-4.61c-3.35-1.13-5.81-4.01-6.5-7.47l-2.56-12.81&#10;&#9;&#9;&#9;&#9;c-0.93-4.67-5.04-8.04-9.81-8.04h-21.03c-4.77,0-8.88,3.37-9.81,8.04l-2.56,12.81c-0.69,3.46-3.15,6.34-6.5,7.47&#10;&#9;&#9;&#9;&#9;c-3.82,1.3-7.53,2.84-11.11,4.61c-0.57,0.28-1.17,0.5-1.77,0.66C274.269,221.72,322.044,270.504,411,288.03l8.66-8.66&#10;&#9;&#9;&#9;&#9;c3.37-3.37,3.89-8.65,1.25-12.62l-7.25-10.87c-1.96-2.95-2.25-6.72-0.68-9.89c1.77-3.58,3.31-7.29,4.61-11.12&#10;&#9;&#9;&#9;&#9;c1.13-3.34,4-5.8,7.47-6.5l12.8-2.55c4.68-0.94,8.04-5.04,8.04-9.81v-21.04C445.9,190.2,442.54,186.1,437.86,185.17z"/>
			<path style="fill:#83DEFF;" d="M288.645,124.08c-2.74,0.74-5.71,0.27-8.12-1.34l-10.87-7.25c-3.97-2.64-9.25-2.12-12.62,1.25&#10;&#9;&#9;&#9;&#9;l-14.88,14.87c-3.37,3.38-3.89,8.66-1.25,12.62l7.25,10.87c1.96,2.95,2.25,6.72,0.68,9.9c-1.77,3.57-3.31,7.29-4.61,11.11&#10;&#9;&#9;&#9;&#9;c-1.13,3.35-4,5.81-7.47,6.5l-12.8,2.56c-4.68,0.93-8.05,5.03-8.05,9.8v21.04c0,4.77,3.37,8.87,8.05,9.81l12.8,2.55&#10;&#9;&#9;&#9;&#9;c3.47,0.7,6.34,3.16,7.47,6.5c1.3,3.83,2.84,7.54,4.61,11.12c1.57,3.17,1.28,6.94-0.68,9.89l-7.25,10.87&#10;&#9;&#9;&#9;&#9;c-2.64,3.97-2.12,9.25,1.25,12.62l14.88,14.87c3.37,3.38,8.65,3.9,12.62,1.25l10.87-7.24c2.94-1.97,6.72-2.25,9.89-0.68&#10;&#9;&#9;&#9;&#9;c3.58,1.76,7.29,3.3,11.11,4.6c3.35,1.14,5.81,4.01,6.5,7.48l2.56,12.8c0.93,4.68,5.04,8.04,9.81,8.04h21.03&#10;&#9;&#9;&#9;&#9;c4.77,0,8.88-3.36,9.81-8.04l2.56-12.8c0.69-3.47,3.15-6.34,6.5-7.48c3.82-1.3,7.53-2.84,11.11-4.6&#10;&#9;&#9;&#9;&#9;c3.17-1.57,6.95-1.29,9.89,0.68l10.87,7.24c3.97,2.65,9.25,2.13,12.62-1.25l6.22-6.21&#10;&#9;&#9;&#9;&#9;C344.815,249.73,303.775,194.8,288.645,124.08z"/>
			<path style="fill:#B2AEE4;" d="M383.18,205.49c0,18.59-9.7,34.91-24.32,44.18c-36.488-13.648-56.438-42.122-58.61-86.53&#10;&#9;&#9;&#9;&#9;c8.61-6.24,19.2-9.92,30.65-9.92C359.77,153.22,383.18,176.62,383.18,205.49z"/>
			<path style="fill:#A29CDE;" d="M358.86,249.67c-8.09,5.12-17.67,8.09-27.96,8.09c-28.86,0-52.27-23.4-52.27-52.27&#10;&#9;&#9;&#9;&#9;c0-17.42,8.52-32.85,21.62-42.35C313.07,196.2,332.64,225.08,358.86,249.67z"/>
		</g>
		<circle style="fill:#FF97C1;" cx="330.905" cy="27.5" r="20"/>
		<circle style="fill:#FFA1AC;" cx="203.187" cy="335.752" r="20"/>
		<g>
			<path style="fill:#FFAA75;" d="M504.5,410.52v63.98c0,12.12-7.19,22.56-17.54,27.28c-79.143-10.403-126.866-41.702-79.34-121.26&#10;&#9;&#9;&#9;&#9;h66.88C491.07,380.52,504.5,393.95,504.5,410.52z"/>
			<path style="fill:#FF9A5C;" d="M486.96,501.78c-3.8,1.75-8.02,2.72-12.46,2.72h-152c-16.57,0-30-13.43-30-30v-63.98&#10;&#9;&#9;&#9;&#9;c0-16.57,13.43-30,30-30h21.6c3.87,0,7-3.14,7-7V354.9c0-8.94,10.84-13.39,17.12-7.02l29.25,29.66c1.88,1.9,4.44,2.98,7.12,2.98&#10;&#9;&#9;&#9;&#9;h3.03C403.35,439.89,430.31,480.88,486.96,501.78z"/>
		</g>
	</g>
	<g>
		<path style="fill:none;stroke:#000000;stroke-width:15;stroke-linecap:round;stroke-linejoin:round;stroke-miterlimit:10;" d="&#10;&#9;&#9;&#9;M146.4,166.05c-2.06,10.16-3.36,20.77-3.83,31.81c-0.12,2.78-0.84,5.5-2.11,7.98l-32.51,63.74c-6.64,13.03,2.82,28.48,17.44,28.48&#10;&#9;&#9;&#9;h6.98c5.53,0,10,4.47,10,10v54.02c0,33.14,26.87,60,60,60h13.19c5.53,0,10,4.48,10,10V456c0,16.57,13.44,30,30,30h38.23"/>
		<path style="fill:none;stroke:#000000;stroke-width:15;stroke-linecap:round;stroke-linejoin:round;stroke-miterlimit:10;" d="&#10;&#9;&#9;&#9;M310.94,26.38c-33.89,2.03-65.22,12.34-91.44,29.63"/>
		<path style="fill:none;stroke:#000000;stroke-width:15;stroke-linecap:round;stroke-linejoin:round;stroke-miterlimit:10;" d="&#10;&#9;&#9;&#9;M466.02,91.22c24.11,30.14,38.48,69.63,38.48,116.12c0,54.88-24,113.28-59.1,156.78c-2.9,3.59-4.52,8.04-4.52,12.66v3.74"/>
		<path style="fill:none;stroke:#000000;stroke-width:15;stroke-linecap:round;stroke-linejoin:round;stroke-miterlimit:10;" d="&#10;&#9;&#9;&#9;M441.41,66.34c-25.12-20.57-56.24-33.89-90.52-38.52"/>
		<g>
			<path style="fill:none;stroke:#000000;stroke-width:15;stroke-linecap:round;stroke-linejoin:round;stroke-miterlimit:10;" d="&#10;&#9;&#9;&#9;&#9;M60.73,382.126c-11.375-12.13-18.343-28.438-18.343-46.374c0-17.936,6.968-34.245,18.343-46.374"/>
			<path style="fill:none;stroke:#000000;stroke-width:15;stroke-linecap:round;stroke-linejoin:round;stroke-miterlimit:10;" d="&#10;&#9;&#9;&#9;&#9;M82.387,361.825c-6.4-6.823-10.333-16.003-10.333-26.073c0-10.07,3.933-19.25,10.333-26.073"/>
		</g>
		
			<line style="fill:none;stroke:#000000;stroke-width:15;stroke-linecap:round;stroke-linejoin:round;stroke-miterlimit:10;" x1="330.9" y1="90.49" x2="330.9" y2="47.5"/>
		
			<line style="fill:none;stroke:#000000;stroke-width:15;stroke-linecap:round;stroke-linejoin:round;stroke-miterlimit:10;" x1="250.03" y1="287.24" x2="217.08" y2="321.37"/>
		
			<line style="fill:none;stroke:#000000;stroke-width:15;stroke-linecap:round;stroke-linejoin:round;stroke-miterlimit:10;" x1="183.19" y1="335.75" x2="143.7" y2="335.75"/>
		<g>
			<path style="fill:none;stroke:#000000;stroke-width:15;stroke-linecap:round;stroke-linejoin:round;stroke-miterlimit:10;" d="&#10;&#9;&#9;&#9;&#9;M445.905,216.011v-21.039c0-4.768-3.366-8.873-8.042-9.806l-12.804-2.557c-3.466-0.692-6.339-3.153-7.474-6.499&#10;&#9;&#9;&#9;&#9;c-1.298-3.824-2.839-7.535-4.606-11.114c-1.566-3.173-1.283-6.947,0.68-9.891l7.248-10.872c2.644-3.966,2.121-9.247-1.249-12.618&#10;&#9;&#9;&#9;&#9;l-14.876-14.876c-3.371-3.371-8.652-3.894-12.618-1.249l-10.871,7.248c-2.945,1.963-6.718,2.247-9.892,0.68&#10;&#9;&#9;&#9;&#9;c-3.579-1.767-7.29-3.308-11.114-4.606c-3.347-1.136-5.807-4.008-6.499-7.474l-2.557-12.804&#10;&#9;&#9;&#9;&#9;c-0.934-4.676-5.038-8.042-9.806-8.042h-21.039c-4.768,0-8.873,3.366-9.806,8.042l-2.557,12.804&#10;&#9;&#9;&#9;&#9;c-0.692,3.466-3.153,6.339-6.499,7.474c-3.824,1.298-7.535,2.839-11.114,4.606c-3.173,1.566-6.947,1.283-9.892-0.68&#10;&#9;&#9;&#9;&#9;l-10.871-7.248c-3.966-2.644-9.247-2.121-12.618,1.249l-14.876,14.876c-3.371,3.371-3.894,8.652-1.249,12.618l7.248,10.872&#10;&#9;&#9;&#9;&#9;c1.963,2.945,2.247,6.718,0.68,9.891c-1.767,3.579-3.308,7.29-4.606,11.114c-1.136,3.347-4.008,5.807-7.474,6.499l-12.804,2.557&#10;&#9;&#9;&#9;&#9;c-4.676,0.934-8.042,5.038-8.042,9.806v21.039c0,4.768,3.366,8.873,8.042,9.806l12.804,2.557&#10;&#9;&#9;&#9;&#9;c3.466,0.692,6.339,3.153,7.474,6.499c1.298,3.824,2.839,7.535,4.606,11.114c1.566,3.173,1.283,6.947-0.68,9.891l-7.248,10.871&#10;&#9;&#9;&#9;&#9;c-2.644,3.966-2.121,9.247,1.249,12.618l14.876,14.876c3.371,3.371,8.652,3.894,12.618,1.249l10.871-7.248&#10;&#9;&#9;&#9;&#9;c2.945-1.963,6.718-2.247,9.892-0.68c3.579,1.767,7.29,3.308,11.114,4.606c3.347,1.136,5.807,4.008,6.499,7.474l2.557,12.804&#10;&#9;&#9;&#9;&#9;c0.934,4.676,5.038,8.042,9.806,8.042h21.039c4.768,0,8.873-3.366,9.806-8.042l2.557-12.804c0.692-3.466,3.153-6.339,6.499-7.474&#10;&#9;&#9;&#9;&#9;c3.824-1.298,7.535-2.839,11.114-4.606c3.173-1.566,6.947-1.283,9.892,0.68l10.871,7.248c3.966,2.644,9.247,2.121,12.618-1.249&#10;&#9;&#9;&#9;&#9;l14.876-14.876c3.371-3.371,3.894-8.652,1.249-12.618l-7.248-10.871c-1.963-2.945-2.247-6.718-0.68-9.891&#10;&#9;&#9;&#9;&#9;c1.767-3.579,3.308-7.29,4.606-11.114c1.136-3.347,4.008-5.807,7.474-6.499l12.804-2.557&#10;&#9;&#9;&#9;&#9;C442.538,224.884,445.905,220.779,445.905,216.011z"/>
			<path style="fill:none;stroke:#000000;stroke-width:15;stroke-linecap:round;stroke-linejoin:round;stroke-miterlimit:10;" d="&#10;&#9;&#9;&#9;&#9;M372.04,237.74c6.98-8.88,11.14-20.08,11.14-32.25c0-28.87-23.41-52.27-52.28-52.27c-28.86,0-52.27,23.4-52.27,52.27&#10;&#9;&#9;&#9;&#9;s23.41,52.27,52.27,52.27c3.98,0,7.85-0.44,11.58-1.29"/>
		</g>
		
			<circle style="fill:none;stroke:#000000;stroke-width:15;stroke-linecap:round;stroke-linejoin:round;stroke-miterlimit:10;" cx="330.905" cy="27.5" r="20"/>
		
			<circle style="fill:none;stroke:#000000;stroke-width:15;stroke-linecap:round;stroke-linejoin:round;stroke-miterlimit:10;" cx="203.187" cy="335.752" r="20"/>
		<path style="fill:none;stroke:#000000;stroke-width:15;stroke-linecap:round;stroke-linejoin:round;stroke-miterlimit:10;" d="&#10;&#9;&#9;&#9;M189.5,7.5h-152c-16.569,0-30,13.431-30,30v63.984c0,16.569,13.431,30,30,30h69.911c2.676,0,5.241,1.073,7.121,2.979&#10;&#9;&#9;&#9;l29.245,29.659c6.279,6.368,17.121,1.922,17.121-7.021v-18.616c0-3.866,3.134-7,7-7H189.5c16.569,0,30-13.431,30-30V37.5&#10;&#9;&#9;&#9;C219.5,20.931,206.068,7.5,189.5,7.5z"/>
		<g>
			<path style="fill:none;stroke:#000000;stroke-width:15;stroke-linecap:round;stroke-linejoin:round;stroke-miterlimit:10;" d="&#10;&#9;&#9;&#9;&#9;M292.5,460.74v13.76c0,16.57,13.43,30,30,30h152c16.57,0,30-13.43,30-30v-63.98c0-16.57-13.43-30-30-30h-69.91&#10;&#9;&#9;&#9;&#9;c-2.68,0-5.24-1.08-7.12-2.98l-29.25-29.66c-6.28-6.37-17.12-1.92-17.12,7.02v18.62c0,3.86-3.13,7-7,7h-21.6&#10;&#9;&#9;&#9;&#9;c-16.57,0-30,13.43-30,30v15.22"/>
			<g>
				<g>
					<path style="fill:none;stroke:#000000;stroke-width:15;stroke-linecap:round;stroke-linejoin:round;stroke-miterlimit:10;" d="&#10;&#9;&#9;&#9;&#9;&#9;&#9;M368.5,450.008v-15c0-9.665-7.835-17.5-17.5-17.5h0c-9.665,0-17.5,7.835-17.5,17.5v15c0,9.665,7.835,17.5,17.5,17.5h0&#10;&#9;&#9;&#9;&#9;&#9;&#9;C360.665,467.508,368.5,459.673,368.5,450.008z"/>
				</g>
				<g>
					<path style="fill:none;stroke:#000000;stroke-width:15;stroke-linecap:round;stroke-linejoin:round;stroke-miterlimit:10;" d="&#10;&#9;&#9;&#9;&#9;&#9;&#9;M463.5,450.008v-15c0-9.665-7.835-17.5-17.5-17.5h0c-9.665,0-17.5,7.835-17.5,17.5v15c0,9.665,7.835,17.5,17.5,17.5h0&#10;&#9;&#9;&#9;&#9;&#9;&#9;C455.665,467.508,463.5,459.673,463.5,450.008z"/>
				</g>
				
					<polyline style="fill:none;stroke:#000000;stroke-width:15;stroke-linecap:round;stroke-linejoin:round;stroke-miterlimit:10;" points="&#10;&#9;&#9;&#9;&#9;&#9;388.5,417.508 398.5,417.508 398.5,467.508 &#9;&#9;&#9;&#9;"/>
			</g>
		</g>
		<g>
			<g>
				<g>
					
						<line style="fill:none;stroke:#000000;stroke-width:15;stroke-linecap:round;stroke-linejoin:round;stroke-miterlimit:10;" x1="42.246" y1="44.492" x2="42.246" y2="94.492"/>
					
						<line style="fill:none;stroke:#000000;stroke-width:15;stroke-linecap:round;stroke-linejoin:round;stroke-miterlimit:10;" x1="77.246" y1="44.492" x2="77.246" y2="94.492"/>
					
						<line style="fill:none;stroke:#000000;stroke-width:15;stroke-linecap:round;stroke-linejoin:round;stroke-miterlimit:10;" x1="42.246" y1="44.492" x2="77.246" y2="94.492"/>
				</g>
				<g>
					
						<line style="fill:none;stroke:#000000;stroke-width:15;stroke-linecap:round;stroke-linejoin:round;stroke-miterlimit:10;" x1="154.754" y1="44.492" x2="154.754" y2="94.492"/>
					<path style="fill:none;stroke:#000000;stroke-width:15;stroke-linecap:round;stroke-linejoin:round;stroke-miterlimit:10;" d="&#10;&#9;&#9;&#9;&#9;&#9;&#9;M154.754,74.492h15c8.284,0,15-6.716,15-15v0c0-8.284-6.716-15-15-15h-15"/>
				</g>
				<g>
					<path style="fill:none;stroke:#000000;stroke-width:15;stroke-linecap:round;stroke-linejoin:round;stroke-miterlimit:10;" d="&#10;&#9;&#9;&#9;&#9;&#9;&#9;M107.246,44.492V94.45c0.553,0.095,17.508,0,17.508,0"/>
				</g>
			</g>
		</g>
	</g>
</g>
<g>
</g>
<g>
</g>
<g>
</g>
<g>
</g>
<g>
</g>
<g>
</g>
<g>
</g>
<g>
</g>
<g>
</g>
<g>
</g>
<g>
</g>
<g>
</g>
<g>
</g>
<g>
</g>
<g>
</g>
</svg>