<svg clip-rule="evenodd" fill-rule="evenodd" height="2.833in" image-rendering="optimizeQuality" shape-rendering="geometricPrecision" text-rendering="geometricPrecision" viewBox="0 0 2833 2833" width="2.833in" xmlns="http://www.w3.org/2000/svg"><g id="Layer_x0020_1"><circle cx="1417" cy="1417" fill="#4a7b5d" r="1417"/><g id="_423105880"><g><g><g><g id="_423107416"><path d="m1348 1595c-7 0-15-4-18-12l-119-274-118 274c-5 10-17 15-27 11-10-5-14-17-10-27l137-316c3-8 10-12 18-12s15 4 19 12l137 316c4 10-1 22-11 27-2 1-5 1-8 1z" fill="#fff"/></g><g id="_423107008"><path d="m1280 1437h-137c-11 0-20-9-20-20s9-20 20-20h137c11 0 20 9 20 20s-9 20-20 20z" fill="#fff"/></g></g><g><g id="_423106192"><path d="m1409 1595c-12 0-20-9-20-20v-317c0-11 8-20 20-20 11 0 20 9 20 20v317c0 11-9 20-20 20z" fill="#fff"/></g><g id="_423106000"><path d="m1486 1413h-77c-12 0-20-9-20-20v-135c0-11 8-20 20-20h77c48 0 88 39 88 88 0 48-40 87-88 87zm-57-40h57c26 0 48-21 48-47 0-27-22-48-48-48h-57z" fill="#fff"/></g></g><g><g id="_423105832"><path d="m1686 1596c-11 0-20-9-20-20v-318c0-11 9-20 20-20 12 0 20 9 20 20v318c0 11-8 20-20 20z" fill="#fff"/></g><g id="_423105616"><path d="m1759 1596h-145c-11 0-20-9-20-20s9-20 20-20h145c11 0 20 9 20 20s-9 20-20 20z" fill="#fff"/></g><g id="_423104584"><path d="m1759 1278h-145c-11 0-20-9-20-20s9-20 20-20h145c11 0 20 9 20 20s-9 20-20 20z" fill="#fff"/></g></g></g><g id="_423106168"><path d="m1478 2270h-122c-9 0-17-6-20-15l-60-228c-14-3-29-7-42-11l-167 167c-6 6-16 7-24 3l-106-61c-7-5-11-14-9-23l61-227c-10-10-20-20-30-31l-228 61c-9 3-18-1-23-9l-61-106c-4-7-3-17 4-24l166-166c-4-14-8-28-11-42l-228-61c-8-2-14-10-14-19v-122c0-9 6-17 14-20l228-60c3-14 7-29 12-42l-167-167c-7-6-8-16-4-24l61-106c5-7 14-11 23-9l228 61 30-30-61-228c-2-9 2-18 9-23l106-61c8-4 18-3 24 4l167 167c13-5 28-9 42-12l60-228c3-8 11-14 20-14h122c9 0 17 6 19 14l61 228c14 3 28 7 42 12l166-167c7-7 17-8 24-4l106 61c8 5 12 14 9 23l-61 228c11 10 21 20 31 30l227-61c9-2 18 2 23 9l61 106c4 8 3 18-3 24l-167 167c4 13 8 28 11 42l228 60c9 3 15 11 15 20v122c0 9-6 17-15 19l-228 61c-3 14-7 28-11 42l167 166c6 7 7 17 3 24l-61 106c-5 8-14 12-22 9l-228-61c-10 10-20 21-31 31l61 227c3 9-1 18-9 23l-106 61c-7 4-17 3-24-3l-166-167c-14 4-28 8-42 11l-61 228c-2 9-10 15-19 15zm-107-40h91l60-225c2-7 8-13 15-14 21-5 42-10 62-17 7-2 15 0 21 5l164 165 79-46-61-225c-2-7 1-15 6-20 16-14 31-29 45-45 5-6 13-8 20-6l225 61 46-79-165-164c-5-6-7-14-5-21 7-20 12-41 17-62 1-7 7-13 14-15l225-60v-91l-225-60c-7-2-13-8-14-15-5-21-10-42-17-62-2-7 0-15 5-20l165-164-46-79-225 60c-7 2-15 0-20-6-14-16-29-31-45-45-5-5-8-13-6-20l61-225-79-45-164 164c-6 6-14 8-21 5-20-6-41-12-62-16-7-2-13-7-15-15l-60-224h-91l-60 224c-2 8-8 13-15 15-21 4-42 10-62 16-7 3-15 1-20-5l-164-164-79 45 60 225c2 7 0 15-6 20-16 14-31 29-45 45-5 6-13 8-20 6l-225-60-45 79 164 164c6 5 8 13 5 20-6 20-12 41-16 62-2 7-7 13-15 15l-224 60v91l224 60c8 2 13 8 15 15 4 21 10 42 16 62 3 7 1 15-5 21l-164 164 45 79 225-61c7-2 15 1 20 6 14 16 29 31 45 45 6 5 8 13 6 20l-60 225 79 46 164-165c5-5 13-7 20-5 20 7 41 12 62 17 7 1 13 7 15 14z" fill="#fff"/></g><g id="_423105496"><path d="m1417 1912c-274 0-496-222-496-495 0-274 222-496 496-496 273 0 495 222 495 496 0 273-222 495-495 495zm0-951c-252 0-456 204-456 456 0 251 204 455 456 455 251 0 455-204 455-455 0-252-204-456-455-456z" fill="#fff"/></g></g></g></g></svg>