<?xml version="1.0" encoding="UTF-8"?>
<svg version="1.1" xmlns="http://www.w3.org/2000/svg" width="2481" height="2481">
<path d="M0 0 C5.16950286 0.00862528 10.3389829 -0.00041869 15.50848457 -0.00706416 C24.54064111 -0.01630077 33.57274179 -0.01455215 42.60489759 -0.00533163 C56.03630901 0.00834188 69.46767803 0.00467864 82.89909262 -0.00229023 C105.50585955 -0.01349574 128.11260115 -0.01058707 150.71936521 0.00088061 C173.10224375 0.01221765 195.48511192 0.01816499 217.86799345 0.01669253 C219.27696206 0.01660712 220.68593068 0.01652225 222.09489929 0.01643789 C227.7576894 0.01609001 233.42047951 0.01570491 239.08326962 0.01527231 C254.90997066 0.01407804 270.73667163 0.01389566 286.5633727 0.01447523 C287.28390578 0.01450126 288.00443887 0.01452729 288.74680628 0.0145541 C311.68500087 0.01545195 334.62319224 0.0207435 357.56138525 0.0291828 C358.30470883 0.02945599 359.04803241 0.02972918 359.81388095 0.03001064 C371.88306359 0.0344637 383.95224613 0.03917876 396.02142866 0.04390953 C443.89684592 0.06265873 491.77224739 0.06907147 539.64766798 0.06352747 C542.67417533 0.06318049 545.70068268 0.06283487 548.72719003 0.06248918 C549.84965073 0.06236078 549.84965073 0.06236078 550.99478739 0.06222978 C559.2828253 0.06128357 567.5708632 0.06037185 575.85890112 0.05950201 C576.60221872 0.0594231 577.34553633 0.05934418 578.11137871 0.05926287 C618.2743974 0.05503688 658.43741432 0.06034986 698.60043213 0.06901331 C700.01701778 0.06931658 701.43360343 0.06961948 702.85018908 0.069922 C703.90053968 0.07014639 703.90053968 0.07014639 704.97210948 0.07037531 C706.38475753 0.07067673 707.79740559 0.07097772 709.21005364 0.07127827 C712.72911291 0.07202711 716.24817218 0.0727831 719.76723145 0.07355445 C735.17244928 0.07689862 750.57766582 0.07897419 765.98288402 0.07761873 C766.67585576 0.07755819 767.3688275 0.07749765 768.08279839 0.07743527 C771.57127147 0.07712333 775.05974455 0.07678991 778.54821763 0.07644895 C803.7972023 0.0739943 829.04617103 0.07809709 854.29515268 0.09365895 C867.6389571 0.10169426 880.98273591 0.10432176 894.32654185 0.0990166 C903.24947972 0.09603074 912.17239505 0.1003697 921.09532754 0.11056517 C926.17233918 0.11616902 931.24929879 0.11873214 936.32631077 0.1123986 C960.52329602 0.08474584 984.46526711 0.2506604 1008.37081251 4.5042013 C1009.5692378 4.71592982 1010.76766309 4.92765833 1012.0024043 5.14580286 C1083.15332667 18.28818276 1154.58664795 56.24839607 1200.10909376 113.6213888 C1202.38367668 116.4737077 1204.74701243 119.2341389 1207.12081251 122.0042013 C1267.04850411 194.06562954 1277.30831251 277.30983946 1277.30831251 368.3792013 C997.79831251 368.3792013 718.28831251 368.3792013 430.30831251 368.3792013 C428.98831251 365.4092013 427.66831251 362.4392013 426.30831251 359.3792013 C404.22461747 310.66371017 369.15677107 271.86017951 318.44112501 252.27177943 C286.96248022 240.68416806 255.65919342 239.03894301 222.33956251 239.14873255 C219.87158587 239.14993068 217.40360876 239.15037619 214.93563184 239.1501211 C209.81991987 239.15166629 204.70427983 239.15980495 199.58858594 239.17339075 C193.08952535 239.19045 186.59054261 239.1942017 180.09146223 239.19344557 C175.01574335 239.19371956 169.94004088 239.19923604 164.86432752 239.20644701 C162.46936011 239.20958727 160.07439087 239.21158996 157.67942152 239.21234072 C131.37848963 239.02716406 131.37848963 239.02716406 105.24581251 241.6292013 C104.43039991 241.75851038 103.61498731 241.88781947 102.77486524 242.021047 C51.96178575 250.52493934 7.55139067 279.21082025 -22.24637499 320.92998255 C-26.91616283 327.61972512 -31.03744998 334.55895168 -34.87918749 341.7542013 C-35.25889697 342.45956019 -35.63860644 343.16491907 -36.02982226 343.89165247 C-40.17475748 351.86881462 -43.23036436 359.97313084 -46.69168749 368.3792013 C-144.70168749 368.3792013 -242.71168749 368.3792013 -343.69168749 368.3792013 C-345.9903866 264.93774169 -325.4898889 174.65372131 -252.69168749 98.3792013 C-244.44267252 89.79976998 -236.07665713 81.72171199 -226.69168749 74.3792013 C-225.59813292 73.47585935 -224.5071266 72.56942656 -223.41824999 71.6604513 C-183.36096208 38.46046551 -134.5189073 16.43329091 -83.69168749 6.1917013 C-82.53765429 5.953547 -81.38362109 5.71539271 -80.19461718 5.47002161 C-53.5699039 0.36008337 -26.99890939 -0.06279208 0 0 Z " fill="#F4AC36" transform="translate(1043.6916874926537,311.62079869862646)"/>
<path d="M0 0 C1.04130066 -0.00571014 2.08260132 -0.01142029 3.15545654 -0.01730347 C4.28746994 -0.01842133 5.41948334 -0.01953918 6.58580017 -0.02069092 C7.78645111 -0.02565582 8.98710205 -0.03062073 10.22413635 -0.03573608 C13.51173701 -0.04782251 16.79930214 -0.05529771 20.08692098 -0.05974674 C22.14590617 -0.06268561 24.2048859 -0.06679205 26.26386833 -0.07125092 C32.72022953 -0.08491857 39.1765781 -0.09458735 45.63295275 -0.09845281 C53.05859948 -0.10292415 60.48406127 -0.12043197 67.90965182 -0.1494534 C73.66615957 -0.17116155 79.42261567 -0.18116202 85.17916387 -0.18249393 C88.60903801 -0.18353596 92.03873816 -0.18931335 95.4685688 -0.20731354 C99.30466105 -0.22447235 103.14030954 -0.22246919 106.97642517 -0.21600342 C108.09426895 -0.2252182 109.21211273 -0.23443298 110.36383057 -0.243927 C125.89975561 -0.16238249 139.35180895 4.60874542 150.67149353 15.45294189 C161.91980082 27.46966552 166.07634513 40.78683581 166.85118103 57.06231689 C166.92295563 58.29310974 166.99473022 59.52390259 167.06867981 60.79199219 C167.22298277 63.4776068 167.37134899 66.16277625 167.50975037 68.84918213 C167.74088402 73.3256218 167.99877167 77.80034428 168.25840759 82.27520752 C168.7698163 91.15253343 169.25028601 100.03138359 169.72557068 108.91070557 C169.90578736 112.26013061 170.08943838 115.60936426 170.27301216 118.95860672 C170.45147825 122.22374233 170.62764829 125.48899879 170.80314255 128.75429535 C170.88613777 130.29315874 170.96985034 131.83198364 171.05434036 133.37076569 C171.47020124 140.96536546 171.84341411 148.53199345 171.73399353 156.14044189 C172.37651062 156.30552246 173.01902771 156.47060303 173.68101501 156.64068604 C195.59642009 162.42600887 216.44142052 171.13603842 236.73399353 181.14044189 C237.66824158 181.60063721 238.60248962 182.06083252 239.56504822 182.53497314 C272.46937433 198.91044989 302.74697274 220.30937529 329.61289978 245.36309814 C332.38760109 247.79375928 332.38760109 247.79375928 335.73399353 249.14044189 C338.59145942 248.03439455 341.0797898 246.86071607 343.75743103 245.40997314 C344.55908691 244.99238739 345.3607428 244.57480164 346.18669128 244.14456177 C348.83514434 242.76150186 351.47165834 241.35706855 354.10899353 239.95294189 C356.883421 238.49826262 359.66080374 237.04933313 362.43830872 235.60054016 C364.34595048 234.60493937 366.25261682 233.60746753 368.15834045 232.60820007 C378.59590908 227.14098379 389.14323088 221.89983709 399.69999695 216.66769409 C401.93351678 215.56001619 404.16612377 214.45053375 406.39805603 213.33966064 C407.1010936 212.99004776 407.80413116 212.64043488 408.5284729 212.28022766 C414.55929421 209.26400342 420.48834277 206.07504807 426.39830017 202.8291626 C439.43496691 196.22924868 454.59673607 194.78706627 468.67149353 198.76544189 C486.72969723 205.31352329 496.31312959 216.22327015 505.28526306 232.53204346 C507.47845389 236.48082182 509.75105227 240.38278498 512.01622009 244.29058838 C513.9526839 247.63175768 515.88146141 250.97725686 517.80821228 254.32403564 C520.99340922 259.85530577 524.18153523 265.3848751 527.37193298 270.91314697 C528.61197348 273.06236624 529.85139549 275.21194247 531.0901947 277.36187744 C534.30277693 282.93599606 537.52557625 288.50389877 540.76524353 294.06231689 C565.43082579 336.4333616 565.43082579 336.4333616 559.76524353 360.61700439 C553.72883749 381.2413917 537.33879717 391.61240458 520.24571228 402.52911377 C515.68284803 405.45630118 511.14745809 408.4256235 506.60899353 411.39044189 C504.64157674 412.67434376 502.67412849 413.95819742 500.70664978 415.24200439 C499.7206781 415.88556885 498.73470642 416.5291333 497.71885681 417.19219971 C493.79239315 419.75503138 489.86553917 422.31726401 485.93833923 424.87896729 C484.02390564 426.12783418 482.10967737 427.37701589 480.19566345 428.62652588 C475.44161683 431.72873926 470.68251701 434.82272213 465.91368103 437.90216064 C464.98902039 438.50012451 464.06435974 439.09808838 463.11167908 439.71417236 C461.35929172 440.84680715 459.60561062 441.97744359 457.85044861 443.10577393 C456.68485413 443.85963379 456.68485413 443.85963379 455.49571228 444.62872314 C454.81468445 445.06740723 454.13365662 445.50609131 453.43199158 445.95806885 C451.59098531 447.1659753 451.59098531 447.1659753 449.73399353 449.14044189 C449.97567298 451.97468208 449.97567298 451.97468208 450.74571228 455.27325439 C451.0077948 456.54314209 451.26987732 457.81302979 451.53990173 459.12139893 C451.68400482 459.79737122 451.82810791 460.47334351 451.97657776 461.1697998 C452.72514353 464.695694 453.43157703 468.22979491 454.13243103 471.76544189 C454.27338699 472.47628937 454.41434296 473.18713684 454.55957031 473.91952515 C455.8112215 480.33709217 456.76315555 486.77371983 457.54649353 493.26544189 C457.6575946 494.17954834 457.76869568 495.09365479 457.88316345 496.03546143 C458.19382126 498.73505562 458.47035706 501.43587036 458.73399353 504.14044189 C458.82825623 505.04004639 458.92251892 505.93965088 459.01963806 506.86651611 C460.06620504 518.22148694 459.97777117 529.62178098 459.98399353 541.01544189 C459.98500565 542.68150482 459.98500565 542.68150482 459.98603821 544.38122559 C459.95591738 575.6747918 455.92779043 605.48093234 449.73399353 636.14044189 C450.31028503 636.51628418 450.88657654 636.89212646 451.48033142 637.27935791 C465.02708435 646.11419678 465.02708435 646.11419678 478.57383728 654.94903564 C479.50953552 655.55924561 480.44523376 656.16945557 481.4092865 656.79815674 C483.30815293 658.03660497 485.20691426 659.27521436 487.10557556 660.51397705 C491.88424284 663.63148471 496.66464793 666.74625783 501.44883728 669.85528564 C506.21860707 672.95596137 510.98204217 676.0661645 515.74131775 679.18292236 C517.81413371 680.53875842 519.88880589 681.89175929 521.96495056 683.24249268 C525.22684524 685.36679737 528.48106777 687.50243522 531.73399353 689.64044189 C532.73100281 690.28682617 533.72801208 690.93321045 534.75523376 691.59918213 C549.42672071 701.29022077 557.88965165 713.39278948 561.48399353 730.76544189 C563.02751448 751.60297474 554.98273439 766.91073027 544.65196228 784.22247314 C541.22529991 789.97407293 537.88700865 795.77601722 534.54649353 801.57794189 C533.90977722 802.68282959 533.27306091 803.78771729 532.61705017 804.92608643 C530.65543756 808.33052997 528.69464038 811.73544209 526.73399353 815.14044189 C525.46587704 817.34232971 524.19764917 819.54415338 522.92930603 821.74591064 C522.30773621 822.82493652 521.68616638 823.9039624 521.04576111 825.01568604 C519.18080888 828.24929019 517.31099406 831.48004964 515.44102478 834.71075439 C512.9339442 839.0457907 510.45615325 843.39596788 507.99571228 847.75762939 C506.78354567 849.88527513 505.57130878 852.01288084 504.35899353 854.14044189 C503.82459656 855.10095459 503.29019958 856.06146729 502.73960876 857.05108643 C494.64985889 871.16564619 483.48593984 881.37434619 467.73399353 886.14044189 C448.89962753 890.97380779 433.27300966 885.25051365 416.54258728 876.75762939 C415.30520707 876.13646508 414.06749251 875.51596639 412.82946777 874.89608765 C409.59293895 873.27307026 406.36147468 871.64021039 403.13090515 870.00537109 C400.54226797 868.69754608 397.94999177 867.39703643 395.3575201 866.09683323 C381.75405933 859.27368605 368.19878649 852.36703308 354.76342773 845.21720886 C351.11525142 843.28157787 347.45537821 841.36823059 343.79649353 839.45294189 C343.14286331 839.10252838 342.48923309 838.75211487 341.8157959 838.39108276 C339.35283388 837.1327265 337.37281226 836.12545156 334.56993103 836.19122314 C332.09047313 837.47315564 330.32388922 839.09403147 328.29649353 841.01544189 C305.009236 862.53490761 278.8842541 880.62293616 251.09043884 895.84698486 C248.92805863 897.03391922 246.7794847 898.24249645 244.63243103 899.45684814 C226.55996896 909.52263618 207.19912455 917.16140889 187.67149353 923.89044189 C187.03876526 924.10916962 186.40603699 924.32789734 185.75413513 924.55325317 C175.31725007 928.14044189 175.31725007 928.14044189 171.73399353 928.14044189 C171.71384689 928.7906279 171.69370026 929.4408139 171.67294312 930.11070251 C171.04960674 949.7700586 170.118363 969.40499032 169.05943298 989.04498291 C168.83744778 993.16769746 168.6233731 997.29078435 168.41104984 1001.41400623 C168.24266613 1004.65826015 168.06882049 1007.90220557 167.89353752 1011.14609337 C167.81227604 1012.66589806 167.73290494 1014.18580534 167.65567207 1015.70582008 C166.59748497 1036.42536359 164.9006841 1055.29342818 149.15977478 1070.65216064 C137.07908917 1081.07842996 124.83279088 1084.44322265 109.19029236 1084.43096924 C107.33254684 1084.44104507 107.33254684 1084.44104507 105.43727112 1084.45132446 C102.05880501 1084.46700829 98.68058486 1084.4736761 95.30209947 1084.47495604 C93.1846216 1084.47638371 91.06716904 1084.48066498 88.94969749 1084.48595047 C81.5430629 1084.50442349 74.1365 1084.51262482 66.72984314 1084.51104736 C59.85768891 1084.50984783 52.98584969 1084.53091992 46.11377507 1084.56253469 C40.1881794 1084.58881039 34.26268587 1084.59940991 28.3370325 1084.59813654 C24.8093208 1084.59763006 21.28188917 1084.60313675 17.75423622 1084.62449265 C13.81092516 1084.64771541 9.8680353 1084.63828547 5.92466736 1084.62628174 C4.77772903 1084.63752075 3.63079071 1084.64875977 2.44909668 1084.66033936 C-12.9177861 1084.54225905 -25.16391476 1078.94273925 -36.45350647 1068.70294189 C-46.80858932 1057.90194638 -51.19911385 1044.05527143 -51.93617249 1029.38970947 C-51.9836261 1028.56541946 -52.03107971 1027.74112946 -52.07997131 1026.89186096 C-52.23372696 1024.18990984 -52.37693102 1021.48751401 -52.51991272 1018.78497314 C-52.62614239 1016.8775239 -52.73300123 1014.97010961 -52.8404541 1013.06272888 C-53.12124662 1008.04595307 -53.39293489 1003.0287233 -53.66285706 998.01135254 C-53.88148595 993.97477363 -54.10640772 989.93855784 -54.33174229 985.90234852 C-55.40615357 966.65210932 -56.42000736 947.40223067 -57.26600647 928.14044189 C-57.87843925 928.00732574 -58.49087202 927.87420958 -59.12186337 927.73705959 C-59.92819997 927.56019147 -60.73453657 927.38332335 -61.56530762 927.20109558 C-62.36336539 927.02672942 -63.16142317 926.85236326 -63.98366451 926.67271328 C-82.74499802 922.29732994 -101.02514705 913.49586193 -118.26600647 905.14044189 C-119.57988342 904.51419922 -119.57988342 904.51419922 -120.92030334 903.87530518 C-154.89816461 887.66444441 -186.94751187 865.76083051 -214.28138733 839.83453369 C-217.04222832 837.17233667 -217.04222832 837.17233667 -220.26600647 835.14044189 C-222.06982106 835.768045 -222.06982106 835.768045 -224.05262756 836.8526001 C-224.83851761 837.25570404 -225.62440765 837.65880798 -226.43411255 838.0741272 C-227.29387192 838.52526886 -228.15363129 838.97641052 -229.03944397 839.44122314 C-229.93831833 839.9046109 -230.83719269 840.36799866 -231.76330566 840.84542847 C-233.70874519 841.84933098 -235.65233321 842.85682766 -237.59428406 843.86746216 C-242.7178229 846.53369357 -247.85438363 849.17465832 -252.98866272 851.82012939 C-254.02534592 852.35530685 -255.06202911 852.89048431 -256.13012695 853.44187927 C-265.74063163 858.39921815 -275.39884482 863.25732981 -285.07850647 868.07794189 C-286.49892074 868.78602284 -287.91933101 869.49411179 -289.33973694 870.20220947 C-291.349572 871.20389279 -293.3596769 872.20501321 -295.37071228 873.20428467 C-298.80112531 874.90913057 -302.22663197 876.62303287 -305.64588928 878.35015869 C-306.36765854 878.71384048 -307.0894278 879.07752228 -307.83306885 879.45222473 C-309.20678325 880.14480981 -310.57950492 880.83936901 -311.95101929 881.53630066 C-326.06954761 888.64491671 -341.23261258 890.04029338 -356.36366272 885.13653564 C-371.5915603 879.30334605 -381.61145768 868.28399238 -389.32850647 854.26544189 C-390.30610536 852.53079771 -391.28372486 850.79616475 -392.26257324 849.06222534 C-393.27030205 847.27344197 -394.2724608 845.48162608 -395.27381897 843.68927002 C-398.4032264 838.09951667 -401.62008416 832.56007778 -404.82850647 827.01544189 C-405.76074036 825.39895752 -405.76074036 825.39895752 -406.71180725 823.74981689 C-410.28375805 817.55682275 -413.87466814 811.37534355 -417.48500061 805.20465088 C-419.79406096 801.25539991 -422.09315601 797.30037109 -424.39344788 793.3460083 C-426.07304637 790.47076342 -427.76398171 787.60264379 -429.45883179 784.73638916 C-430.92319354 782.25331713 -432.37593117 779.76356174 -433.82658386 777.27246094 C-434.85439879 775.51551889 -435.89577931 773.76653442 -436.93763733 772.0178833 C-442.98702417 761.59043926 -447.05032337 751.32156692 -446.76600647 739.14044189 C-446.75392151 738.28595459 -446.74183655 737.43146729 -446.72938538 736.55108643 C-446.2942709 722.56149673 -440.85882924 710.39606318 -431.39881897 700.11700439 C-426.80081322 695.85584888 -421.50752642 692.54265326 -416.26600647 689.14044189 C-414.77243445 688.16270323 -413.27894938 687.18483174 -411.78553772 686.20684814 C-407.53428768 683.43070671 -403.27168124 680.67237322 -399.00770569 677.91583252 C-394.31539739 674.87732264 -389.63476228 671.82094138 -384.95350647 668.76544189 C-383.01994307 667.50367663 -381.08634911 666.2419582 -379.15272522 664.98028564 C-377.703255 664.0345166 -377.703255 664.0345166 -376.22450256 663.06964111 C-373.22507146 661.11374867 -370.22423755 659.16002532 -367.22303772 657.20684814 C-356.52959622 650.24523501 -345.85968994 643.25310458 -335.26600647 636.14044189 C-335.39652405 635.49010986 -335.52704163 634.83977783 -335.66151428 634.16973877 C-338.41118171 620.31064445 -340.76631133 606.47060479 -342.51600647 592.45294189 C-342.67875061 591.16774658 -342.84149475 589.88255127 -343.00917053 588.55841064 C-344.83335899 573.46915749 -345.50448307 558.44957356 -345.51600647 543.26544189 C-345.51668121 542.45084503 -345.51735596 541.63624817 -345.51805115 540.79696655 C-345.48407653 514.58221586 -342.72491569 489.04140018 -337.85145569 463.30157471 C-336.91772052 458.25987204 -336.08891517 453.20124472 -335.26600647 448.14044189 C-336.28416443 447.49196289 -336.28416443 447.49196289 -337.32289124 446.8303833 C-360.17406796 432.26674718 -360.17406796 432.26674718 -369.81117249 425.78814697 C-374.76506329 422.46144155 -379.76022102 419.2009632 -384.76600647 415.95294189 C-386.01172424 415.14397461 -386.01172424 415.14397461 -387.28260803 414.31866455 C-390.92913551 411.95153542 -394.5767668 409.58614643 -398.22743225 407.22540283 C-401.26283301 405.26220831 -404.29575785 403.29523024 -407.32850647 401.32794189 C-408.71876038 400.43135864 -408.71876038 400.43135864 -410.13710022 399.5166626 C-426.8837951 388.64060798 -441.20547714 377.75431914 -445.89979553 357.27203369 C-449.78377767 334.66466835 -440.52271194 318.09355377 -429.20399475 299.37139893 C-426.00819666 294.04345839 -422.92166035 288.65339857 -419.82850647 283.26544189 C-418.5709738 281.08298897 -417.31316003 278.90069798 -416.05506897 276.71856689 C-414.79197378 274.52590139 -413.52895303 272.33319301 -412.26600647 270.14044189 C-411.00305991 267.94769078 -409.74003916 265.7549824 -408.47694397 263.56231689 C-407.85311829 262.47934326 -407.2292926 261.39636963 -406.58656311 260.28057861 C-404.71872139 257.04182389 -402.84597475 253.80593953 -400.97303772 250.57012939 C-398.46595714 246.23509309 -395.98816619 241.88491591 -393.52772522 237.52325439 C-392.3155586 235.39560865 -391.10332172 233.26800295 -389.89100647 231.14044189 C-389.3566095 230.1799292 -388.82221252 229.2194165 -388.2716217 228.22979736 C-379.79215675 213.43528372 -368.42171614 203.67040192 -352.26600647 198.14044189 C-347.64502208 196.90450569 -343.02054071 196.88499631 -338.26600647 196.82794189 C-337.49127991 196.79893799 -336.71655334 196.76993408 -335.91835022 196.74005127 C-321.93442135 196.59225365 -309.74592047 203.56311453 -297.64100647 209.76544189 C-296.12713696 210.53066248 -294.61281515 211.29498891 -293.09803772 212.05841064 C-285.33747915 215.9814631 -277.62738512 219.99464189 -269.94178772 224.06231689 C-259.73562956 229.46102476 -249.41516135 234.62221492 -239.07850647 239.76544189 C-237.23791622 240.68321922 -235.39742103 241.60118722 -233.55702209 242.51934814 C-229.12776951 244.7285653 -224.69726243 246.93524606 -220.26600647 249.14044189 C-219.79123871 248.73246872 -219.31647095 248.32449554 -218.82731628 247.90415955 C-218.2013858 247.36684708 -217.57545532 246.82953461 -216.93055725 246.27593994 C-216.31141449 245.74421677 -215.69227173 245.21249359 -215.05436707 244.66465759 C-212.77843681 242.72488738 -210.4643123 240.83562076 -208.14100647 238.95294189 C-204.63552893 236.10384956 -201.18330282 233.20925388 -197.77333069 230.24664307 C-178.71882207 213.78508858 -157.1952528 200.39621784 -135.26600647 188.14044189 C-134.52721252 187.72439697 -133.78841858 187.30835205 -133.02723694 186.87969971 C-112.25038432 175.26382245 -90.31795747 166.34114061 -67.59877014 159.34942627 C-66.39196594 158.96979736 -65.18516174 158.59016846 -63.94178772 158.19903564 C-62.86840149 157.87217773 -61.79501526 157.54531982 -60.68910217 157.20855713 C-59.88948059 156.8560791 -59.08985901 156.50360107 -58.26600647 156.14044189 C-56.97952007 152.28098269 -56.90964209 148.51496544 -56.70936584 144.48492432 C-56.66205826 143.59989227 -56.61475067 142.71486023 -56.56600952 141.80300903 C-56.41003578 138.86750045 -56.25993967 135.9317207 -56.10975647 132.99591064 C-56.00188168 130.94863298 -55.89359933 128.90137674 -55.78492737 126.85414124 C-55.49895849 121.44935203 -55.2177831 116.04432445 -54.93782043 110.63922119 C-54.49098021 102.02750676 -54.03690416 93.41617116 -53.58285522 84.80483437 C-53.42577622 81.8129514 -53.27070781 78.82096971 -53.11598206 75.82896423 C-50.71735888 29.71356066 -50.71735888 29.71356066 -33.26600647 13.14044189 C-24.03513976 5.24805086 -12.24292247 0.04039334 0 0 Z M-96.26600647 327.14044189 C-96.83077698 327.55503662 -97.39554749 327.96963135 -97.97743225 328.39678955 C-116.23491687 341.88540849 -133.37354385 357.12291358 -147.26600647 375.14044189 C-148.2572971 376.38074257 -149.24955484 377.62027067 -150.24256897 378.85919189 C-162.56848935 394.40689271 -172.90830857 411.15119622 -181.26600647 429.14044189 C-181.58875549 429.81542725 -181.91150452 430.4904126 -182.24403381 431.18585205 C-194.77917161 457.4345405 -201.95965026 485.3070708 -205.26600647 514.14044189 C-205.40957581 515.38289673 -205.40957581 515.38289673 -205.55604553 516.65045166 C-206.38527295 524.65665727 -206.50916498 532.6611791 -206.51600647 540.70294189 C-206.51668121 541.42287323 -206.51735596 542.14280457 -206.51805115 542.884552 C-206.45422808 586.17031392 -195.62874523 627.99463696 -175.26600647 666.14044189 C-174.9263385 666.78642334 -174.58667053 667.43240479 -174.23670959 668.09796143 C-166.45985785 682.80808649 -156.96049607 696.39849425 -146.26600647 709.14044189 C-145.63323792 709.90638672 -145.63323792 709.90638672 -144.98768616 710.68780518 C-134.20630645 723.72195379 -122.67338118 735.77624562 -109.26600647 746.14044189 C-108.00129456 747.14516077 -106.73700117 748.1504066 -105.47303772 749.15606689 C-66.9235571 779.53901846 -21.02079138 798.34799263 27.73399353 804.14044189 C28.92726257 804.28401123 28.92726257 804.28401123 30.14463806 804.43048096 C38.86361911 805.35349204 47.60113545 805.38390345 56.35899353 805.39044189 C57.175242 805.39111664 57.99149048 805.39179138 58.83247375 805.39248657 C72.98359815 805.37400237 86.76271325 804.51903925 100.73399353 802.14044189 C101.68886658 801.9847876 102.64373962 801.8291333 103.62754822 801.66876221 C128.26167004 797.52864311 152.38426279 789.2435625 174.73399353 778.14044189 C175.45796326 777.78659424 176.18193298 777.43274658 176.92784119 777.06817627 C193.36919625 768.97146574 208.52830417 758.69198031 222.73399353 747.14044189 C223.26347595 746.71392334 223.79295837 746.28740479 224.33848572 745.84796143 C239.52556668 733.52713635 253.93293841 719.67691491 265.47911072 703.85284424 C266.80577551 702.04248882 268.16197667 700.25707238 269.52305603 698.47247314 C275.9017016 690.04366616 281.58509237 681.3696429 286.73399353 672.14044189 C287.19418884 671.32108154 287.65438416 670.50172119 288.12852478 669.65753174 C305.10863881 639.13028848 315.28418556 606.74654794 319.73399353 572.14044189 C319.83711853 571.39874756 319.94024353 570.65705322 320.04649353 569.8928833 C321.15144227 560.82243802 320.97795371 551.63843658 320.98399353 542.51544189 C320.98466827 541.60071106 320.98534302 540.68598022 320.98603821 539.74353027 C320.96919402 525.35103938 320.38938221 511.32134742 317.73399353 497.14044189 C317.5570697 496.18621338 317.38014587 495.23198486 317.19786072 494.24884033 C308.88035513 450.70763235 290.58259928 410.66387219 262.73399353 376.14044189 C261.94250916 375.14399658 261.15102478 374.14755127 260.33555603 373.12091064 C249.04683168 359.18173253 236.06864961 345.9419081 221.73399353 335.14044189 C220.53795796 334.20516791 219.34270381 333.26889414 218.14805603 332.33184814 C182.04739848 304.30871272 139.67088435 287.41815819 94.73399353 280.14044189 C93.94234802 280.00766846 93.15070251 279.87489502 92.33506775 279.73809814 C27.58575303 269.35253561 -43.92484478 288.48739642 -96.26600647 327.14044189 Z " fill="#EF4146" transform="translate(1172.2660064697266,686.8595581054688)"/>
<path d="M0 0 C1.80470274 0.00028259 3.6094056 0.00012274 5.41410828 -0.0004425 C10.27895523 -0.00072768 15.14377718 0.00512362 20.00861835 0.01213145 C25.10549605 0.01841177 30.20237441 0.01897248 35.29925537 0.02015686 C44.93554592 0.02325644 54.57182504 0.03145122 64.20811057 0.04150635 C75.18520384 0.05271026 86.16229767 0.05818869 97.13939524 0.06320179 C119.70589221 0.07363506 142.27237906 0.09120776 164.83886719 0.11352539 C163.59228503 3.96903344 162.30718459 7.31679415 160.18652344 10.77368164 C159.66276123 11.63864258 159.13899902 12.50360352 158.59936523 13.39477539 C158.03902588 14.31258789 157.47868652 15.23040039 156.90136719 16.17602539 C135.85336773 51.36633588 122.66996033 87.07529664 122.81542969 128.54711914 C122.81712158 129.46972534 122.81881348 130.39233154 122.82055664 131.34289551 C122.82494036 133.59978186 122.8310852 135.85664863 122.83886719 138.11352539 C122.19762531 138.11683554 121.55638344 138.12014568 120.89570999 138.12355614 C105.19963855 138.2052342 89.50366848 138.2974673 73.80772781 138.40105247 C66.21689053 138.45090085 58.62606257 138.49734358 51.03515625 138.53540039 C44.40900039 138.56862949 37.78292343 138.6086237 31.15685534 138.65631545 C27.6574235 138.68127796 24.1580419 138.70314308 20.65854645 138.71686935 C1.41471558 138.79530296 -17.80748091 138.98530106 -36.66113281 143.30102539 C-37.61342773 143.51533203 -38.56572266 143.72963867 -39.546875 143.95043945 C-87.14443501 155.1191998 -128.58778354 185.04215278 -154.58544922 226.37817383 C-174.34429429 259.09681311 -182.33862038 294.97403366 -182.29256058 332.9149437 C-182.29421344 334.59016431 -182.29630118 336.26538455 -182.29878068 337.94060415 C-182.3043154 342.53137514 -182.30368082 347.12212736 -182.30200309 351.71290061 C-182.30126921 356.71210287 -182.3063014 361.71129997 -182.31057811 366.7105 C-182.31814286 376.61964371 -182.32035039 386.52878203 -182.32090716 396.43792833 C-182.32182226 408.30889421 -182.32849394 420.17985514 -182.33525399 432.05081888 C-182.35091739 460.05252133 -182.35699956 488.05422388 -182.36166102 516.05592976 C-182.36404589 530.30195681 -182.36774961 544.54798338 -182.37169811 558.79401007 C-182.38435841 604.49796761 -182.3951443 650.20192513 -182.39853857 695.90588439 C-182.39870081 698.08887291 -182.39886637 700.27186143 -182.39903296 702.45484995 C-182.39936675 706.83277583 -182.39969723 711.2107017 -182.40002751 715.58862758 C-182.40041441 720.71398008 -182.40080402 725.83933258 -182.40119858 730.96468509 C-182.401311 732.43159413 -182.40142242 733.89850317 -182.40153283 735.36541222 C-182.40508436 782.5052049 -182.42017379 829.64498235 -182.44347058 876.78476922 C-182.46021015 910.67009194 -182.47568603 944.55541178 -182.48020554 978.44073868 C-182.48029902 979.13741962 -182.48039251 979.83410056 -182.48048883 980.55189305 C-182.48250773 995.84465701 -182.48366389 1011.13742092 -182.48401741 1026.430185 C-182.48415358 1031.90187302 -182.48436258 1037.37356103 -182.48461066 1042.84524905 C-182.48467222 1044.20645623 -182.48473055 1045.5676634 -182.48478561 1046.92887058 C-182.4857056 1068.62289533 -182.49567549 1090.31690417 -182.5102431 1112.01092369 C-182.52525821 1134.46103124 -182.52945245 1156.91111929 -182.52115014 1179.361231 C-182.51668446 1192.30799251 -182.52059202 1205.25468883 -182.53638865 1218.20144182 C-182.54610831 1226.84241495 -182.54498935 1235.48334221 -182.53495242 1244.12431488 C-182.52953876 1249.05207071 -182.5289196 1253.97970096 -182.54146114 1258.90744659 C-182.55277282 1263.38920586 -182.55030576 1267.87073701 -182.53679407 1272.35248826 C-182.53435609 1273.96472062 -182.53695807 1275.5769704 -182.54519054 1277.18918359 C-182.58991438 1286.5630609 -182.34404224 1294.5116048 -177.59863281 1302.86352539 C-172.37538595 1307.68498404 -165.58340004 1310.92646988 -158.42675781 1311.28930664 C-148.54994466 1310.52300217 -141.917387 1303.84077674 -134.86865234 1297.5925293 C-132.11004562 1295.20310415 -129.23354427 1292.97241339 -126.34863281 1290.73852539 C-121.23370672 1286.75921593 -116.1808469 1282.71228508 -111.16113281 1278.61352539 C-103.3379004 1272.23173599 -95.41040579 1265.99152933 -87.45214844 1259.77954102 C-79.94329789 1253.91458934 -72.50450754 1247.97397514 -65.12255859 1241.94995117 C-60.27580443 1238.00122046 -55.37755021 1234.12497459 -50.45019531 1230.27758789 C-45.97676573 1226.77576292 -41.5624608 1223.20541375 -37.16113281 1219.61352539 C-31.63773596 1215.10592566 -26.06928845 1210.66509897 -20.45019531 1206.27758789 C-15.97676573 1202.77576292 -11.5624608 1199.20541375 -7.16113281 1195.61352539 C-1.63773596 1191.10592566 3.93071155 1186.66509897 9.54980469 1182.27758789 C14.02323427 1178.77576292 18.4375392 1175.20541375 22.83886719 1171.61352539 C28.36226404 1167.10592566 33.93071155 1162.66509897 39.54980469 1158.27758789 C44.02323427 1154.77576292 48.4375392 1151.20541375 52.83886719 1147.61352539 C58.36226404 1143.10592566 63.93071155 1138.66509897 69.54980469 1134.27758789 C74.02324276 1130.77575627 78.43722887 1127.20504299 82.83886719 1123.61352539 C90.10559434 1117.69248845 97.41210388 1111.83291577 104.83886719 1106.11352539 C105.44053711 1105.64672363 106.04220703 1105.17992187 106.66210938 1104.69897461 C132.07692385 1085.07970041 161.19826292 1074.93550701 193.35942841 1074.98324013 C194.73777036 1074.98170121 196.11611188 1074.97972433 197.49445266 1074.97735095 C201.28434339 1074.97208515 205.07421124 1074.97300856 208.86410422 1074.97492407 C212.9866678 1074.97589879 217.10922518 1074.971063 221.23178625 1074.96694505 C228.45834865 1074.96051244 235.68490527 1074.9577285 242.91147041 1074.95731926 C253.65840192 1074.9566744 264.40532457 1074.95028093 275.15225306 1074.94257246 C292.12679388 1074.93049346 309.10133429 1074.921833 326.07587817 1074.91553432 C353.03550255 1074.90549752 379.99511428 1074.88624145 406.95473107 1074.86399193 C417.33031201 1074.85546133 427.70589318 1074.84719496 438.0814743 1074.83888817 C439.23426999 1074.83796316 440.38706569 1074.83703815 441.57479458 1074.83608511 C469.02040213 1074.81409113 496.46601109 1074.79430286 523.91162109 1074.77563477 C525.11255784 1074.77481509 526.31349459 1074.77399541 527.55082335 1074.77315089 C555.55477535 1074.75407634 583.55872727 1074.73711333 611.56268311 1074.72479248 C612.76617072 1074.72426281 613.96965834 1074.72373315 615.20961528 1074.72318743 C624.90975905 1074.71893598 634.60990285 1074.71475961 644.31004667 1074.71060263 C684.33660064 1074.69339045 724.36313736 1074.66615884 764.38967651 1074.62744225 C770.04726491 1074.62198075 775.70485342 1074.61664771 781.36244202 1074.6114006 C782.4758543 1074.61036622 783.58926658 1074.60933184 784.73641863 1074.60826612 C802.62866901 1074.59196564 820.52090728 1074.58641387 838.41316438 1074.58510294 C856.41211241 1074.58359557 874.41102765 1074.57139718 892.40996122 1074.54834653 C903.09176316 1074.53500446 913.77349337 1074.52992563 924.45530177 1074.53689289 C931.60585245 1074.54073372 938.75633996 1074.53360865 945.90687417 1074.51787711 C949.97115004 1074.50924332 954.03527968 1074.50509632 958.09955734 1074.51445098 C1012.89588379 1074.62984434 1062.7124635 1062.4246866 1103.29150391 1023.59350586 C1104.33518377 1022.59527497 1105.38382083 1021.6022047 1106.43701172 1020.61401367 C1120.86806233 1007.04179926 1131.52021613 991.54271172 1140.83886719 974.11352539 C1141.17756836 973.4815625 1141.51626953 972.84959961 1141.86523438 972.19848633 C1154.27412017 948.56066104 1160.87941499 921.28390612 1161.04418945 894.63671875 C1161.05408905 893.63078674 1161.06398865 892.62485474 1161.07418823 891.58843994 C1161.10554733 888.29343954 1161.13045853 884.99842476 1161.15527344 881.70336914 C1161.17586511 879.4069432 1161.19686214 877.11052087 1161.21824646 874.81410217 C1161.27323862 868.792317 1161.32274801 862.77049893 1161.37109375 856.74865723 C1161.42147643 850.59485981 1161.47707468 844.44110971 1161.53222656 838.28735352 C1161.63952827 826.22945131 1161.74103453 814.17150788 1161.83886719 802.11352539 C1162.54284134 801.94845993 1163.24681549 801.78339447 1163.97212219 801.61332703 C1167.21638174 800.85030926 1170.45925861 800.08156165 1173.70214844 799.31274414 C1174.80917114 799.05328003 1175.91619385 798.79381592 1177.0567627 798.52648926 C1227.35364498 786.56513763 1268.84778428 754.82914434 1295.83886719 711.11352539 C1296.64517578 709.67493164 1296.64517578 709.67493164 1297.46777344 708.20727539 C1297.92023438 707.51633789 1298.37269531 706.82540039 1298.83886719 706.11352539 C1299.49886719 706.11352539 1300.15886719 706.11352539 1300.83886719 706.11352539 C1300.88581036 731.46320069 1300.92096451 756.81286937 1300.94249153 782.16257954 C1300.95275732 793.93571243 1300.96672658 805.70881815 1300.98974609 817.48193359 C1301.00982513 827.75615957 1301.02261765 838.03036585 1301.02704418 848.30461091 C1301.02962727 853.73310583 1301.03559774 859.16154445 1301.0503273 864.59002113 C1301.20332447 923.34661922 1294.95664749 978.16683449 1269.83886719 1032.11352539 C1269.43941895 1032.97429687 1269.0399707 1033.83506836 1268.62841797 1034.72192383 C1259.92160198 1053.27696553 1249.19942378 1070.76694388 1236.83886719 1087.11352539 C1236.1860376 1087.98050049 1236.1860376 1087.98050049 1235.52001953 1088.86499023 C1229.8095271 1096.40431976 1223.79301814 1103.54100268 1217.32714844 1110.44165039 C1215.25400158 1112.66776099 1213.25126253 1114.92600157 1211.27636719 1117.23852539 C1176.60525687 1157.13518582 1126.63635092 1186.03333744 1076.83886719 1202.11352539 C1075.84290527 1202.43546875 1074.84694336 1202.75741211 1073.82080078 1203.08911133 C1039.90706269 1213.86956427 1006.01346302 1217.61189926 970.56322779 1217.43464548 C966.43010534 1217.417504 962.29697654 1217.41851606 958.1638242 1217.41712105 C950.94680678 1217.41233685 943.72988049 1217.39666095 936.5128994 1217.37355995 C925.78095022 1217.33934541 915.04902456 1217.32301708 904.31703041 1217.31072754 C887.35772902 1217.29108729 870.39846378 1217.26160555 853.43918995 1217.22556848 C826.52728087 1217.16866908 799.615413 1217.14432237 772.70345054 1217.13091397 C766.96608646 1217.12801114 761.22872256 1217.12480178 755.49135864 1217.12161052 C753.17904635 1217.12032902 750.86673405 1217.11904777 748.55442176 1217.11776678 C747.40642605 1217.11712937 746.25843033 1217.11649197 745.07564687 1217.11583525 C741.58467816 1217.11390554 738.09370945 1217.11200522 734.60274073 1217.11010542 C708.39140665 1217.09569884 682.18007761 1217.07631364 655.96875 1217.05297852 C654.77185914 1217.05192483 653.57496827 1217.05087115 652.34180799 1217.04978553 C613.4863709 1217.01532274 574.63107343 1216.94624896 535.77571457 1216.8625421 C495.78281581 1216.77663115 455.79007628 1216.73401141 415.79708178 1216.74264265 C410.14984821 1216.7438223 404.5026147 1216.744464 398.85538101 1216.74475479 C397.18840902 1216.74485552 397.18840902 1216.74485552 395.48776083 1216.74495828 C377.61519933 1216.7446802 359.74304468 1216.6980983 341.87061203 1216.63354991 C323.91646556 1216.56956653 305.96276375 1216.55224776 288.00852458 1216.58271687 C277.34661234 1216.59934529 266.68620573 1216.57969466 256.02451456 1216.50790887 C248.89813114 1216.46349568 241.77277141 1216.46647668 234.64637069 1216.50750386 C230.58883302 1216.5295121 226.53416561 1216.53134641 222.47689353 1216.47512554 C202.53876634 1215.71916174 202.53876634 1215.71916174 185.25224495 1224.36859322 C183.55814578 1226.02007912 181.95378235 1227.70971069 180.38123216 1229.47689249 C177.81097608 1232.20424026 174.83125574 1234.37407426 171.83886719 1236.61352539 C170.69109428 1237.50687232 169.54502845 1238.40242074 168.40136719 1239.30102539 C167.82386719 1239.75477539 167.24636719 1240.20852539 166.65136719 1240.67602539 C163.35501087 1243.29037695 160.09836814 1245.95347289 156.83886719 1248.61352539 C151.31547034 1253.12112512 145.74702283 1257.56195181 140.12792969 1261.94946289 C135.6545001 1265.45128786 131.24019517 1269.02163704 126.83886719 1272.61352539 C121.31547034 1277.12112512 115.74702283 1281.56195181 110.12792969 1285.94946289 C105.6545001 1289.45128786 101.24019517 1293.02163704 96.83886719 1296.61352539 C91.31547034 1301.12112512 85.74702283 1305.56195181 80.12792969 1309.94946289 C75.6545001 1313.45128786 71.24019517 1317.02163704 66.83886719 1320.61352539 C61.31547034 1325.12112512 55.74702283 1329.56195181 50.12792969 1333.94946289 C45.6545001 1337.45128786 41.24019517 1341.02163704 36.83886719 1344.61352539 C31.31547034 1349.12112512 25.74702283 1353.56195181 20.12792969 1357.94946289 C15.6545001 1361.45128786 11.24019517 1365.02163704 6.83886719 1368.61352539 C1.31547034 1373.12112512 -4.25297717 1377.56195181 -9.87207031 1381.94946289 C-14.3454999 1385.45128786 -18.75980483 1389.02163704 -23.16113281 1392.61352539 C-28.68577987 1397.1221454 -34.25002276 1401.57136559 -39.87866211 1405.94946289 C-42.95830801 1408.35308896 -45.99640796 1410.7945654 -48.99316406 1413.30102539 C-78.43062941 1437.87772523 -113.38873673 1453.98897922 -152.16113281 1455.11352539 C-153.09054687 1455.15348633 -154.01996094 1455.19344727 -154.97753906 1455.23461914 C-184.45257579 1455.93152543 -212.38480715 1447.90920812 -238.16113281 1434.11352539 C-239.22203125 1433.54762695 -240.28292969 1432.98172852 -241.37597656 1432.39868164 C-253.11826873 1425.84089692 -263.41528476 1417.33471931 -273.16113281 1408.11352539 C-274.39283203 1406.96110352 -274.39283203 1406.96110352 -275.64941406 1405.78540039 C-285.95296419 1395.85040648 -294.11353221 1384.55382443 -301.16113281 1372.11352539 C-301.48823242 1371.53860352 -301.81533203 1370.96368164 -302.15234375 1370.37133789 C-311.45345744 1353.7472986 -317.63757367 1334.9880793 -320.16113281 1316.11352539 C-320.33317065 1314.90023711 -320.50520849 1313.68694883 -320.68245959 1312.43689424 C-321.47991549 1305.121418 -321.30118848 1297.75337222 -321.29256058 1290.40446758 C-321.29421167 1288.69020139 -321.29629861 1286.97593557 -321.29878068 1285.26167038 C-321.30433841 1280.54370954 -321.30367654 1275.82576687 -321.30200309 1271.10780381 C-321.30127144 1265.97739765 -321.30629625 1260.84699659 -321.31057811 1255.71659261 C-321.31815636 1245.53745875 -321.32035108 1235.35833014 -321.32090716 1225.17919375 C-321.321821 1212.98739101 -321.32848924 1200.79559312 -321.33525399 1188.60379246 C-321.35093469 1159.83215434 -321.35700287 1131.06051777 -321.36166102 1102.28887641 C-321.36404542 1087.6435958 -321.36774918 1072.99831564 -321.37169811 1058.35303538 C-321.38436373 1011.35331248 -321.39514624 964.3535896 -321.39853857 917.35386503 C-321.39870081 915.10772314 -321.39886637 912.86158126 -321.39903296 910.61543938 C-321.39936675 906.11090155 -321.39969723 901.60636372 -321.40002751 897.10182589 C-321.40041441 891.82830976 -321.40080401 886.55479363 -321.40119858 881.28127749 C-321.401311 879.77196405 -321.40142242 878.2626506 -321.40153283 876.75333716 C-321.40507992 828.31128128 -321.420148 779.86924026 -321.44347058 731.42719005 C-321.4602237 696.6160764 -321.47569223 661.80496557 -321.48020554 626.99384785 C-321.48029902 626.27715352 -321.48039251 625.56045919 -321.48048883 624.82204685 C-321.4825084 609.08459392 -321.48366401 593.34714103 -321.48401741 577.60968798 C-321.48415357 571.97755369 -321.48436256 566.34541941 -321.48461066 560.71328512 C-321.48467223 559.31222841 -321.48473055 557.9111717 -321.48478561 556.51011498 C-321.48570362 534.22905278 -321.4956501 511.94800613 -321.5102431 489.66694903 C-321.5253043 466.57845252 -321.52942586 443.48997701 -321.52115014 420.4014748 C-321.51670442 407.10546565 -321.52051205 393.80952016 -321.53638865 380.51351941 C-321.54617835 371.61535473 -321.54492249 362.71723438 -321.53495242 353.81907006 C-321.52958898 348.75993257 -321.52875692 343.70091683 -321.54146114 338.6417897 C-321.74115942 253.64667237 -297.72830773 173.29033813 -240.16113281 109.11352539 C-239.7014209 108.59741699 -239.24170898 108.08130859 -238.76806641 107.54956055 C-229.50742184 97.17855845 -219.87584187 86.9980271 -209.16113281 78.11352539 C-208.62568848 77.66428711 -208.09024414 77.21504883 -207.53857422 76.75219727 C-156.99014454 34.43258172 -95.79743399 8.12672429 -30.16113281 1.11352539 C-29.34444752 1.02515695 -28.52776222 0.9367885 -27.68632889 0.84574223 C-18.45244637 -0.03936099 -9.2653941 -0.02047021 0 0 Z " fill="#27B5EA" transform="translate(479.1611328125,907.886474609375)"/>
<path d="M0 0 C175.89 0 351.78 0 533 0 C533.12375 83.16 533.12375 83.16 533.25 168 C533.28641602 185.4796875 533.32283203 202.959375 533.36035156 220.96875 C533.37841797 242.37890625 533.37841797 242.37890625 533.3817749 252.41455078 C533.3854886 259.39605152 533.40009105 266.37742263 533.42230225 273.35888672 C533.44793928 281.42923764 533.45930318 289.49946527 533.4537798 297.56985712 C533.45139168 301.68966016 533.45491612 305.80918841 533.47686052 309.92893982 C533.58893556 332.04137611 532.9158428 354.10858646 525.4375 375.1875 C525.10089355 376.16251465 524.76428711 377.1375293 524.41748047 378.14208984 C518.70860814 394.01547711 510.52904271 408.82501745 500 422 C499.54012695 422.5779834 499.08025391 423.1559668 498.60644531 423.75146484 C470.68714848 458.42847909 430.71575684 479.44138889 386.60546875 484.49609375 C356.69946208 487.44559902 326.96629703 482.26613003 300 469 C299.36900391 468.69336426 298.73800781 468.38672852 298.08789062 468.07080078 C283.61859091 460.95783464 271.34106519 451.42952296 258.9375 441.22265625 C255.33348099 438.26007519 251.67934171 435.36818547 248 432.5 C242.25950184 428.01851235 236.60305503 423.44042422 230.9609375 418.8359375 C226.67548382 415.34469917 222.35670547 411.90181112 218 408.5 C212.25989332 404.0179989 206.60306754 399.44043443 200.9609375 394.8359375 C196.67548382 391.34469917 192.35670547 387.90181112 188 384.5 C182.25989332 380.0179989 176.60306754 375.44043443 170.9609375 370.8359375 C166.67548382 367.34469917 162.35670547 363.90181112 158 360.5 C152.25989332 356.0179989 146.60306754 351.44043443 140.9609375 346.8359375 C136.67548382 343.34469917 132.35670547 339.90181112 128 336.5 C122.25989332 332.0179989 116.60306754 327.44043443 110.9609375 322.8359375 C106.67548382 319.34469917 102.35670547 315.90181112 98 312.5 C92.25989332 308.0179989 86.60306754 303.44043443 80.9609375 298.8359375 C76.11505872 294.88813664 71.21829857 291.01201102 66.29125977 287.16625977 C61.79336191 283.64624884 57.3601239 280.05145471 52.9375 276.4375 C46.06108014 270.82036625 39.07374436 265.36587115 32 260 C33.58784524 254.15558169 36.56762176 249.35281558 39.625 244.1875 C65.95030657 198.69186944 74.90996569 147.32727279 62 96 C51.86772367 58.6238626 30.13348974 29.72098736 3 3 C2.01 2.01 1.02 1.02 0 0 Z " fill="#68DE7A" transform="translate(1788,1279)"/>
<path d="M0 0 C185.46 0 370.92 0 562 0 C562 107.58 562 215.16 562 326 C397.66 326 233.32 326 64 326 C67.465 320.555 67.465 320.555 71 315 C82.18259276 296.24427881 90.04422487 277.28611929 95 256 C95.17934082 255.27039062 95.35868164 254.54078125 95.54345703 253.7890625 C103.10285261 221.96002848 98.67829875 185.46563996 88 155 C87.71672852 154.19143555 87.43345703 153.38287109 87.14160156 152.54980469 C80.00266673 132.64755874 69.12823792 114.69680172 58.3359375 96.60546875 C54.93573908 90.90490148 51.58862955 85.17428671 48.25 79.4375 C41.18352129 67.30903386 34.10879036 55.18554226 26.98908997 43.08822632 C24.87299167 39.49128844 22.77100887 35.88646787 20.67578125 32.27734375 C15.47661115 23.38801069 10.02256843 14.95083831 3.6550293 6.84448242 C0 2.18150827 0 2.18150827 0 0 Z " fill="#6B40D8" transform="translate(1759,816)"/>
<path d="M0 0 C19.37252717 16.191791 31.64132577 37.00131709 34.64160156 62.37207031 C36.34436164 89.10511151 29.60317216 113.0976768 12.02050781 133.77441406 C-2.82903407 149.98943106 -23.97510315 162.1913537 -46.26416016 163.54907227 C-73.3582321 164.09812862 -73.3582321 164.09812862 -86.35839844 159.37207031 C-87.01308105 159.13601074 -87.66776367 158.89995117 -88.34228516 158.65673828 C-112.31728401 149.77138028 -129.61355618 132.42866816 -140.56152344 109.49316406 C-149.88449738 88.94288731 -150.89486049 62.68251939 -143.18408203 41.48632812 C-138.61773967 29.79368327 -132.49923227 19.90346117 -124.35839844 10.37207031 C-123.51728516 9.37820313 -123.51728516 9.37820313 -122.65917969 8.36425781 C-91.73483086 -25.13062883 -35.20031642 -27.99975878 0 0 Z " fill="#27B5EA" transform="translate(900.3583984375,1710.6279296875)"/>
<path d="M0 0 C0.72445312 0.54011719 1.44890625 1.08023437 2.1953125 1.63671875 C16.73298349 13.31982681 26.2146797 31.2439431 31 49 C31.33644531 50.19302734 31.33644531 50.19302734 31.6796875 51.41015625 C37.16367656 75.11150624 31.5516167 100.16194105 19.1640625 120.64453125 C5.87467219 141.25028265 -13.80138159 154.57537117 -37.25 160.875 C-53.70044866 164.00395777 -72.19482155 163.74578763 -88 158 C-88.65468262 157.76394043 -89.30936523 157.52788086 -89.98388672 157.28466797 C-112.56549098 148.91571499 -129.69525398 132.78907357 -140.81640625 111.52734375 C-151.58282872 88.02470222 -152.18962418 62.02345278 -143.8671875 37.6875 C-135.07451473 14.86148858 -117.3193513 -2.25551879 -95.5625 -12.75 C-63.23584692 -26.75979401 -27.51437327 -21.15024538 0 0 Z " fill="#27B5EA" transform="translate(624,1712)"/>
</svg>
