<?xml version="1.0" encoding="UTF-8"?>
<svg version="1.1" xmlns="http://www.w3.org/2000/svg" width="512" height="512">
<path d="M0 0 C0.78043566 -0.06660499 1.56087133 -0.13320998 2.36495656 -0.20183331 C5.00498106 -0.42310346 7.64563103 -0.63464156 10.28668213 -0.84329224 C11.67239385 -0.95322295 11.67239385 -0.95322295 13.08609974 -1.06537449 C38.8252163 -3.07881389 64.59426789 -4.30508529 90.39703369 -5.12893677 C92.18313545 -5.18769729 92.18313545 -5.18769729 94.00532007 -5.2476449 C201.80004561 -8.69690376 201.80004561 -8.69690376 240.68447876 27.33432007 C247.09255466 33.44124133 252.91594 40.0180299 258.58453369 46.80856323 C259.04459997 47.35732778 259.50466625 47.90609232 259.97867393 48.47148609 C270.18963775 60.69518331 279.73493335 73.36832204 288.05070114 86.97313118 C291.15992209 91.96029477 294.38352619 95.60962257 299.01595402 99.24991512 C300.64703369 100.74606323 300.64703369 100.74606323 301.64703369 103.74606323 C302.30703369 103.74606323 302.96703369 103.74606323 303.64703369 103.74606323 C306.07112208 107.47971316 305.91673158 111.1561383 305.87408447 115.45211792 C305.87437653 116.2232341 305.87466858 116.99435028 305.87496948 117.78883362 C305.87357862 120.33198384 305.85802896 122.87483933 305.84234619 125.41793823 C305.83861519 127.18341919 305.83576863 128.94890222 305.83377075 130.71438599 C305.82614112 135.35702245 305.80649836 139.99953342 305.78436279 144.64212036 C305.76388995 149.3811778 305.75476596 154.12025555 305.74468994 158.85934448 C305.72325186 168.15497248 305.68912397 177.45050741 305.64703369 186.74606323 C307.51198486 186.72769409 307.51198486 186.72769409 309.41461182 186.70895386 C329.39431199 186.51216054 348.94592956 198.99566832 362.77203369 212.37106323 C377.48492954 227.21839882 386.44474335 247.86993099 387.64703369 268.74606323 C387.72631104 269.9004187 387.72631104 269.9004187 387.80718994 271.07809448 C388.33458887 286.00577714 384.99714407 300.32637185 378.64703369 313.74606323 C378.20617432 314.70770386 377.76531494 315.66934448 377.31109619 316.66012573 C374.14676043 323.00708821 370.03138356 328.14382228 365.25372314 333.33248901 C362.02741369 336.90208326 362.02741369 336.90208326 361.64703369 341.74606323 C362.94055702 343.44381261 364.27220662 345.11345609 365.64703369 346.74606323 C365.64703369 347.40606323 365.64703369 348.06606323 365.64703369 348.74606323 C366.19230713 348.38512573 366.73758057 348.02418823 367.29937744 347.65231323 C372.08354784 344.70820837 375.77815733 343.19026074 381.40875244 343.17965698 C387.48008742 344.7160332 391.13280509 349.16887279 394.70953369 353.99606323 C395.66640105 355.25108854 396.62479809 356.5049487 397.58453369 357.75778198 C398.08211182 358.41053101 398.57968994 359.06328003 399.09234619 359.73580933 C401.73113965 363.1478422 404.47448158 366.47359537 407.20953369 369.80856323 C412.09344546 375.7906156 416.8947802 381.82267669 421.54547119 387.98825073 C422.78047323 389.60890397 424.04508078 391.20895057 425.37359619 392.75387573 C428.75471829 396.81500004 429.20519312 400.1304289 429.21343994 405.21871948 C427.75999437 411.70409387 423.00755948 415.45087677 417.95953369 419.24606323 C417.3373999 419.72019653 416.71526611 420.19432983 416.07427979 420.68283081 C414.83610631 421.62020417 413.5940133 422.55242679 412.34771729 423.47897339 C410.88928485 424.56557464 409.44798424 425.67510451 408.01031494 426.78903198 C404.56474156 429.32059637 401.79355203 431.10171746 397.45953369 431.37106323 C389.57866502 430.07911755 385.63796283 424.76393058 380.89703369 418.80856323 C380.28287598 418.05003052 379.66871826 417.2914978 379.03594971 416.50997925 C374.67660336 411.10306894 370.42908049 405.61640402 366.23297119 400.08200073 C364.2887541 397.5438462 362.28214467 395.06475701 360.24859619 392.59762573 C359.36893188 391.52943604 359.36893188 391.52943604 358.47149658 390.43966675 C357.32729856 389.05575314 356.17830679 387.6757839 355.02374268 386.30050659 C350.53279563 380.86714268 347.00885782 375.9837035 347.28765869 368.70700073 C347.89097019 365.41501841 349.54034469 363.27409003 351.64703369 360.74606323 C352.63703369 360.08606323 353.62703369 359.42606323 354.64703369 358.74606323 C354.28701332 355.62588668 353.08810794 353.91669194 351.09625244 351.59762573 C350.28801025 350.65661011 349.47976807 349.71559448 348.64703369 348.74606323 C347.76144775 349.26555542 346.87586182 349.78504761 345.96343994 350.32028198 C333.28111091 357.54380099 320.34921304 362.19754047 305.64703369 362.74606323 C305.67321777 363.32573853 305.69940186 363.90541382 305.72637939 364.50265503 C305.83073981 367.14601198 305.89547696 369.78893522 305.95953369 372.43356323 C306.00142822 373.34557495 306.04332275 374.25758667 306.08648682 375.19723511 C306.1026001 376.08346558 306.11871338 376.96969604 306.13531494 377.88278198 C306.16149902 378.69448853 306.18768311 379.50619507 306.21466064 380.34249878 C305.32982836 384.08924021 303.71979135 385.48025228 300.64703369 387.74606323 C297.69593152 388.40376852 294.85739956 388.33082725 291.84625244 388.23434448 C291.00987747 388.22726974 290.1735025 388.22019501 289.31178284 388.21290588 C286.65177318 388.18501308 283.9939023 388.12228804 281.33453369 388.05856323 C279.52662148 388.03347357 277.71867613 388.01066157 275.91070557 387.99020386 C271.48866297 387.93520365 267.06821039 387.84896966 262.64703369 387.74606323 C262.65750732 388.87624878 262.66798096 390.00643433 262.67877197 391.17086792 C262.71499801 395.36777575 262.73794367 399.56466977 262.75689697 403.76168823 C262.76694861 405.57746709 262.78059198 407.39322979 262.7979126 409.20895386 C262.82219776 411.82032258 262.83352517 414.4314771 262.84234619 417.04293823 C262.85266876 417.8534967 262.86299133 418.66405518 262.87362671 419.49917603 C262.87505819 426.70562612 262.87505819 426.70562612 260.64703369 429.74606323 C258.12732164 431.00591926 256.40491861 430.87373484 253.58355045 430.877491 C252.50504922 430.88133214 251.42654799 430.88517329 250.3153649 430.88913083 C248.52371843 430.88783111 248.52371843 430.88783111 246.69587708 430.88650513 C245.43446724 430.88947625 244.17305741 430.89244737 242.87342304 430.89550853 C239.36064321 430.90359664 235.8478838 430.9053691 232.33509576 430.906106 C228.55111984 430.90795338 224.76715459 430.91549904 220.98318481 430.92224121 C212.70444169 430.93583724 204.42570339 430.94185104 196.14695096 430.94625187 C190.98125114 430.94901177 185.81555321 430.95324862 180.64985466 430.95775604 C166.35737634 430.96994965 152.06489953 430.98024925 137.77241611 430.98363113 C136.39966569 430.98396048 136.39966569 430.98396048 134.99918294 430.98429649 C134.08178659 430.98451476 133.16439023 430.98473304 132.21919399 430.98495793 C130.36009824 430.9854014 128.50100249 430.98584797 126.64190674 430.98629761 C125.71972471 430.98651904 124.79754268 430.98674047 123.84741574 430.98696861 C108.89570466 430.99091891 93.94404225 431.00837957 78.99234999 431.03165713 C63.65461192 431.05534371 48.31689831 431.06783173 32.97914165 431.06899905 C24.36227865 431.06991726 15.74547908 431.07570613 7.1286335 431.09381866 C-0.20691902 431.10918327 -7.54238852 431.1143617 -14.87795406 431.10608056 C-18.62311999 431.10216126 -22.36811852 431.10316559 -26.11326408 431.11713791 C-30.16724036 431.13212465 -34.22083585 431.12404852 -38.27482605 431.11355591 C-40.06312644 431.12564052 -40.06312644 431.12564052 -41.88755411 431.13796926 C-42.96866309 431.13137941 -44.04977207 431.12478957 -45.16364193 431.11800003 C-46.56830995 431.11889566 -46.56830995 431.11889566 -48.00135511 431.11980939 C-50.35296631 430.74606323 -50.35296631 430.74606323 -52.15370387 429.63206941 C-53.94523553 426.81463791 -53.72914232 424.51977129 -53.73048973 421.19802761 C-53.73485005 420.52656929 -53.73921038 419.85511097 -53.74370283 419.16330543 C-53.75471431 416.89702409 -53.74421021 414.63134416 -53.73391724 412.36506653 C-53.73737148 410.73047862 -53.74213447 409.09589303 -53.74809897 407.46131235 C-53.76067064 402.95686548 -53.75441072 398.45260826 -53.74514031 393.94816053 C-53.73837535 389.09535559 -53.74881829 384.24258413 -53.75708008 379.38978577 C-53.77044667 369.87841744 -53.76752676 360.36711997 -53.75884216 350.85574882 C-53.7520779 343.12890456 -53.75114342 335.40208021 -53.7544136 327.67523384 C-53.7548733 326.57717471 -53.755333 325.47911557 -53.75580663 324.34778192 C-53.75676577 322.11738597 -53.75773841 319.88699004 -53.75872441 317.65659411 C-53.76728677 296.72376346 -53.7574307 275.79097218 -53.74132331 254.85814799 C-53.7279175 236.87927906 -53.73024876 218.90046822 -53.74407959 200.92160034 C-53.76011725 180.06415031 -53.76646469 159.2067348 -53.7572428 138.34927946 C-53.75628711 136.12721193 -53.755344 133.9051444 -53.7544136 131.68307686 C-53.75395078 130.58965558 -53.75348795 129.4962343 -53.7530111 128.36967904 C-53.7504159 120.64758197 -53.75480355 112.92550671 -53.76185226 105.20341301 C-53.77024727 95.79934375 -53.76802934 86.39534966 -53.75201003 76.99128907 C-53.74410055 72.18907146 -53.74108104 67.38697938 -53.75095749 62.58476257 C-53.75984972 58.19486939 -53.75506276 53.80521894 -53.73902483 49.415348 C-53.73565368 47.82120244 -53.73742292 46.22703666 -53.7446522 44.63290393 C-53.7536815 42.47772391 -53.74451512 40.32339222 -53.73048973 38.16825771 C-53.73000267 36.96768937 -53.72951562 35.76712102 -53.7290138 34.53017181 C-53.60491813 33.61141598 -53.48082246 32.69266015 -53.35296631 31.74606323 C-49.41992159 29.12403342 -46.08671562 29.49457796 -41.52874756 29.55075073 C-40.66734665 29.55358063 -39.80594574 29.55641052 -38.91844177 29.55932617 C-36.16730862 29.57052086 -33.41650106 29.59562402 -30.66546631 29.62106323 C-28.80023664 29.63109396 -26.93500186 29.64021965 -25.06976318 29.64840698 C-20.49737211 29.67045785 -15.92522441 29.70498275 -11.35296631 29.74606323 C-11.36867676 29.07550903 -11.38438721 28.40495483 -11.40057373 27.71408081 C-11.46311289 24.66232813 -11.50201694 21.61071055 -11.54046631 18.55856323 C-11.56560303 17.50346558 -11.59073975 16.44836792 -11.61663818 15.36129761 C-11.62630615 14.33971558 -11.63597412 13.31813354 -11.64593506 12.26559448 C-11.66164551 11.32820435 -11.67735596 10.39081421 -11.69354248 9.42501831 C-10.69779692 1.59253366 -6.872712 0.56296431 0 0 Z M1.64703369 13.74606323 C1.64703369 132.87606323 1.64703369 252.00606323 1.64703369 374.74606323 C97.67703369 374.74606323 193.70703369 374.74606323 292.64703369 374.74606323 C292.64703369 370.78606323 292.64703369 366.82606323 292.64703369 362.74606323 C291.37730713 362.52692261 290.10758057 362.30778198 288.79937744 362.08200073 C273.21579182 359.26451765 259.6576581 355.17827973 246.64703369 345.74606323 C245.27611572 344.76186401 245.27611572 344.76186401 243.87750244 343.75778198 C239.17786606 340.16239583 235.54754432 336.79969297 232.36248732 331.77129441 C229.57147282 327.51576882 227.26239556 324.33591537 222.38713074 322.55570412 C218.54387058 322.12515331 214.81220713 322.0907071 210.95758057 322.21017456 C209.50121904 322.20724765 208.04485957 322.1985608 206.58856201 322.18460083 C202.66168969 322.16281203 198.73957655 322.22014281 194.81345177 322.29187608 C190.69847076 322.35276589 186.58377011 322.33797511 182.46844482 322.33094788 C174.68589773 322.32867344 166.90531302 322.39063648 159.12330294 322.47751683 C147.68266197 322.60221577 136.24169912 322.62724334 124.8004837 322.65530682 C123.11363208 322.65960742 121.42678058 322.66395482 119.7399292 322.66835022 C118.50512967 322.67142348 118.50512967 322.67142348 117.24538469 322.67455882 C112.34671277 322.68888864 107.44854896 322.72097412 102.55009365 322.76903212 C99.5126704 322.79807156 96.47521755 322.81993657 93.43772888 322.84086609 C92.02592563 322.85259322 90.61414691 322.86787104 89.2024231 322.88689232 C87.28134873 322.9125622 85.36011299 322.92518443 83.43890381 322.9370575 C82.36233269 322.94841138 81.28576157 322.95976526 80.17656708 322.9714632 C77.64703369 322.74606323 77.64703369 322.74606323 75.64703369 320.74606323 C75.31370036 315.4127299 75.31370036 315.4127299 76.64703369 312.74606323 C79.77040685 311.70493885 81.9690356 311.60868447 85.24681091 311.58784485 C86.99472679 311.57316162 86.99472679 311.57316162 88.7779541 311.55818176 C90.05757019 311.5524263 91.33718628 311.54667084 92.65557861 311.54074097 C94.01561277 311.53116157 95.37564394 311.52115145 96.735672 311.51074219 C100.4295724 311.48369376 104.12348558 311.46268386 107.81743026 311.4427402 C111.67718445 311.42088027 115.53689927 311.39349162 119.3966217 311.36668396 C126.70635591 311.31675717 134.01611197 311.27181829 141.32588893 311.2286616 C149.64747063 311.17928911 157.96901282 311.12437102 166.29055631 311.06898201 C183.40934559 310.95516217 200.52817154 310.84832312 217.64703369 310.74606323 C217.44107574 310.06565475 217.2351178 309.38524628 217.0229187 308.68421936 C216.75272919 307.7883461 216.48253967 306.89247284 216.2041626 305.9694519 C215.93632965 305.08279343 215.6684967 304.19613495 215.39254761 303.28260803 C214.49512518 300.22920804 213.73050237 297.1610332 213.02203369 294.05856323 C212.78226807 293.02344604 212.54250244 291.98832886 212.29547119 290.92184448 C211.60549181 287.54260811 211.12234373 284.16137549 210.64703369 280.74606323 C209.96950641 280.74275309 209.29197912 280.73944294 208.59392071 280.73603249 C192.11936387 280.6548641 175.6449079 280.56279203 159.17048168 280.45853615 C151.20361952 280.40838291 143.2367678 280.36194035 135.26983643 280.32418823 C128.32705108 280.29127977 121.38434604 280.25145499 114.44164926 280.20327318 C110.76446484 280.1779967 107.08733376 280.15621888 103.41008568 280.14271927 C99.30820522 280.12753134 95.20658116 280.09690458 91.10479736 280.06491089 C89.26952988 280.06167061 89.26952988 280.06167061 87.39718628 280.05836487 C86.28239395 280.04720139 85.16760162 280.0360379 84.01902771 280.02453613 C83.0483797 280.01900537 82.07773169 280.01347462 81.0776701 280.00777626 C78.64703369 279.74606323 78.64703369 279.74606323 75.64703369 277.74606323 C75.33453369 274.24606323 75.33453369 274.24606323 75.64703369 270.74606323 C78.24633764 268.14675928 79.31612668 268.48804576 82.93673706 268.46759033 C84.61948479 268.45084511 84.61948479 268.45084511 86.33622742 268.4337616 C88.19091393 268.43052132 88.19091393 268.43052132 90.08306885 268.42721558 C92.02934425 268.41214714 92.02934425 268.41214714 94.01493835 268.39677429 C97.57874321 268.36940789 101.1425084 268.35430535 104.70639086 268.34134626 C108.42870684 268.32574464 112.15094145 268.29894504 115.87319946 268.27331543 C122.92442142 268.22647489 129.9756586 268.1897564 137.02695692 268.15664256 C145.05350292 268.11845835 153.07996732 268.06903856 161.1064446 268.0186584 C177.61991574 267.91526013 194.13343209 267.82602551 210.64703369 267.74606323 C210.79737061 266.92368164 210.79737061 266.92368164 210.95074463 266.08468628 C211.42312126 263.53240644 211.91002502 260.98308995 212.39703369 258.43356323 C212.55429932 257.57182495 212.71156494 256.71008667 212.87359619 255.82223511 C214.19419518 248.99067498 216.20340575 243.46604006 218.64703369 236.74606323 C147.86203369 236.25106323 147.86203369 236.25106323 75.64703369 235.74606323 C75.64703369 227.74606323 75.64703369 227.74606323 76.64703369 225.74606323 C79.93499441 224.54123468 83.15325956 224.63132423 86.62367249 224.64840698 C88.45944603 224.65323341 88.45944603 224.65323341 90.33230591 224.65815735 C91.68566907 224.66660624 93.0390321 224.67507555 94.39239502 224.68356323 C95.82003087 224.68871775 97.24766886 224.69330667 98.67530823 224.69737244 C101.74841641 224.70643033 104.8215058 224.7177314 107.89460182 224.73022461 C112.75697616 224.74818692 117.61927183 224.75014521 122.48167419 224.74777222 C123.30275077 224.74740306 124.12382735 224.7470339 124.96978503 224.74665356 C127.4982691 224.74533593 130.02675292 224.74377858 132.55523682 224.74215698 C143.02395224 224.73544639 153.49217009 224.74031174 163.96075439 224.79733276 C171.59813947 224.83882182 179.23482484 224.84854382 186.87228411 224.82122231 C190.912253 224.80798499 194.95077118 224.81081409 198.99057961 224.8522644 C202.79244342 224.89094287 206.59196859 224.88746957 210.3938427 224.85214043 C211.78579448 224.84661047 213.1779072 224.85635756 214.56961823 224.88282967 C222.30908465 225.16949609 222.30908465 225.16949609 228.94946861 221.80755615 C230.72637094 219.53270534 232.17379665 217.22401948 233.64703369 214.74606323 C248.02448774 197.66740254 269.96556053 189.20056963 291.64703369 186.74606323 C292.9645038 185.65388024 292.9645038 185.65388024 292.76728821 182.96833801 C292.7650676 181.72701614 292.76284698 180.48569427 292.76055908 179.20675659 C292.76077812 178.18241264 292.76077812 178.18241264 292.76100159 177.13737488 C292.76030246 174.87018709 292.75251009 172.6030805 292.74468994 170.33590698 C292.74282576 168.76791936 292.74140186 167.19993116 292.74040222 165.63194275 C292.73657703 161.4972982 292.72674675 157.36268857 292.71569824 153.22805786 C292.70548414 149.01205925 292.7009046 144.79605502 292.69586182 140.58004761 C292.68512448 132.30203676 292.66804805 124.02405434 292.64703369 115.74606323 C290.79327621 115.73393295 290.79327621 115.73393295 288.90206909 115.72155762 C277.27684386 115.6441995 265.65173716 115.55648671 254.02666664 115.45853615 C248.04956017 115.40850974 242.07247192 115.3621804 236.09527588 115.32418823 C230.33102685 115.28741544 224.56692801 115.24107763 218.80280685 115.18799973 C216.59952799 115.16941308 214.39621688 115.15432106 212.19289017 115.14271927 C209.11576073 115.12592969 206.03897852 115.09691271 202.9619751 115.06491089 C202.04344254 115.0627507 201.12490997 115.06059052 200.17854309 115.05836487 C199.34279251 115.04720139 198.50704193 115.0360379 197.64596558 115.02453613 C196.91774912 115.01900537 196.18953266 115.01347462 195.43924904 115.00777626 C193.64703369 114.74606323 193.64703369 114.74606323 191.64703369 112.74606323 C191.38532066 110.95384789 191.38532066 110.95384789 191.36856079 108.74713135 C191.35183351 107.49611413 191.35183351 107.49611413 191.3347683 106.21982384 C191.33151008 104.83941634 191.33151008 104.83941634 191.32818604 103.43112183 C191.31803278 102.44957438 191.30787952 101.46802692 191.29741859 100.45673561 C191.26670404 97.26932789 191.24960357 94.08200987 191.23297119 90.89450073 C191.21604456 88.930707 191.19822882 86.96692072 191.17950439 85.00314331 C191.11622194 77.70920227 191.07018455 70.41511986 191.02203369 63.12106323 C190.89828369 46.82731323 190.77453369 30.53356323 190.64703369 13.74606323 C128.27703369 13.74606323 65.90703369 13.74606323 1.64703369 13.74606323 Z M203.64703369 23.74606323 C203.64703369 49.81606323 203.64703369 75.88606323 203.64703369 102.74606323 C229.71703369 102.74606323 255.78703369 102.74606323 282.64703369 102.74606323 C278.03911507 97.31386452 278.03911507 97.31386452 273.19883728 92.17088318 C272.58621536 91.55544144 271.97359344 90.93999969 271.34240723 90.3059082 C270.69229675 89.65782196 270.04218628 89.00973572 269.37237549 88.3420105 C268.67084854 87.63873123 267.96932159 86.93545197 267.24653625 86.21086121 C264.94893467 83.90889138 262.64773449 81.61055918 260.34625244 79.31246948 C258.74281948 77.70836249 257.13953496 76.10410712 255.53639221 74.49971008 C252.18842058 71.15026869 248.83865785 67.80263178 245.48760986 64.45626831 C241.18200848 60.15639151 236.8809489 55.85200391 232.58119488 51.54628086 C229.27774555 48.23922999 225.97193309 44.93454969 222.66538429 41.63059807 C221.07733464 40.04321738 219.49003268 38.45508835 217.90347862 36.86621284 C215.69629448 34.65650587 213.48595948 32.45000126 211.27471924 30.24435425 C210.61448761 29.58209839 209.95425598 28.91984253 209.27401733 28.23751831 C206.8378756 25.20104091 206.8378756 25.20104091 203.64703369 23.74606323 Z M-41.35296631 42.74606323 C-41.35296631 166.49606323 -41.35296631 290.24606323 -41.35296631 417.74606323 C54.67703369 417.74606323 150.70703369 417.74606323 249.64703369 417.74606323 C249.64703369 407.84606323 249.64703369 397.94606323 249.64703369 387.74606323 C246.44650803 387.73797638 243.24598236 387.72988953 239.94847107 387.72155762 C210.61946838 387.64653081 181.29051085 387.56166017 151.96156849 387.46601162 C148.11998877 387.4534923 144.27840878 387.44105959 140.43682861 387.42868042 C139.28961294 387.42498143 139.28961294 387.42498143 138.11922119 387.42120771 C125.7249286 387.38145126 113.33062687 387.34871671 100.93630763 387.31856342 C88.22475609 387.28748256 75.51324349 387.24888768 62.8017357 387.20327318 C54.95394315 387.17535 47.10617919 387.15333363 39.25835023 387.13880073 C33.24723257 387.12704231 27.23620041 387.10484499 21.22512627 387.07868004 C18.75434644 387.06957759 16.28355132 387.06390786 13.81275558 387.06184959 C10.45057715 387.05854586 7.08867072 387.04311977 3.72654724 387.02453613 C2.739203 387.02647087 1.75185876 387.0284056 0.734595 387.03039896 C-0.61198862 387.01920073 -0.61198862 387.01920073 -1.98577595 387.00777626 C-2.76230402 387.00549794 -3.5388321 387.00321962 -4.33889133 387.00087225 C-6.35296631 386.74606323 -6.35296631 386.74606323 -9.35296631 384.74606323 C-10.40238655 381.59780249 -10.48309033 379.38806664 -10.49163151 376.08263111 C-10.49710595 374.89578687 -10.5025804 373.70894262 -10.50822073 372.4861334 C-10.50919884 371.17584045 -10.51017695 369.8655475 -10.51118469 368.51554871 C-10.51574912 367.11465077 -10.52074897 365.7137542 -10.52614826 364.31285924 C-10.53975233 360.45450674 -10.54715428 356.59616308 -10.55357492 352.73779285 C-10.56156891 348.58033197 -10.57527012 344.42288953 -10.58828735 340.26544189 C-10.61006432 333.05945219 -10.62820435 325.85346064 -10.64389229 318.64745522 C-10.6665798 308.22870918 -10.69472418 297.80998355 -10.72421157 287.39125481 C-10.7719012 270.48861857 -10.81516167 253.585974 -10.85565186 236.68331909 C-10.89499981 220.26143749 -10.93642435 203.83956331 -10.98065186 187.41769409 C-10.98337613 186.40589076 -10.9861004 185.39408743 -10.98890723 184.35162339 C-11.00258659 179.27583505 -11.01630688 174.20004682 -11.03004754 169.12425864 C-11.14403386 126.99820878 -11.25056616 84.87214271 -11.35296631 42.74606323 C-21.25296631 42.74606323 -31.15296631 42.74606323 -41.35296631 42.74606323 Z M242.06500244 223.92184448 C226.17421735 242.48248684 222.42244395 262.91167968 223.64703369 286.74606323 C225.54154232 304.35936625 237.56943569 322.0800691 250.60797119 333.39450073 C268.41492267 347.17314442 289.60907295 352.15009305 311.88140869 349.47799683 C326.18289955 346.99001601 340.00825704 339.45196208 350.64703369 329.74606323 C351.25547119 329.22914917 351.86390869 328.71223511 352.49078369 328.17965698 C366.88666333 315.12521158 372.90781782 295.85167874 374.93218994 277.10543823 C375.7522552 256.14029165 366.62329164 235.96411413 352.64703369 220.74606323 C337.25502279 205.87371829 317.385684 198.24402158 296.03765869 198.53903198 C274.79448395 199.83613827 256.84089246 208.58216851 242.06500244 223.92184448 Z M371.83453369 361.99606323 C371.20482666 362.48719604 370.57511963 362.97832886 369.92633057 363.48434448 C366.63339513 366.07584666 363.532871 368.69303636 360.64703369 371.74606323 C361.01353027 372.18772827 361.38002686 372.62939331 361.75762939 373.08444214 C369.38770047 382.28908568 376.92784551 391.54854861 384.27203369 400.98287964 C386.78329851 404.20311304 389.31009934 407.41115132 391.83453369 410.62106323 C392.76558509 411.8059105 393.69658072 412.99080159 394.62750244 414.17575073 C395.29394775 415.02395386 395.96039307 415.87215698 396.64703369 416.74606323 C399.87791862 416.14417058 401.78654239 415.09732766 404.31890869 413.02340698 C404.98277588 412.48522339 405.64664307 411.94703979 406.33062744 411.39254761 C407.0125415 410.82858276 407.69445557 410.26461792 408.39703369 409.68356323 C409.0944165 409.1157312 409.79179932 408.54789917 410.51031494 407.96286011 C412.22755557 406.56319137 413.93946665 405.15750387 415.64703369 403.74606323 C414.34938243 400.96151991 412.92018737 398.6736471 410.95953369 396.31246948 C410.43085693 395.67035522 409.90218018 395.02824097 409.35748291 394.3666687 C408.79303467 393.6874939 408.22858643 393.00831909 407.64703369 392.30856323 C402.27605629 385.77533182 397.07027781 379.1481725 391.93560791 372.42721558 C389.50075009 369.25055189 387.04611748 366.08954245 384.58453369 362.93356323 C384.1067749 362.31594116 383.62901611 361.69831909 383.13677979 361.0619812 C381.99719399 359.60452628 380.82532128 358.17241136 379.64703369 356.74606323 C377.08139631 356.74606323 373.88584798 360.37562803 371.83453369 361.99606323 Z " fill="#000000" transform="translate(68.35296630859375,40.253936767578125)"/>
<path d="M0 0 C12.50352642 9.44922989 20.77399913 22.37597712 23.8359375 37.77734375 C26.03017623 53.59036995 23.56673853 69.89301258 14.30859375 83.18359375 C5.03076798 95.0522086 -8.2314066 106.1748109 -23.69140625 108.18359375 C-41.97818599 110.21326866 -58.31677267 107.86366249 -73.265625 96.203125 C-74.46638672 95.20345703 -74.46638672 95.20345703 -75.69140625 94.18359375 C-76.66013672 93.38501953 -76.66013672 93.38501953 -77.6484375 92.5703125 C-88.94442091 82.29428245 -94.99177924 67.00256606 -95.8125 51.96484375 C-96.2409794 36.03549208 -91.39953646 22.71511754 -81.69140625 10.18359375 C-80.75361328 8.92869141 -80.75361328 8.92869141 -79.796875 7.6484375 C-59.97061379 -15.56189798 -24.02223777 -16.21239559 0 0 Z M-64.69140625 12.18359375 C-65.74328125 12.94671875 -66.79515625 13.70984375 -67.87890625 14.49609375 C-75.9847537 22.24168132 -82.0413114 33.91528298 -82.69140625 45.18359375 C-82.77390625 46.37984375 -82.85640625 47.57609375 -82.94140625 48.80859375 C-82.70380751 62.40452174 -77.32433409 73.09040837 -68.21484375 82.8203125 C-57.68342646 92.68332714 -45.95119804 96.41433472 -31.69140625 96.18359375 C-18.98492616 94.68099048 -8.7681871 89.35290732 0.01171875 80.09765625 C8.56822558 69.24195201 12.36904342 56.93523139 11.30859375 43.18359375 C9.61429101 31.29266906 3.96695952 19.61451033 -5.69140625 12.18359375 C-24.31162201 -0.61279556 -46.30769974 -2.08993448 -64.69140625 12.18359375 Z " fill="#000000" transform="translate(402.69140625,265.81640625)"/>
<path d="M0 0 C0.73563486 -0.00538554 1.47126972 -0.01077108 2.22919655 -0.01631981 C4.69512262 -0.0306318 7.16051434 -0.02348791 9.62646484 -0.01637268 C11.39394564 -0.02207452 13.16142276 -0.02903806 14.92889404 -0.03717041 C19.73047847 -0.05513634 24.5318805 -0.05392714 29.33348846 -0.04822803 C33.33967472 -0.04514151 37.34582567 -0.05122255 41.35200691 -0.05726677 C50.80094454 -0.07132132 60.24979177 -0.06974263 69.69873047 -0.05836487 C79.45317335 -0.04687894 89.20734145 -0.06096519 98.96174812 -0.08776134 C107.33211774 -0.10989618 115.70240096 -0.11656084 124.07279778 -0.11068493 C129.07409113 -0.10730929 134.07520825 -0.10977078 139.07647705 -0.12693596 C143.77808798 -0.14236804 148.47929073 -0.1384913 153.18088531 -0.11963081 C154.90786916 -0.11593472 156.63488301 -0.119083 158.36183929 -0.1295166 C160.71663586 -0.14265895 163.07006757 -0.13124077 165.42480469 -0.11352539 C166.74330414 -0.11331611 168.06180359 -0.11310682 169.42025757 -0.1128912 C172.71240234 0.38768005 172.71240234 0.38768005 175.17178345 2.19244289 C176.71240234 4.38768005 176.71240234 4.38768005 176.64990234 8.01268005 C175.71240234 11.38768005 175.71240234 11.38768005 172.71240234 13.38768005 C170.27036692 13.58264066 167.94252591 13.6616858 165.50036621 13.64837646 C164.76079666 13.65220201 164.0212271 13.65602756 163.25924635 13.65996903 C160.77415892 13.6703109 158.28930202 13.6663047 155.80419922 13.66233826 C154.02539353 13.66668404 152.24658971 13.67186674 150.4677887 13.67782593 C145.63112129 13.69124056 140.7945319 13.69179194 135.9578495 13.68926263 C131.92428756 13.68819473 127.89074152 13.69307154 123.85718298 13.69786805 C114.34455525 13.70897144 104.83196701 13.70939575 95.31933594 13.70335388 C85.49507328 13.69731021 75.67095369 13.7096332 65.84671545 13.73092395 C57.42034155 13.74851603 48.9940133 13.75454516 40.56762171 13.75128621 C35.53116117 13.74946961 30.49480273 13.752147 25.45835876 13.76600075 C20.72399888 13.77853586 15.98986279 13.77667614 11.25550652 13.76358986 C9.51520145 13.76121519 7.77488084 13.76399041 6.03459358 13.77221298 C3.66427876 13.78260725 1.29472517 13.77463965 -1.07556152 13.76190186 C-2.11577666 13.77296328 -2.11577666 13.77296328 -3.17700624 13.78424817 C-5.97435963 13.7524822 -7.8617005 13.67656407 -10.21100616 12.08304119 C-12.05946129 9.17218873 -11.703462 6.71459479 -11.28759766 3.38768005 C-7.95815208 -0.20155828 -4.70852425 0.00867746 0 0 Z " fill="#000000" transform="translate(154.28759765625,220.61231994628906)"/>
<path d="M0 0 C0.74365311 -0.00538554 1.48730621 -0.01077108 2.25349426 -0.01631981 C4.75249644 -0.03066021 7.25097345 -0.02348094 9.75 -0.01637268 C11.53865995 -0.02207304 13.32731626 -0.029036 15.1159668 -0.03717041 C19.97952405 -0.05515282 24.84290139 -0.05392405 29.70648193 -0.04822803 C33.7624187 -0.04514384 37.81832052 -0.05121994 41.87425232 -0.05726677 C51.43963512 -0.07132676 61.00492864 -0.06973815 70.5703125 -0.05836487 C80.44915326 -0.04687869 90.3277227 -0.06096438 100.20652771 -0.08776134 C108.67962054 -0.10988741 117.152628 -0.11656282 125.62574768 -0.11068493 C130.69018041 -0.10730714 135.75443913 -0.10978487 140.81884766 -0.12693596 C145.57953644 -0.14235411 150.33982184 -0.13850693 155.10049438 -0.11963081 C156.85047323 -0.11593081 158.60048163 -0.11909423 160.35043335 -0.1295166 C162.73409341 -0.14263243 165.11639939 -0.13126456 167.5 -0.11352539 C168.54605156 -0.1279329 168.54605156 -0.1279329 169.61323547 -0.14263147 C172.79219232 -0.09373764 174.35140392 0.00117153 176.6796875 2.25884914 C178.00574902 4.89635991 178.19852535 6.47226526 177.75 9.38768005 C175.87139167 11.89249116 174.78898126 12.3746863 171.75 13.38768005 C169.40042028 13.48448121 167.04811944 13.51835507 164.69654846 13.52139282 C163.97401868 13.52365838 163.2514889 13.52592394 162.50706428 13.52825814 C160.07964456 13.53460154 157.65228062 13.53376857 155.22485352 13.53294373 C153.48708015 13.53593498 151.74930746 13.53933744 150.01153564 13.54312134 C145.28638526 13.55196841 140.56125297 13.55429973 135.83609509 13.55493712 C131.89458904 13.55588569 127.95308722 13.55956334 124.01158279 13.56310922 C114.71466956 13.57125629 105.41776601 13.5736932 96.12084961 13.57298279 C86.52271804 13.57238176 76.92464263 13.58293808 67.32652527 13.59872645 C59.09207283 13.61179021 50.85763877 13.61716718 42.62317604 13.61652738 C37.70239822 13.61627207 32.78167031 13.61914139 27.86090279 13.62970543 C23.23410574 13.63936696 18.60740652 13.63947899 13.98060608 13.6321888 C12.28103429 13.63114056 10.58145648 13.63351993 8.88189507 13.63954926 C6.56462577 13.6472385 4.24769687 13.64264492 1.93043518 13.63491821 C0.63275994 13.63546298 -0.66491529 13.63600775 -2.00191402 13.63656902 C-5.05210898 13.40284372 -6.75413025 13.10376557 -9.25 11.38768005 C-10.64935013 8.58897979 -10.50265405 6.48269213 -10.25 3.38768005 C-7.77351998 -0.49818222 -4.17221705 -0.03595695 0 0 Z " fill="#000000" transform="translate(153.25,177.61231994628906)"/>
<path d="M0 0 C1.57539551 -0.00218285 1.57539551 -0.00218285 3.18261719 -0.00440979 C5.40172095 -0.00275082 7.62083621 0.00881014 9.83984375 0.02954102 C13.23747609 0.05848705 16.6335475 0.05015096 20.03125 0.03710938 C22.18750759 0.04334706 24.34376025 0.05173824 26.5 0.0625 C27.51674805 0.05956436 28.53349609 0.05662872 29.58105469 0.05360413 C30.52883789 0.0662883 31.47662109 0.07897247 32.453125 0.09204102 C33.28489258 0.097444 34.11666016 0.10284698 34.97363281 0.1084137 C37.86133805 0.60020857 39.20896677 1.39804491 41.25 3.49609375 C41.75120544 5.73486328 41.75120544 5.73486328 41.75170898 8.37890625 C41.76108994 9.37003418 41.77047089 10.36116211 41.78013611 11.38232422 C41.76890213 12.45111816 41.75766815 13.51991211 41.74609375 14.62109375 C41.74754898 15.71953613 41.74900421 16.81797852 41.75050354 17.94970703 C41.74884283 20.27313895 41.73726244 22.59658166 41.71655273 24.91992188 C41.68761251 28.48224475 41.69593803 32.04307909 41.70898438 35.60546875 C41.70274681 37.86068434 41.69435573 40.11589521 41.68359375 42.37109375 C41.68652939 43.4398877 41.68946503 44.50868164 41.69248962 45.60986328 C41.67346336 47.09655518 41.67346336 47.09655518 41.65405273 48.61328125 C41.64864975 49.48581543 41.64324677 50.35834961 41.63768005 51.25732422 C41.25 53.49609375 41.25 53.49609375 40.02319336 55.27601624 C37.71536691 56.86395765 36.26697964 56.882435 33.47485352 56.90014648 C32.50697403 56.91283066 31.53909454 56.92551483 30.54188538 56.93858337 C29.49810226 56.93564774 28.45431915 56.9327121 27.37890625 56.9296875 C25.76809425 56.93755028 25.76809425 56.93755028 24.1247406 56.9455719 C21.85261907 56.95199822 19.5804643 56.95064726 17.30834961 56.94213867 C13.829313 56.93363485 10.35192092 56.96237346 6.87304688 56.99414062 C4.66666716 56.99575282 2.46028453 56.99517475 0.25390625 56.9921875 C-0.78785263 57.00342148 -1.82961151 57.01465546 -2.90293884 57.02622986 C-6.86456272 56.98795737 -9.85006892 56.95686045 -13.40454102 55.13696289 C-15.60517039 50.81756387 -15.31929376 46.52333059 -15.28125 41.74609375 C-15.2850769 40.69583008 -15.28890381 39.64556641 -15.29284668 38.56347656 C-15.29556696 36.34439128 -15.28819777 34.12527401 -15.27148438 31.90625 C-15.25007745 28.5083878 -15.27128325 25.11264014 -15.296875 21.71484375 C-15.29423175 19.55858908 -15.28910682 17.40233573 -15.28125 15.24609375 C-15.28934692 14.2293457 -15.29744385 13.21259766 -15.30578613 12.16503906 C-15.25384811 8.26089246 -15.19174723 5.35304852 -13.38867188 1.85522461 C-9.07308273 -0.36765518 -4.78126345 -0.05282785 0 0 Z M-1.75 13.49609375 C-1.75 23.39609375 -1.75 33.29609375 -1.75 43.49609375 C8.15 43.49609375 18.05 43.49609375 28.25 43.49609375 C28.25 33.59609375 28.25 23.69609375 28.25 13.49609375 C18.35 13.49609375 8.45 13.49609375 -1.75 13.49609375 Z " fill="#000000" transform="translate(114.75,99.50390625)"/>
<path d="M0 0 C6.11469237 6.11469237 10.39069291 13.83517632 11.125 22.5 C10.8125 25.8125 10.8125 25.8125 9.75 27.75 C6.65756242 29.44585287 4.25735259 29.24310657 0.8125 28.8125 C-1.93940663 26.55200527 -2.5503669 23.73527434 -3.5625 20.4375 C-5.46225133 14.50443046 -8.45485976 10.55196674 -13.9375 7.5 C-19.65687822 4.90907867 -25.37549986 4.73353296 -31.5625 4.9375 C-35.1875 4.8125 -35.1875 4.8125 -37.1875 3.75 C-38.79068593 0.64382725 -38.61501128 -1.76740979 -38.1875 -5.1875 C-28.43574111 -16.02278766 -9.28821659 -6.37426629 0 0 Z " fill="#000000" transform="translate(392.1875,287.1875)"/>
<path d="M0 0 C0.95455078 -0.02449219 1.90910156 -0.04898438 2.89257812 -0.07421875 C9.85315417 -0.1034444 9.85315417 -0.1034444 13.2265625 2.171875 C14.5625 4.375 14.5625 4.375 14.5 8 C13.5625 11.375 13.5625 11.375 10.5625 13.375 C7.09861866 13.83142994 3.61579246 13.74530492 0.125 13.75 C-1.30682617 13.78673828 -1.30682617 13.78673828 -2.76757812 13.82421875 C-9.72815417 13.8534444 -9.72815417 13.8534444 -13.1015625 11.578125 C-14.4375 9.375 -14.4375 9.375 -14.375 5.75 C-12.38912735 -1.39914154 -6.18240527 0.00831527 0 0 Z " fill="#000000" transform="translate(114.4375,220.625)"/>
<path d="M0 0 C0.95455078 -0.02449219 1.90910156 -0.04898437 2.89257812 -0.07421875 C9.88866438 -0.1035935 9.88866438 -0.1035935 13.19140625 2.2421875 C14.92427334 4.93775853 15.19154743 6.22976287 14.5625 9.375 C13.1875 11.5 13.1875 11.5 10.5625 13.375 C7.05571779 13.97940603 3.61267124 13.93280469 0.0625 13.875 C-0.88753906 13.89046875 -1.83757812 13.9059375 -2.81640625 13.921875 C-9.6883792 13.88321411 -9.6883792 13.88321411 -13.09765625 11.5703125 C-14.4375 9.375 -14.4375 9.375 -14.375 5.75 C-12.38912735 -1.39914154 -6.18240527 0.00831527 0 0 Z " fill="#000000" transform="translate(114.4375,307.625)"/>
<path d="M0 0 C0.84626953 -0.02835937 1.69253906 -0.05671875 2.56445312 -0.0859375 C7.03935698 -0.09995443 8.98605607 0.06657805 12.6640625 2.83203125 C14.5625 5.5 14.5625 5.5 14.5 8.6875 C13.5625 11.5 13.5625 11.5 11.5625 13.5 C7.7700729 13.98097498 3.94446721 13.87038433 0.125 13.875 C-0.93783203 13.89949219 -2.00066406 13.92398437 -3.09570312 13.94921875 C-4.11470703 13.95308594 -5.13371094 13.95695312 -6.18359375 13.9609375 C-7.11872803 13.96915527 -8.0538623 13.97737305 -9.01733398 13.98583984 C-11.4375 13.5 -11.4375 13.5 -13.26977539 11.66259766 C-14.4375 9.5 -14.4375 9.5 -14.375 6.4375 C-12.12401366 -0.61559052 -6.38375348 -0.01935937 0 0 Z " fill="#000000" transform="translate(114.4375,350.5)"/>
<path d="M0 0 C0.74636719 -0.01160156 1.49273437 -0.02320313 2.26171875 -0.03515625 C6.79044188 -0.01110993 9.85941334 0.39952052 13.5 3.375 C14.5 6.3125 14.5 6.3125 14.5 9.375 C13.32617188 11.53320312 13.32617188 11.53320312 11.5 13.375 C9.09570312 13.89257812 9.09570312 13.89257812 6.28125 13.90625 C5.26675781 13.91140625 4.25226563 13.9165625 3.20703125 13.921875 C2.14871094 13.90640625 1.09039062 13.8909375 0 13.875 C-1.58748047 13.89820313 -1.58748047 13.89820313 -3.20703125 13.921875 C-4.72876953 13.91414063 -4.72876953 13.91414063 -6.28125 13.90625 C-7.21001953 13.90173828 -8.13878906 13.89722656 -9.09570312 13.89257812 C-11.5 13.375 -11.5 13.375 -13.32617188 11.53320312 C-14.5 9.375 -14.5 9.375 -14.5 6.3125 C-13.5 3.375 -13.5 3.375 -11.46875 1.71484375 C-7.53831848 -0.05902205 -4.25965712 -0.06621229 0 0 Z " fill="#000000" transform="translate(114.5,263.625)"/>
<path d="M0 0 C1.01449219 -0.00515625 2.02898437 -0.0103125 3.07421875 -0.015625 C4.13253906 -0.00015625 5.19085938 0.0153125 6.28125 0.03125 C7.86873047 0.00804687 7.86873047 0.00804687 9.48828125 -0.015625 C11.01001953 -0.00789062 11.01001953 -0.00789062 12.5625 0 C13.49126953 0.00451172 14.42003906 0.00902344 15.37695312 0.01367188 C17.78125 0.53125 17.78125 0.53125 19.60742188 2.37304688 C20.78125 4.53125 20.78125 4.53125 20.78125 7.59375 C19.78125 10.53125 19.78125 10.53125 17.75 12.19140625 C13.81956848 13.96527205 10.54090712 13.97246229 6.28125 13.90625 C5.53488281 13.91785156 4.78851563 13.92945313 4.01953125 13.94140625 C-0.50919188 13.91735993 -3.57816334 13.50672948 -7.21875 10.53125 C-8.21875 7.59375 -8.21875 7.59375 -8.21875 4.53125 C-6.06167392 0.56524489 -4.42073725 0.02147478 0 0 Z " fill="#000000" transform="translate(108.21875,177.46875)"/>
</svg>
